#N struct 1158-f float x;
#N struct 1163-f float x;
#N struct 1203-f float x;
#N struct 1229-f float x;
#N struct 1350-f float x;
#N struct 1009-f float x;
#N canvas 962 54 476 1000 12;
#X obj 5 5 inlet;
#N canvas 2 54 1916 1000 pitch 0;
#X obj 5 8 inlet bang;
#X obj 287 225 outlet;
#N canvas 1282 54 636 1000 asc 0;
#X obj 10 15 inlet bang;
#X obj 89 15 inlet list;
#X obj 10 69 list store;
#X obj 10 167 list-idx;
#X obj 89 69 list length;
#X obj 63 94 f 0;
#X obj 63 118 + 1;
#X obj 63 142 %;
#X obj 10 93 t l b;
#X obj 10 193 outlet pitch;
#X obj 89 39 list-sort asc;
#X connect 0 0 2 0;
#X connect 1 0 10 0;
#X connect 1 0 4 0;
#X connect 2 0 8 0;
#X connect 3 0 9 0;
#X connect 4 0 7 1;
#X connect 5 0 6 0;
#X connect 6 0 7 0;
#X connect 7 0 5 1;
#X connect 7 0 3 1;
#X connect 8 0 3 0;
#X connect 8 1 5 0;
#X connect 10 0 2 1;
#X restore 61 164 pd asc;
#N canvas 962 54 956 1000 desc 0;
#X obj 19 19 inlet bang;
#X obj 104 19 inlet list;
#X obj 19 73 list store;
#X obj 19 171 list-idx;
#X obj 104 146 list length;
#X obj 72 98 f 0;
#X obj 72 122 + 1;
#X obj 72 146 %;
#X obj 19 97 t l b;
#X obj 86 47 list-sort desc;
#X obj 19 197 outlet pitch;
#X connect 0 0 2 0;
#X connect 1 0 4 0;
#X connect 1 0 9 0;
#X connect 2 0 8 0;
#X connect 3 0 10 0;
#X connect 4 0 7 1;
#X connect 5 0 6 0;
#X connect 6 0 7 0;
#X connect 7 0 5 1;
#X connect 7 0 3 1;
#X connect 8 0 3 0;
#X connect 8 1 5 0;
#X connect 9 0 2 1;
#X restore 117 164 pd desc;
#N canvas 642 54 636 1000 tran 0;
#X obj 10 15 inlet bang;
#X obj 109 15 inlet list;
#X obj 10 88 list store;
#X obj 109 40 t l b, f 12;
#X obj 109 88 list-map;
#X obj 176 88 +;
#X obj 10 112 pick-random;
#X obj 10 137 outlet pitch;
#X obj 194 63 expr random(-12 \, 12);
#X connect 0 0 2 0;
#X connect 1 0 3 0;
#X connect 2 0 6 0;
#X connect 3 0 4 0;
#X connect 3 1 8 0;
#X connect 4 0 2 1;
#X connect 4 1 5 0;
#X connect 5 0 4 1;
#X connect 6 0 7 0;
#X connect 8 0 5 1;
#X restore 174 164 pd tran;
#N canvas 962 54 956 1000 comp 0;
#X obj 8 5 inlet bang;
#X obj 93 5 inlet list;
#X obj 8 341 list store;
#X obj 8 367 pick-random;
#X obj 93 29 list-map;
#X obj 282 52 div 12;
#X obj 282 76 - 1;
#X obj 159 29 t f f f, f 18;
#X obj 196 52 wrap;
#X obj 159 52 % 12;
#X obj 282 122 list-extend;
#X obj 190 149 list store;
#X obj 190 124 t b b;
#X obj 93 245 list-sieve;
#X msg 93 197 0 1 2 3 4 5 6 7 8 9 10 11;
#X obj 93 221 list-drip;
#X obj 227 222 list length;
#X obj 227 246 expr abs(($f1 - 12));
#X obj 93 171 t b l l, f 19;
#X obj 160 271 list-lastx;
#X obj 129 101 list store;
#X obj 129 76 t b b;
#X obj 160 295 list-map2;
#X obj 196 75 list-extend;
#X obj 160 321 list-map2;
#X obj 230 321 +;
#X obj 282 99 * 12;
#X obj 230 295 +;
#X obj 232 171 list-unique;
#X obj 8 393 outlet pitch;
#X connect 0 0 2 0;
#X connect 1 0 4 0;
#X connect 2 0 3 0;
#X connect 3 0 29 0;
#X connect 4 0 12 0;
#X connect 4 0 18 0;
#X connect 4 0 21 0;
#X connect 4 1 7 0;
#X connect 5 0 6 0;
#X connect 6 0 26 0;
#X connect 7 0 9 0;
#X connect 7 1 8 0;
#X connect 7 2 5 0;
#X connect 8 0 23 0;
#X connect 9 0 4 1;
#X connect 10 0 11 1;
#X connect 11 0 22 1;
#X connect 12 0 11 0;
#X connect 12 1 10 1;
#X connect 13 1 19 0;
#X connect 14 0 15 0;
#X connect 15 0 13 0;
#X connect 16 0 17 0;
#X connect 17 0 19 1;
#X connect 18 0 14 0;
#X connect 18 1 13 1;
#X connect 18 2 28 0;
#X connect 19 0 22 0;
#X connect 20 0 24 1;
#X connect 21 0 20 0;
#X connect 21 1 23 1;
#X connect 22 0 24 0;
#X connect 22 1 27 0;
#X connect 23 0 20 1;
#X connect 24 0 2 1;
#X connect 24 1 25 0;
#X connect 25 0 24 2;
#X connect 26 0 10 0;
#X connect 27 0 22 2;
#X connect 28 0 16 0;
#X restore 287 164 pd comp;
#N canvas 962 54 956 1000 casc 0;
#X obj 5 5 inlet bang;
#X obj 84 5 inlet list;
#X obj 5 349 list store;
#X obj 5 447 list-idx;
#X obj 183 402 list length;
#X obj 58 374 f 0;
#X obj 58 398 + 1;
#X obj 58 422 %;
#X obj 5 373 t l b;
#X obj 84 244 list-sieve;
#X msg 84 196 0 1 2 3 4 5 6 7 8 9 10 11;
#X obj 84 220 list-drip;
#X obj 218 221 list length;
#X obj 218 245 expr abs(($f1 - 12));
#X obj 84 170 t b l l, f 19;
#X obj 151 270 list-lastx;
#X obj 151 343 t l l;
#X obj 151 368 list-sort asc;
#X obj 84 29 list-map;
#X obj 273 52 div 12;
#X obj 273 76 - 1;
#X obj 150 29 t f f f, f 18;
#X obj 187 52 wrap;
#X obj 150 52 % 12;
#X obj 273 122 list-extend;
#X obj 181 149 list store;
#X obj 181 124 t b b;
#X obj 120 101 list store;
#X obj 120 76 t b b;
#X obj 187 75 list-extend;
#X obj 273 99 * 12;
#X obj 151 294 list-map2;
#X obj 151 320 list-map2;
#X obj 221 320 +;
#X obj 221 294 +;
#X obj 223 170 list-unique;
#X obj 5 473 outlet pitch;
#X connect 0 0 2 0;
#X connect 1 0 18 0;
#X connect 2 0 8 0;
#X connect 3 0 36 0;
#X connect 4 0 7 1;
#X connect 5 0 6 0;
#X connect 6 0 7 0;
#X connect 7 0 5 1;
#X connect 7 0 3 1;
#X connect 8 0 3 0;
#X connect 8 1 5 0;
#X connect 9 1 15 0;
#X connect 10 0 11 0;
#X connect 11 0 9 0;
#X connect 12 0 13 0;
#X connect 13 0 15 1;
#X connect 14 0 10 0;
#X connect 14 1 9 1;
#X connect 14 2 35 0;
#X connect 15 0 31 0;
#X connect 16 0 17 0;
#X connect 16 1 4 0;
#X connect 17 0 2 1;
#X connect 18 0 26 0;
#X connect 18 0 28 0;
#X connect 18 0 14 0;
#X connect 18 1 21 0;
#X connect 19 0 20 0;
#X connect 20 0 30 0;
#X connect 21 0 23 0;
#X connect 21 1 22 0;
#X connect 21 2 19 0;
#X connect 22 0 29 0;
#X connect 23 0 18 1;
#X connect 24 0 25 1;
#X connect 25 0 31 1;
#X connect 26 0 25 0;
#X connect 26 1 24 1;
#X connect 27 0 32 1;
#X connect 28 0 27 0;
#X connect 28 1 29 1;
#X connect 29 0 27 1;
#X connect 30 0 24 0;
#X connect 31 0 32 0;
#X connect 31 1 34 0;
#X connect 32 0 16 0;
#X connect 32 1 33 0;
#X connect 33 0 32 2;
#X connect 34 0 31 2;
#X connect 35 0 12 0;
#X restore 343 164 pd casc;
#N canvas 962 54 956 1000 cdes 0;
#X obj 3 3 inlet bang;
#X obj 82 3 inlet list;
#X obj 3 354 list store;
#X obj 3 452 list-idx;
#X obj 87 427 list length;
#X obj 56 379 f 0;
#X obj 56 403 + 1;
#X obj 56 427 %;
#X obj 3 378 t l b;
#X obj 82 246 list-sieve;
#X msg 82 198 0 1 2 3 4 5 6 7 8 9 10 11;
#X obj 82 222 list-drip;
#X obj 216 223 list length;
#X obj 216 247 expr abs(($f1 - 12));
#X obj 82 172 t b l l, f 19;
#X obj 149 272 list-lastx;
#X obj 149 345 t l l;
#X obj 149 369 list-sort desc;
#X obj 82 28 list-map;
#X obj 271 51 div 12;
#X obj 271 75 - 1;
#X obj 148 28 t f f f, f 18;
#X obj 185 51 wrap;
#X obj 148 51 % 12;
#X obj 271 121 list-extend;
#X obj 179 148 list store;
#X obj 179 123 t b b;
#X obj 118 100 list store;
#X obj 118 75 t b b;
#X obj 185 74 list-extend;
#X obj 271 98 * 12;
#X obj 149 295 list-map2;
#X obj 149 321 list-map2;
#X obj 219 321 +;
#X obj 219 295 +;
#X obj 221 172 list-unique;
#X obj 3 478 outlet pitch;
#X connect 0 0 2 0;
#X connect 1 0 18 0;
#X connect 2 0 8 0;
#X connect 3 0 36 0;
#X connect 4 0 7 1;
#X connect 5 0 6 0;
#X connect 6 0 7 0;
#X connect 7 0 5 1;
#X connect 7 0 3 1;
#X connect 8 0 3 0;
#X connect 8 1 5 0;
#X connect 9 1 15 0;
#X connect 10 0 11 0;
#X connect 11 0 9 0;
#X connect 12 0 13 0;
#X connect 13 0 15 1;
#X connect 14 0 10 0;
#X connect 14 1 9 1;
#X connect 14 2 35 0;
#X connect 15 0 31 0;
#X connect 16 0 17 0;
#X connect 16 1 4 0;
#X connect 17 0 2 1;
#X connect 18 0 26 0;
#X connect 18 0 28 0;
#X connect 18 0 14 0;
#X connect 18 1 21 0;
#X connect 19 0 20 0;
#X connect 20 0 30 0;
#X connect 21 0 23 0;
#X connect 21 1 22 0;
#X connect 21 2 19 0;
#X connect 22 0 29 0;
#X connect 23 0 18 1;
#X connect 24 0 25 1;
#X connect 25 0 31 1;
#X connect 26 0 25 0;
#X connect 26 1 24 1;
#X connect 27 0 32 1;
#X connect 28 0 27 0;
#X connect 28 1 29 1;
#X connect 29 0 27 1;
#X connect 30 0 24 0;
#X connect 31 0 32 0;
#X connect 31 1 34 0;
#X connect 32 0 16 0;
#X connect 32 1 33 0;
#X connect 33 0 32 2;
#X connect 34 0 31 2;
#X connect 35 0 12 0;
#X restore 400 164 pd cdes;
#N canvas 962 54 956 1000 ctra 0;
#X obj 10 6 inlet bang;
#X obj 89 6 inlet list;
#X obj 89 245 list-sieve;
#X msg 89 197 0 1 2 3 4 5 6 7 8 9 10 11;
#X obj 89 221 list-drip;
#X obj 223 222 list length;
#X obj 223 246 expr abs(($f1 - 12));
#X obj 89 171 t b l l, f 19;
#X obj 156 271 list-lastx;
#X obj 10 399 list store;
#X obj 77 375 list-map;
#X obj 144 375 +;
#X obj 77 341 t l b;
#X obj 89 29 list-map;
#X obj 278 52 div 12;
#X obj 278 76 - 1;
#X obj 155 29 t f f f, f 18;
#X obj 192 52 wrap;
#X obj 155 52 % 12;
#X obj 278 122 list-extend;
#X obj 186 149 list store;
#X obj 186 124 t b b;
#X obj 125 101 list store;
#X obj 125 76 t b b;
#X obj 192 75 list-extend;
#X obj 278 99 * 12;
#X obj 156 295 list-map2;
#X obj 156 321 list-map2;
#X obj 226 321 +;
#X obj 226 295 +;
#X obj 10 423 pick-random;
#X obj 10 448 outlet pitch;
#X obj 162 350 expr random(-12 \, 12);
#X connect 0 0 9 0;
#X connect 1 0 13 0;
#X connect 2 1 8 0;
#X connect 3 0 4 0;
#X connect 4 0 2 0;
#X connect 5 0 6 0;
#X connect 6 0 8 1;
#X connect 7 0 3 0;
#X connect 7 1 2 1;
#X connect 7 2 5 0;
#X connect 8 0 26 0;
#X connect 9 0 30 0;
#X connect 10 0 9 1;
#X connect 10 1 11 0;
#X connect 11 0 10 1;
#X connect 12 0 10 0;
#X connect 12 1 32 0;
#X connect 13 0 21 0;
#X connect 13 0 23 0;
#X connect 13 0 7 0;
#X connect 13 1 16 0;
#X connect 14 0 15 0;
#X connect 15 0 25 0;
#X connect 16 0 18 0;
#X connect 16 1 17 0;
#X connect 16 2 14 0;
#X connect 17 0 24 0;
#X connect 18 0 13 1;
#X connect 19 0 20 1;
#X connect 20 0 26 1;
#X connect 21 0 20 0;
#X connect 21 1 19 1;
#X connect 22 0 27 1;
#X connect 23 0 22 0;
#X connect 23 1 24 1;
#X connect 24 0 22 1;
#X connect 25 0 19 0;
#X connect 26 0 27 0;
#X connect 26 1 29 0;
#X connect 27 0 12 0;
#X connect 27 1 28 0;
#X connect 28 0 27 2;
#X connect 29 0 26 2;
#X connect 30 0 31 0;
#X connect 32 0 11 1;
#X restore 456 164 pd ctra;
#N canvas 962 54 956 1000 cmul 0;
#X obj 22 18 inlet bang;
#X obj 101 18 inlet list;
#X obj 101 257 list-sieve;
#X msg 101 209 0 1 2 3 4 5 6 7 8 9 10 11;
#X obj 101 233 list-drip;
#X obj 235 234 list length;
#X obj 235 258 expr abs(($f1 - 12));
#X obj 101 183 t b l l, f 19;
#X obj 168 283 list-lastx;
#X obj 22 427 list store;
#X obj 174 308 random 12;
#X obj 89 333 list-map;
#X obj 89 299 t l b;
#X obj 156 333 *;
#X obj 101 42 list-map;
#X obj 290 65 div 12;
#X obj 290 89 - 1;
#X obj 167 42 t f f f, f 18;
#X obj 204 65 wrap;
#X obj 167 65 % 12;
#X obj 290 135 list-extend;
#X obj 198 162 list store;
#X obj 198 137 t b b;
#X obj 137 114 list store;
#X obj 137 89 t b b;
#X obj 204 88 list-extend;
#X obj 290 112 * 12;
#X obj 22 451 pick-random;
#X obj 22 476 outlet pitch;
#X obj 241 183 list-unique;
#X obj 89 377 list-map2;
#X obj 89 400 list-map2;
#X obj 159 400 +;
#X obj 159 377 +;
#X obj 156 355 % 12;
#X connect 0 0 9 0;
#X connect 1 0 14 0;
#X connect 2 1 8 0;
#X connect 3 0 4 0;
#X connect 4 0 2 0;
#X connect 5 0 6 0;
#X connect 6 0 8 1;
#X connect 7 0 3 0;
#X connect 7 1 2 1;
#X connect 7 2 29 0;
#X connect 8 0 12 0;
#X connect 9 0 27 0;
#X connect 10 0 13 1;
#X connect 11 0 30 0;
#X connect 11 1 13 0;
#X connect 12 0 11 0;
#X connect 12 1 10 0;
#X connect 13 0 34 0;
#X connect 14 0 22 0;
#X connect 14 0 24 0;
#X connect 14 0 7 0;
#X connect 14 1 17 0;
#X connect 15 0 16 0;
#X connect 16 0 26 0;
#X connect 17 0 19 0;
#X connect 17 1 18 0;
#X connect 17 2 15 0;
#X connect 18 0 25 0;
#X connect 19 0 14 1;
#X connect 20 0 21 1;
#X connect 21 0 30 1;
#X connect 22 0 21 0;
#X connect 22 1 20 1;
#X connect 23 0 31 1;
#X connect 24 0 23 0;
#X connect 24 1 25 1;
#X connect 25 0 23 1;
#X connect 26 0 20 0;
#X connect 27 0 28 0;
#X connect 29 0 5 0;
#X connect 30 0 31 0;
#X connect 30 1 33 0;
#X connect 31 0 9 1;
#X connect 31 1 32 0;
#X connect 32 0 31 2;
#X connect 33 0 30 2;
#X connect 34 0 11 1;
#X restore 513 164 pd cmul;
#X obj 126 8 inlet pitch_phrase;
#N canvas 962 54 956 1000 rand 0;
#X obj 10 15 inlet bang;
#X obj 89 15 inlet list;
#X obj 10 43 list store;
#X obj 10 68 pick-random;
#X obj 10 93 outlet pitch;
#X connect 0 0 2 0;
#X connect 1 0 2 1;
#X connect 2 0 3 0;
#X connect 3 0 4 0;
#X restore 5 164 pd rand;
#X text 62 248 This subpatch defines which pitch will be played. The
last pitch class set played is transformed by one randomly chosen function.
;
#X obj 5 140 sel 0 1 2 3 4 5 6 7 8 9 10, f 89;
#N canvas 962 54 956 1000 markov 0;
#X obj 13 8 inlet bang;
#X obj 95 8 inlet list;
#X obj 13 153 outlet;
#X obj 13 129 f;
#X obj 13 103 markov 2, f 24;
#X msg 95 56 create;
#X obj 126 80 list-drip;
#X obj 95 31 t b l b;
#X msg 151 55 clear;
#X connect 0 0 4 0;
#X connect 1 0 7 0;
#X connect 3 0 2 0;
#X connect 4 0 3 0;
#X connect 5 0 4 0;
#X connect 6 0 4 1;
#X connect 7 0 5 0;
#X connect 7 1 6 0;
#X connect 7 2 8 0;
#X connect 8 0 4 0;
#X restore 571 164 pd markov;
#X obj 5 118 f;
#X obj 126 58 t b l;
#X obj 23 92 random 11;
#X obj 126 32 list-map;
#X obj 193 32 max 12;
#N canvas 2 54 1916 1000 mult 0;
#X obj 4 4 inlet bang;
#X obj 103 4 inlet list;
#X obj 4 285 list store;
#X obj 4 309 pick-random;
#X obj 103 28 list-map;
#X obj 425 51 div 12;
#X obj 425 75 - 1;
#X obj 169 28 t f f f, f 37;
#X obj 237 51 wrap;
#X obj 169 51 % 12;
#X obj 425 121 list-extend;
#X obj 358 146 list store;
#X obj 170 120 list store;
#X obj 237 74 list-extend;
#X obj 103 146 t l b, f 12;
#X obj 188 169 random 12;
#X obj 103 195 list-map;
#X obj 170 219 % 12;
#X obj 170 195 *;
#X obj 103 242 list-map2;
#X obj 103 265 list-map2;
#X obj 173 265 +;
#X obj 425 99 * 12;
#X obj 173 242 +;
#X obj 4 334 outlet pitch;
#X text 272 52 Microtonal deviation;
#X text 474 49 Octave;
#X obj 118 73 t b b b b;
#X connect 0 0 2 0;
#X connect 1 0 4 0;
#X connect 2 0 3 0;
#X connect 3 0 24 0;
#X connect 4 0 14 0;
#X connect 4 0 27 0;
#X connect 4 1 7 0;
#X connect 5 0 6 0;
#X connect 6 0 22 0;
#X connect 7 0 9 0;
#X connect 7 1 8 0;
#X connect 7 2 5 0;
#X connect 8 0 13 0;
#X connect 9 0 4 1;
#X connect 10 0 11 1;
#X connect 11 0 19 1;
#X connect 12 0 20 1;
#X connect 13 0 12 1;
#X connect 14 0 16 0;
#X connect 14 1 15 0;
#X connect 15 0 18 1;
#X connect 16 0 19 0;
#X connect 16 1 18 0;
#X connect 17 0 16 1;
#X connect 18 0 17 0;
#X connect 19 0 20 0;
#X connect 19 1 23 0;
#X connect 20 0 2 1;
#X connect 20 1 21 0;
#X connect 21 0 20 2;
#X connect 22 0 10 0;
#X connect 23 0 19 2;
#X connect 27 0 12 0;
#X connect 27 1 13 1;
#X connect 27 2 11 0;
#X connect 27 3 10 1;
#X restore 230 164 pd mult;
#X connect 0 0 15 0;
#X connect 2 0 1 0;
#X connect 3 0 1 0;
#X connect 4 0 1 0;
#X connect 5 0 1 0;
#X connect 6 0 1 0;
#X connect 7 0 1 0;
#X connect 8 0 1 0;
#X connect 9 0 1 0;
#X connect 10 0 18 0;
#X connect 11 0 1 0;
#X connect 13 0 11 0;
#X connect 13 1 2 0;
#X connect 13 2 3 0;
#X connect 13 3 4 0;
#X connect 13 4 20 0;
#X connect 13 5 5 0;
#X connect 13 6 6 0;
#X connect 13 7 7 0;
#X connect 13 8 8 0;
#X connect 13 9 9 0;
#X connect 13 10 14 0;
#X connect 14 0 1 0;
#X connect 15 0 13 0;
#X connect 16 0 17 0;
#X connect 16 1 11 1;
#X connect 16 1 14 1;
#X connect 16 1 9 1;
#X connect 16 1 8 1;
#X connect 16 1 7 1;
#X connect 16 1 6 1;
#X connect 16 1 5 1;
#X connect 16 1 4 1;
#X connect 16 1 3 1;
#X connect 16 1 2 1;
#X connect 16 1 20 1;
#X connect 17 0 15 1;
#X connect 18 0 16 0;
#X connect 18 1 19 0;
#X connect 19 0 18 1;
#X connect 20 0 1 0;
#X restore 149 239 pd pitch;
#X f 9;
#X obj 219 239 list-dripslow;
#X obj 18 412 outlet;
#X obj 18 367 spigot;
#N canvas 962 54 956 1000 timbre 0;
#X obj 6 7 inlet bang;
#X obj 6 32 f 0;
#X obj 6 57 + 1;
#X obj 6 82 %;
#X obj 6 107 sel 0;
#X obj 38 194 outlet;
#X obj 90 32 list-mean;
#X obj 72 81 f;
#X obj 6 132 t b b;
#X obj 90 7 inlet rhythm;
#X obj 90 55 expr if($f1 < 150 \, 200 \, rint(1000 / ($f1/20)));
#X obj 38 165 random 11;
#X connect 0 0 1 0;
#X connect 1 0 2 0;
#X connect 2 0 3 0;
#X connect 3 0 1 1;
#X connect 3 0 4 0;
#X connect 4 0 8 0;
#X connect 6 0 10 0;
#X connect 7 0 3 1;
#X connect 8 0 7 0;
#X connect 8 1 11 0;
#X connect 9 0 6 0;
#X connect 10 0 7 1;
#X connect 11 0 5 0;
#X restore 80 239 pd timbre;
#N canvas 1154 54 380 1000 rhythm 0;
#N canvas 962 54 476 1000 same 0;
#X obj 10 15 inlet bang;
#X obj 89 15 inlet list;
#X obj 10 49 list store;
#X obj 10 73 outlet list;
#X connect 0 0 2 0;
#X connect 1 0 2 1;
#X connect 2 0 3 0;
#X restore 8 129 pd same;
#X obj 8 36 t b l, f 55;
#N canvas 962 54 956 1000 shuf 0;
#X obj 10 15 inlet bang;
#X obj 158 15 inlet list;
#X obj 10 95 list store;
#X obj 10 119 outlet list;
#X obj 77 69 list-shuffle;
#X obj 10 39 t b b;
#X connect 0 0 5 0;
#X connect 1 0 4 1;
#X connect 2 0 3 0;
#X connect 4 0 2 1;
#X connect 5 0 2 0;
#X connect 5 1 4 0;
#X restore 179 129 pd shuf;
#N canvas 1282 54 636 1000 add 0;
#X obj 10 15 inlet bang;
#X obj 144 15 inlet list;
#X obj 10 199 list store;
#X obj 10 223 outlet list;
#X obj 77 173 list-insert;
#X obj 77 122 list-minmax;
#X obj 114 149 expr random(0 \, $f2);
#X obj 244 124 list length;
#X obj 77 98 t l b l l;
#X obj 10 40 t b b;
#X obj 77 74 list store;
#X connect 0 0 9 0;
#X connect 1 0 10 1;
#X connect 2 0 3 0;
#X connect 4 0 2 1;
#X connect 5 0 4 0;
#X connect 6 0 4 1;
#X connect 7 0 6 1;
#X connect 8 0 5 0;
#X connect 8 1 6 0;
#X connect 8 2 4 2;
#X connect 8 3 7 0;
#X connect 9 0 2 0;
#X connect 9 1 10 0;
#X connect 10 0 8 0;
#X restore 293 129 pd add;
#N canvas 962 54 956 1000 ost 0;
#X obj 10 15 inlet bang;
#X obj 174 15 inlet list;
#X obj 10 369 list store;
#X obj 10 393 outlet list;
#X obj 184 224 list-mean;
#X obj 21 185 list-minmax;
#X obj 107 254 f;
#X obj 137 254 f;
#X obj 166 254 f;
#X obj 107 161 random 3;
#X obj 107 185 sel 0 1 2;
#X obj 137 320 list-value;
#X obj 107 128 t b l l;
#X obj 204 157 list length;
#X obj 137 292 t b f;
#X obj 10 40 t b b;
#X obj 107 101 list store;
#X connect 0 0 15 0;
#X connect 1 0 16 1;
#X connect 2 0 3 0;
#X connect 4 0 8 1;
#X connect 5 0 6 1;
#X connect 5 1 7 1;
#X connect 6 0 14 0;
#X connect 7 0 14 0;
#X connect 8 0 14 0;
#X connect 9 0 10 0;
#X connect 10 0 6 0;
#X connect 10 1 7 0;
#X connect 10 2 8 0;
#X connect 11 0 2 1;
#X connect 12 0 9 0;
#X connect 12 1 4 0;
#X connect 12 1 5 0;
#X connect 12 2 13 0;
#X connect 13 0 11 2;
#X connect 14 0 11 0;
#X connect 14 1 11 1;
#X connect 15 0 2 0;
#X connect 15 1 16 0;
#X connect 16 0 12 0;
#X restore 350 129 pd ost;
#N canvas 962 54 956 1000 rand 0;
#X obj 10 15 inlet bang;
#X obj 144 15 inlet list;
#X obj 10 239 list store;
#X obj 10 263 outlet list;
#X obj 77 189 list-random;
#X obj 114 156 list-minmax;
#X obj 151 130 list length;
#X obj 77 215 list-map;
#X obj 77 100 t b l l, f 11;
#X obj 10 40 t b b;
#X obj 77 74 list store;
#X obj 148 215 expr if($f1 < $f2 \, $f1+$f2 \, $f1);
#X connect 0 0 9 0;
#X connect 1 0 10 1;
#X connect 2 0 3 0;
#X connect 4 0 7 0;
#X connect 5 0 11 1;
#X connect 5 1 4 1;
#X connect 6 0 4 2;
#X connect 7 0 2 1;
#X connect 7 1 11 0;
#X connect 8 0 4 0;
#X connect 8 1 5 0;
#X connect 8 2 6 0;
#X connect 9 0 2 0;
#X connect 9 1 10 0;
#X connect 10 0 8 0;
#X connect 11 0 7 1;
#X restore 521 129 pd rand;
#N canvas 962 54 956 1000 mult 0;
#X obj 10 15 inlet bang;
#X obj 144 15 inlet list;
#X obj 10 199 list store;
#X obj 10 223 outlet list;
#X obj 77 109 t l b;
#X obj 141 175 expr $f1*(pow(2 \, $f2 / 12));
#X obj 77 175 list-map;
#X obj 141 199 expr rint($f1);
#X obj 109 133 expr random(1 \, 25) - 12;
#X obj 10 40 t b b;
#X obj 77 76 list store;
#X connect 0 0 9 0;
#X connect 1 0 10 1;
#X connect 2 0 3 0;
#X connect 4 0 6 0;
#X connect 4 1 8 0;
#X connect 5 0 7 0;
#X connect 6 0 2 1;
#X connect 6 1 5 0;
#X connect 7 0 6 1;
#X connect 8 0 5 1;
#X connect 9 0 2 0;
#X connect 9 1 10 0;
#X connect 10 0 4 0;
#X restore 236 129 pd mult;
#N canvas 962 54 476 1000 rot 0;
#X obj 10 15 inlet bang;
#X obj 144 15 inlet list;
#X obj 10 229 list store;
#X obj 10 253 outlet list;
#X obj 77 204 list-rot;
#X obj 77 102 t l l, f 8;
#X obj 130 127 list length;
#X obj 10 40 t b b;
#X obj 77 74 list store;
#X obj 130 151 t b f;
#X obj 130 177 expr random(($f2*-1) \, ($f2-1));
#X connect 0 0 7 0;
#X connect 1 0 8 1;
#X connect 2 0 3 0;
#X connect 4 0 2 1;
#X connect 5 0 4 0;
#X connect 5 1 6 0;
#X connect 6 0 9 0;
#X connect 7 0 2 0;
#X connect 7 1 8 0;
#X connect 8 0 5 0;
#X connect 9 0 10 0;
#X connect 9 1 10 1;
#X connect 10 0 4 1;
#X restore 407 129 pd rot;
#X obj 8 81 random 10;
#N canvas 962 54 476 1000 rev 0;
#X obj 10 15 inlet bang;
#X obj 144 15 inlet list;
#X obj 10 126 list store;
#X obj 10 150 outlet list;
#X obj 77 101 list-rev;
#X obj 10 40 t b b;
#X obj 77 76 list store;
#X connect 0 0 5 0;
#X connect 1 0 6 1;
#X connect 2 0 3 0;
#X connect 4 0 2 1;
#X connect 5 0 2 0;
#X connect 5 1 6 0;
#X connect 6 0 4 0;
#X restore 464 129 pd rev;
#N canvas 962 54 956 1000 acc 0;
#X obj 10 15 inlet bang;
#X obj 89 15 inlet list;
#X obj 10 129 list store;
#X obj 10 153 outlet list;
#X obj 10 40 t b b;
#X obj 77 77 list store;
#X obj 77 104 list-sort desc;
#X connect 0 0 4 0;
#X connect 1 0 5 1;
#X connect 2 0 3 0;
#X connect 4 0 2 0;
#X connect 4 1 5 0;
#X connect 5 0 6 0;
#X connect 6 0 2 1;
#X restore 65 129 pd acc;
#N canvas 962 54 956 1000 rall 0;
#X obj 10 15 inlet bang;
#X obj 89 15 inlet list;
#X obj 10 129 list store;
#X obj 10 153 outlet list;
#X obj 10 40 t b b;
#X obj 77 76 list store;
#X obj 77 100 list-sort asc;
#X connect 0 0 4 0;
#X connect 1 0 5 1;
#X connect 2 0 3 0;
#X connect 4 0 2 0;
#X connect 4 1 5 0;
#X connect 5 0 6 0;
#X connect 6 0 2 1;
#X restore 122 129 pd rall;
#X obj 169 301 list store;
#X obj 169 277 metro;
#X msg 169 254 1;
#X obj 169 231 loadbang;
#X obj 236 193 list;
#X obj 169 349 outlet list;
#X obj 169 325 t l l;
#X obj 201 254 list-accum;
#X obj 17 60 bng 15 250 50 0 empty empty empty 17 7 0 10 -262144 -1
-1;
#X msg 137 254 0;
#X obj 96 215 sel 0 1;
#X obj 8 11 inlet rhythm;
#N canvas 1282 54 636 1000 markov 0;
#X obj 13 8 inlet bang;
#X obj 95 8 inlet list;
#X obj 13 153 outlet;
#X obj 13 103 markov 2, f 24;
#X msg 95 56 create;
#X obj 126 80 list-drip;
#X obj 13 128 list-lastx 12;
#X obj 128 128 list length;
#X obj 95 31 t b l b;
#X msg 151 55 clear;
#X connect 0 0 3 0;
#X connect 1 0 8 0;
#X connect 3 0 6 0;
#X connect 4 0 3 0;
#X connect 5 0 3 1;
#X connect 6 0 2 0;
#X connect 7 0 6 1;
#X connect 8 0 4 0;
#X connect 8 1 5 0;
#X connect 8 1 7 0;
#X connect 8 2 9 0;
#X connect 9 0 3 0;
#X restore 578 129 pd markov;
#X obj 8 105 sel 0 1 2 3 4 5 6 7 8 9 10, f 90;
#X obj 252 349 outlet dur;
#X obj 96 190 r \$0-counter_status;
#X obj 169 11 r \$0-onoff_counter;
#X obj 236 217 list-map;
#X obj 299 217 max 100;
#X connect 0 0 16 0;
#X connect 1 0 8 0;
#X connect 1 1 0 1;
#X connect 1 1 10 1;
#X connect 1 1 11 1;
#X connect 1 1 6 1;
#X connect 1 1 3 1;
#X connect 1 1 2 1;
#X connect 1 1 4 1;
#X connect 1 1 5 1;
#X connect 1 1 7 1;
#X connect 1 1 9 1;
#X connect 1 1 24 1;
#X connect 2 0 16 0;
#X connect 3 0 16 0;
#X connect 4 0 16 0;
#X connect 5 0 16 0;
#X connect 6 0 16 0;
#X connect 7 0 16 0;
#X connect 8 0 25 0;
#X connect 9 0 16 0;
#X connect 10 0 16 0;
#X connect 11 0 16 0;
#X connect 12 0 18 0;
#X connect 13 0 12 0;
#X connect 13 0 20 0;
#X connect 14 0 13 0;
#X connect 15 0 14 0;
#X connect 16 0 29 0;
#X connect 18 0 17 0;
#X connect 18 1 19 0;
#X connect 19 0 13 1;
#X connect 19 0 26 0;
#X connect 20 0 8 0;
#X connect 21 0 13 0;
#X connect 22 0 21 0;
#X connect 22 1 14 0;
#X connect 23 0 1 0;
#X connect 24 0 16 0;
#X connect 25 0 0 0;
#X connect 25 1 10 0;
#X connect 25 2 11 0;
#X connect 25 3 2 0;
#X connect 25 4 6 0;
#X connect 25 5 3 0;
#X connect 25 6 4 0;
#X connect 25 7 7 0;
#X connect 25 8 9 0;
#X connect 25 9 5 0;
#X connect 25 10 24 0;
#X connect 27 0 22 0;
#X connect 28 0 13 0;
#X connect 29 0 12 1;
#X connect 29 1 30 0;
#X connect 30 0 29 1;
#X restore 152 119 pd rhythm;
#X f 13;
#N canvas 962 54 956 1000 make 0;
#X obj 176 107 list append;
#X obj 176 82 list append;
#X obj 259 3 inlet duration;
#X obj 8 3 inlet bang;
#X obj 86 3 inlet timbre;
#X obj 176 3 inlet pitch;
#X obj 8 155 list append;
#X obj 8 80 list store;
#X obj 8 178 outlet list;
#X obj 363 3 inlet legato;
#X obj 363 78 list append;
#X obj 453 3 inlet amp+flat;
#X obj 8 28 t b b;
#X obj 362 53 f;
#X connect 0 0 6 1;
#X connect 1 0 0 0;
#X connect 2 0 1 1;
#X connect 3 0 12 0;
#X connect 4 0 7 1;
#X connect 5 0 1 0;
#X connect 6 0 8 0;
#X connect 7 0 6 0;
#X connect 9 0 13 1;
#X connect 10 0 0 1;
#X connect 11 0 10 1;
#X connect 12 0 7 0;
#X connect 12 1 13 0;
#X connect 13 0 10 0;
#X restore 18 301 pd make list;
#X f 46;
#X obj 327 5 inlet legato;
#X obj 418 5 inlet flat_curve;
#X obj 18 204 t b b b b b b, f 45;
#X obj 242 5 inlet pitch;
#X obj 605 5 inlet on/off;
#X obj 152 5 inlet rhythm;
#N canvas 962 54 956 1000 amp+flat 0;
#X obj 160 17 inlet flat;
#N canvas 1282 54 636 1000 make_list 0;
#X obj 14 11 inlet list;
#X obj 14 60 outlet;
#X text 160 26 This subpatch adds the word "flat" before the list of
values.;
#X obj 14 36 list prepend flat;
#X connect 0 0 3 0;
#X connect 3 0 1 0;
#X restore 160 40 pd make_list;
#X obj 15 122 outlet;
#X obj 15 17 inlet bang;
#X obj 15 94 list store;
#X obj 91 67 list;
#X obj 91 17 inlet amp;
#X text 18 151 This subpatch concatenates the spectral flatness curve
with a amplitude value.;
#X connect 0 0 1 0;
#X connect 1 0 5 1;
#X connect 3 0 4 0;
#X connect 4 0 2 0;
#X connect 5 0 4 1;
#X connect 6 0 5 0;
#X restore 337 269 pd amp+flat;
#X f 12;
#X text 67 365 This abstraction concatenates values for timbre \, pitch
\, duration \, legato \, amplitude and flatness curve into a single
list.;
#X obj 536 5 inlet amp;
#X obj 605 27 s \$0-onoff_counter;
#X obj 5 32 == 0;
#X obj 152 143 t l l;
#X obj 240 406 outlet phrase_dur;
#X obj 152 49 spigot;
#X obj 5 56 s \$0-counter_status;
#X obj 191 26 r \$0-counter_status;
#X obj 57 340 r \$0-counter_status;
#X obj 242 70 spigot;
#X obj 281 47 r \$0-counter_status;
#X obj 327 91 spigot;
#X obj 366 68 r \$0-counter_status;
#X obj 418 113 spigot;
#X obj 457 90 r \$0-counter_status;
#X obj 536 134 spigot;
#X obj 575 111 r \$0-counter_status;
#X obj 746 5 inlet offset;
#N canvas 2 54 1916 1000 amp 0;
#X obj 11 13 inlet bang;
#N canvas 962 54 956 1000 same 0;
#X obj 10 15 inlet bang;
#X obj 89 15 inlet list;
#X obj 10 49 list store;
#X obj 10 73 outlet list;
#X connect 0 0 2 0;
#X connect 1 0 2 1;
#X connect 2 0 3 0;
#X restore 78 281 pd same;
#N canvas 1442 54 476 1000 ost 0;
#X obj 10 15 inlet bang;
#X obj 174 15 inlet list;
#X obj 10 369 list store;
#X obj 10 393 outlet list;
#X obj 184 224 list-mean;
#X obj 125 157 list-minmax;
#X obj 107 254 f;
#X obj 137 254 f;
#X obj 166 254 f;
#X obj 107 121 random 3;
#X obj 107 185 sel 0 1 2;
#X obj 107 320 list-value;
#X obj 107 98 t b l l;
#X obj 174 293 list length;
#X obj 107 292 t b f;
#X obj 10 40 t b b;
#X obj 107 71 list store;
#X connect 0 0 15 0;
#X connect 1 0 16 1;
#X connect 2 0 3 0;
#X connect 4 0 8 1;
#X connect 5 0 6 1;
#X connect 5 1 7 1;
#X connect 6 0 14 0;
#X connect 7 0 14 0;
#X connect 8 0 14 0;
#X connect 9 0 10 0;
#X connect 10 0 6 0;
#X connect 10 1 7 0;
#X connect 10 2 8 0;
#X connect 11 0 2 1;
#X connect 12 0 9 0;
#X connect 12 1 4 0;
#X connect 12 1 5 0;
#X connect 12 2 13 0;
#X connect 13 0 11 2;
#X connect 14 0 11 0;
#X connect 14 1 11 1;
#X connect 15 0 2 0;
#X connect 15 1 16 0;
#X connect 16 0 12 0;
#X restore 249 281 pd ost;
#N canvas 962 54 956 1000 cres 0;
#X obj 10 15 inlet bang;
#X obj 144 15 inlet list;
#X obj 10 129 list store;
#X obj 10 153 outlet list;
#X obj 10 40 t b b;
#X obj 77 77 list store;
#X obj 77 104 list-sort asc;
#X connect 0 0 4 0;
#X connect 1 0 5 1;
#X connect 2 0 3 0;
#X connect 4 0 2 0;
#X connect 4 1 5 0;
#X connect 5 0 6 0;
#X connect 6 0 2 1;
#X restore 135 281 pd cres;
#N canvas 962 54 956 1000 dim 0;
#X obj 10 15 inlet bang;
#X obj 144 15 inlet list;
#X obj 10 129 list store;
#X obj 10 153 outlet list;
#X obj 10 40 t b b;
#X obj 77 76 list store;
#X obj 77 100 list-sort desc;
#X connect 0 0 4 0;
#X connect 1 0 5 1;
#X connect 2 0 3 0;
#X connect 4 0 2 0;
#X connect 4 1 5 0;
#X connect 5 0 6 0;
#X connect 6 0 2 1;
#X restore 192 281 pd dim;
#X obj 185 115 list length;
#X obj 43 87 f 0;
#X obj 43 111 + 1;
#X obj 43 135 %;
#X obj 43 161 sel 0;
#X obj 11 334 list-idx;
#X obj 11 308 list store;
#X obj 185 90 t l b l;
#X obj 185 13 inlet amp list;
#X obj 11 412 outlet amp;
#X obj 78 257 sel 0 1 2 3, f 41;
#X obj 43 187 random 4;
#X obj 381 13 inlet offset;
#X obj 11 358 min 99;
#X obj 185 39 list-drip;
#X obj 185 64 list-lastx 10;
#X obj 11 383 max;
#X obj 11 37 t b b;
#X obj 11 213 f;
#X obj 11 237 t b f;
#X connect 0 0 22 0;
#X connect 1 0 11 1;
#X connect 2 0 11 1;
#X connect 3 0 11 1;
#X connect 4 0 11 1;
#X connect 5 0 8 1;
#X connect 6 0 7 0;
#X connect 7 0 8 0;
#X connect 7 0 10 1;
#X connect 8 0 6 1;
#X connect 8 0 9 0;
#X connect 9 0 16 0;
#X connect 10 0 18 0;
#X connect 11 0 10 0;
#X connect 12 0 5 0;
#X connect 12 1 16 0;
#X connect 12 2 2 1;
#X connect 12 2 4 1;
#X connect 12 2 3 1;
#X connect 12 2 1 1;
#X connect 13 0 19 0;
#X connect 15 0 1 0;
#X connect 15 1 3 0;
#X connect 15 2 4 0;
#X connect 15 3 2 0;
#X connect 16 0 23 1;
#X connect 17 0 21 1;
#X connect 18 0 21 0;
#X connect 19 0 20 0;
#X connect 20 0 12 0;
#X connect 21 0 14 0;
#X connect 22 0 23 0;
#X connect 22 1 6 0;
#X connect 23 0 24 0;
#X connect 24 0 11 0;
#X connect 24 1 15 0;
#X restore 377 238 pd amp;
#X f 12;
#N canvas 1442 54 476 1000 metro_plus 1;
#X obj 148 64 outlet;
#X obj 287 6 inlet list;
#X obj 4 6 r \$0-counter_status;
#X obj 148 5 r \$0-onoff_counter;
#X obj 148 40 metro_plus;
#X obj 287 31 list-show;
#X msg 287 56;
#X connect 1 0 4 1;
#X connect 1 0 5 0;
#X connect 2 0 4 0;
#X connect 3 0 4 0;
#X connect 4 0 0 0;
#X connect 5 0 6 0;
#X restore 18 180 pd metro_plus;
#X connect 0 0 18 0;
#X connect 1 0 7 2;
#X connect 2 0 7 3;
#X connect 4 0 3 0;
#X connect 5 0 7 1;
#X connect 6 0 19 0;
#X connect 6 1 20 0;
#X connect 7 0 4 0;
#X connect 8 0 27 0;
#X connect 9 0 29 0;
#X connect 10 0 7 0;
#X connect 10 1 5 0;
#X connect 10 2 1 0;
#X connect 10 3 2 0;
#X connect 10 4 14 0;
#X connect 10 5 34 0;
#X connect 11 0 25 0;
#X connect 12 0 17 0;
#X connect 13 0 21 0;
#X connect 14 0 7 5;
#X connect 16 0 31 0;
#X connect 18 0 22 0;
#X connect 19 0 35 0;
#X connect 19 1 5 1;
#X connect 19 1 2 1;
#X connect 21 0 6 0;
#X connect 23 0 21 1;
#X connect 24 0 4 1;
#X connect 25 0 1 1;
#X connect 26 0 25 1;
#X connect 27 0 7 4;
#X connect 28 0 27 1;
#X connect 29 0 14 2;
#X connect 30 0 29 1;
#X connect 31 0 34 1;
#X connect 32 0 31 1;
#X connect 33 0 34 2;
#X connect 34 0 14 1;
#X connect 35 0 10 0;
