#N canvas 2 54 956 1000 12;
#X obj 16 9 inlet list;
#X obj 181 182 expr $f1 * $f2;
#X obj 336 9 inlet set_offset;
#X obj 336 106 dbtorms;
#X obj 16 439 outlet~;
#N canvas 962 54 956 1000 flat_env 0;
#X obj 11 13 inlet flatness_curve;
#X obj 101 128 t l l, f 16;
#N canvas 1282 54 636 1000 resize_interp 0;
#X obj 89 243 f;
#X obj 89 215 until;
#X obj 89 167 t b b;
#X obj 129 243 - 1;
#X obj 89 268 t f f;
#X msg 135 64 resize \$1;
#X obj 135 89 array define \$0-flat_env_in;
#X obj 8 10 inlet;
#X obj 89 12 inlet size;
#X obj 11 94 list store;
#X msg 89 191 99;
#X msg 134 215 98;
#X obj 201 170 loadbang;
#X msg 201 194 const 0;
#X obj 89 319 tabread4 \$0-flat_env_in;
#X obj 89 345 tabwrite \$0-flat_env_out;
#X obj 89 294 *;
#X obj 149 294 / 99;
#X obj 89 37 t b b f f;
#X obj 11 126 array set \$0-flat_env_in;
#X obj 201 219 array define \$0-flat_env_out 99;
#X text 201 126 Resizes an array containing the flatness curve to match
99 values and interpolate them with tabread4.;
#X connect 0 0 3 0;
#X connect 0 0 4 0;
#X connect 1 0 0 0;
#X connect 2 0 10 0;
#X connect 2 1 11 0;
#X connect 3 0 0 1;
#X connect 4 0 16 0;
#X connect 4 1 15 1;
#X connect 5 0 6 0;
#X connect 7 0 9 1;
#X connect 8 0 18 0;
#X connect 9 0 19 0;
#X connect 10 0 1 0;
#X connect 11 0 0 1;
#X connect 12 0 13 0;
#X connect 13 0 20 0;
#X connect 14 0 15 0;
#X connect 16 0 14 0;
#X connect 17 0 16 1;
#X connect 18 0 2 0;
#X connect 18 1 9 0;
#X connect 18 2 5 0;
#X connect 18 3 17 0;
#X restore 101 178 pd resize_interp;
#X obj 210 152 list length;
#X obj 11 38 list trim;
#X obj 11 63 route flat;
#X obj 11 88 s \$0-flat_fm;
#X connect 0 0 4 0;
#X connect 1 0 2 0;
#X connect 1 1 3 0;
#X connect 3 0 2 1;
#X connect 4 0 5 0;
#X connect 5 0 6 0;
#X restore 56 58 pd flat_env;
#N canvas 1282 54 636 1000 envelope 0;
#X obj 11 11 inlet bang;
#X obj 11 83 vline~;
#X obj 11 153 snapshot~;
#X msg 11 59 0 0 \, 99 \$1;
#X obj 21 130 bang~;
#X obj 11 107 tabread4~ \$0-envelope;
#X obj 11 35 f;
#X obj 87 11 inlet dur;
#X obj 156 11 inlet legato;
#X obj 87 36 *;
#X obj 11 177 outlet amp;
#X connect 0 0 6 0;
#X connect 1 0 5 0;
#X connect 2 0 10 0;
#X connect 3 0 1 0;
#X connect 4 0 2 0;
#X connect 5 0 2 0;
#X connect 6 0 3 0;
#X connect 7 0 9 0;
#X connect 8 0 9 1;
#X connect 9 0 6 1;
#X restore 181 157 pd envelope;
#N canvas 1282 54 636 1000 modulator 0;
#X obj 88 155 osc~;
#X obj 88 188 *~;
#X obj 106 29 mtof;
#X obj 214 168 *;
#X obj 151 29 r \$0-modulating;
#X obj 232 144 *;
#X obj 88 124 expr $f1 * $f2;
#X obj 88 72 f;
#X obj 151 53 t b l;
#X obj 183 79 unpack f f;
#X obj 106 5 inlet midi;
#X obj 88 213 outlet~;
#X obj 4 213 outlet freq;
#X text 260 80 Ratio \, modulation index.;
#X obj 88 97 t f f;
#X obj 214 5 inlet env;
#X connect 0 0 1 0;
#X connect 1 0 11 0;
#X connect 2 0 7 1;
#X connect 3 0 1 1;
#X connect 4 0 8 0;
#X connect 5 0 3 1;
#X connect 6 0 0 0;
#X connect 6 0 5 0;
#X connect 7 0 14 0;
#X connect 8 0 7 0;
#X connect 8 1 9 0;
#X connect 9 0 6 1;
#X connect 9 1 5 1;
#X connect 10 0 2 0;
#X connect 14 0 6 0;
#X connect 14 1 12 0;
#X connect 15 0 3 0;
#X restore 81 157 pd modulator;
#N canvas 962 54 956 1000 timbre 0;
#X obj 320 315 array set \$0-envelope;
#N canvas 1154 54 380 1000 clarinet 0;
#X obj 11 214 outlet;
#X obj 11 6 inlet;
#X obj 74 214 s \$0-modulating;
#X msg 11 31 0 0.01 0.025 0.05 0.075 0.1 0.125 0.15 0.175 0.2 0.25
0.3 0.34 0.4 0.46 0.53 0.62 0.72 0.84 0.9 0.95 0.99 1 1 1 1 1 1 1 1
1 1 1 1 1 1 1 1 1 1 1 1 1 1 1 1 1 1 1 1 1 1 1 1 1 1 1 1 1 1 1 1 1 1
1 1 1 1 1 1 1 1 1 1 1 1 1 0.99 0.95 0.9 0.84 0.72 0.62 0.53 0.46 0.4
0.34 0.3 0.25 0.2 0.175 0.15 0.125 0.1 0.075 0.05 0.025 0.01 0 0,
f 134;
#X obj 74 187 pack f f, f 11;
#X obj 74 137 sel 0 1;
#X obj 74 89 t b b;
#X msg 74 162 0.333;
#X msg 119 162 0.2;
#X obj 148 136 expr random (150 \, 300)*0.01;
#X obj 74 113 random 2;
#X connect 1 0 3 0;
#X connect 1 0 6 0;
#X connect 3 0 0 0;
#X connect 4 0 2 0;
#X connect 5 0 7 0;
#X connect 5 1 8 0;
#X connect 6 0 10 0;
#X connect 6 1 9 0;
#X connect 7 0 4 0;
#X connect 8 0 4 0;
#X connect 9 0 4 1;
#X connect 10 0 5 0;
#X restore 320 245 pd clarinet;
#X obj 320 227 bng 15 250 50 0 empty empty empty 17 7 0 10 -262144
-1 -1;
#X obj 403 227 bng 15 250 50 0 empty empty empty 17 7 0 10 -262144
-1 -1;
#X obj 36 227 bng 15 250 50 0 empty empty empty 17 7 0 10 -262144 -1
-1;
#X obj 91 227 bng 15 250 50 0 empty empty empty 17 7 0 10 -262144 -1
-1;
#X obj 146 227 bng 15 250 50 0 empty empty empty 17 7 0 10 -262144
-1 -1;
#X obj 265 227 bng 15 250 50 0 empty empty empty 17 7 0 10 -262144
-1 -1;
#N canvas 962 54 956 1000 trumpet 0;
#X obj 1 201 outlet;
#X obj 1 3 inlet;
#X obj 58 201 s \$0-modulating;
#X msg 1 26 0 0.01 0.02 0.03 0.0625 0.125 0.1875 0.25 0.3125 0.375
0.4375 0.5 0.5625 0.625 0.6875 0.75 0.8125 0.875 0.9375 1 0.954 0.931
0.908 0.885 0.862 0.839 0.816 0.793 0.77 0.747 0.724 0.7 0.678 0.655
0.632 0.609 0.6 0.598 0.596 0.594 0.592 0.59 0.588 0.586 0.584 0.582
0.58 0.578 0.576 0.574 0.572 0.57 0.568 0.566 0.564 0.562 0.56 0.558
0.556 0.554 0.552 0.55 0.548 0.546 0.544 0.542 0.54 0.538 0.536 0.534
0.532 0.53 0.528 0.526 0.524 0.522 0.52 0.518 0.516 0.514 0.512 0.51
0.508 0.506 0.504 0.502 0.5 0.5 0.5 0.45 0.4 0.35 0.3 0.25 0.2 0.15
0.12 0.09 0.04 0 0, f 134;
#X obj 58 177 pack f f, f 11;
#X obj 58 107 t b b;
#X obj 58 130 expr random(100 \, 200)*0.01;
#X obj 132 154 expr random(50 \, 70)*0.01;
#X connect 1 0 3 0;
#X connect 1 0 5 0;
#X connect 3 0 0 0;
#X connect 4 0 2 0;
#X connect 5 0 6 0;
#X connect 5 1 7 0;
#X connect 6 0 4 0;
#X connect 7 0 4 1;
#X restore 403 245 pd trumpet;
#N canvas 1282 54 636 1000 bell 0;
#X obj 3 144 outlet;
#X obj 3 3 inlet;
#X obj 60 144 s \$0-modulating;
#X msg 3 32 1 0.911 0.83 0.756 0.689 0.628 0.572 0.521 0.475 0.433
0.394 0.359 0.327 0.298 0.272 0.248 0.226 0.206 0.187 0.171 0.156 0.142
0.129 0.118 0.107 0.098 0.089 0.081 0.074 0.067 0.061 0.056 0.051 0.046
0.042 0.039 0.035 0.032 0.029 0.027 0.024 0.022 0.02 0.018 0.017 0.015
0.014 0.013 0.011 0.01 0.01 0.009 0.008 0.007 0.007 0.006 0.005 0.005
0.005 0.004 0.004 0.003 0.003 0.003 0.003 0.002 0.002 0.002 0.002 0.002
0.001 0.001 0.001 0.001 0.001 0.001 0.001 0.001 0.001 0.001 0.001 0.001
0 0 0 0 0 0 0 0 0 0 0 0 0 0 0 0 0, f 134;
#X msg 60 111 0.714 10;
#X connect 1 0 3 0;
#X connect 1 0 4 0;
#X connect 3 0 0 0;
#X connect 4 0 2 0;
#X restore 36 245 pd bell;
#N canvas 1282 54 636 1000 drum 0;
#X obj 1 147 outlet;
#X obj 1 3 inlet;
#X obj 76 147 s \$0-modulating;
#X msg 1 28 0.75 0.756 0.761 0.767 0.772 0.778 0.783 0.789 0.794 0.8
0.81 0.827 0.847 0.865 0.882 0.899 0.914 0.929 0.944 0.95 0.955 0.96
0.965 0.97 0.975 0.98 0.985 0.99 0.995 1 1 0.935 0.875 0.819 0.766
0.716 0.67 0.627 0.586 0.548 0.513 0.48 0.449 0.42 0.393 0.367 0.344
0.322 0.301 0.281 0.263 0.246 0.23 0.215 0.202 0.189 0.176 0.165 0.154
0.144 0.135 0.126 0.118 0.111 0.103 0.097 0.09 0.085 0.079 0.074 0.069
0.065 0.061 0.057 0.053 0.05 0.046 0.043 0.041 0.038 0.036 0.033 0.031
0.029 0.027 0.025 0.024 0.022 0.021 0.019 0.018 0.017 0.016 0.015 0.014
0.013 0.012 0.01 0.001 0, f 134;
#X msg 76 118 1 1;
#X connect 1 0 3 0;
#X connect 1 0 4 0;
#X connect 3 0 0 0;
#X connect 4 0 2 0;
#X restore 91 245 pd drum;
#N canvas 1282 54 636 1000 wood 0;
#X obj 1 181 outlet;
#X obj 1 3 inlet;
#X obj 58 180 s \$0-modulating;
#X obj 58 91 t b b;
#X obj 58 151 pack f f;
#X msg 58 117 1.4545;
#X obj 111 116 expr random(200 \, 300)* 0.01;
#X msg 1 27 1 0.911 0.83 0.756 0.689 0.628 0.572 0.521 0.475 0.433
0.394 0.359 0.327 0.298 0.272 0.248 0.226 0.206 0.187 0.171 0.156 0.142
0.129 0.118 0.107 0.098 0.089 0.081 0.074 0.067 0.061 0.056 0.051 0.046
0.042 0.039 0.035 0.032 0.029 0.027 0.024 0.022 0.02 0.018 0.017 0.015
0.014 0.013 0.011 0.01 0.01 0.009 0.008 0.007 0.007 0.006 0.005 0.005
0.005 0.004 0.004 0.003 0.003 0.003 0.003 0.002 0.002 0.002 0.002 0.002
0.001 0.001 0.001 0.001 0.001 0.001 0.001 0.001 0.001 0.001 0.001 0.001
0 0 0 0 0 0 0 0 0 0 0 0 0 0 0 0 0, f 135;
#X connect 1 0 7 0;
#X connect 1 0 3 0;
#X connect 3 0 5 0;
#X connect 3 1 6 0;
#X connect 4 0 2 0;
#X connect 5 0 4 0;
#X connect 6 0 4 1;
#X connect 7 0 0 0;
#X restore 146 245 pd wood;
#N canvas 1282 54 636 1000 bird 0;
#X obj 9 199 outlet;
#X obj 9 6 inlet;
#X obj 67 199 s \$0-modulating;
#X msg 9 30 0 0 0 0 0 0 0 0 0 0 0 0 0 0 0 0 0 0.001 0.001 0.001 0.001
0.001 0.001 0.001 0.001 0.001 0.001 0.001 0.001 0.002 0.002 0.002 0.002
0.002 0.003 0.003 0.003 0.003 0.004 0.004 0.005 0.005 0.005 0.006 0.007
0.007 0.008 0.009 0.01 0.01 0.011 0.013 0.014 0.015 0.017 0.018 0.02
0.022 0.024 0.027 0.029 0.032 0.035 0.039 0.042 0.046 0.051 0.056 0.061
0.067 0.074 0.081 0.089 0.098 0.107 0.118 0.129 0.142 0.156 0.171 0.187
0.206 0.226 0.248 0.272 0.298 0.327 0.359 0.394 0.433 0.475 0.521 0.572
0.628 0.689 0.756 0.83 0.911 1, f 134;
#X obj 67 175 pack f f;
#X obj 67 103 expr random(60 \, 100);
#X obj 67 151 * 0.0001;
#X obj 67 127 t f b;
#X obj 129 151 expr random(5 \, 100);
#X connect 1 0 3 0;
#X connect 1 0 5 0;
#X connect 3 0 0 0;
#X connect 4 0 2 0;
#X connect 5 0 7 0;
#X connect 6 0 4 0;
#X connect 7 0 6 0;
#X connect 7 1 8 0;
#X connect 8 0 4 1;
#X restore 265 245 pd bird;
#X obj 479 227 bng 15 250 50 0 empty empty empty 17 7 0 10 -262144
-1 -1;
#X obj 26 21 inlet timbre;
#N canvas 962 54 956 1000 expo 0;
#X obj 9 232 outlet;
#X obj 8 16 inlet;
#X obj 67 233 s \$0-modulating;
#X obj 67 208 pack f f;
#X obj 67 117 t b b;
#X obj 120 117 expr random(10 \, 100);
#X obj 67 184 expr random(5 \, 100);
#X msg 9 44 0 0 0 0 0 0 0 0 0 0 0 0 0 0 0 0 0 0.001 0.001 0.001 0.001
0.001 0.001 0.001 0.001 0.001 0.001 0.001 0.001 0.002 0.002 0.002 0.002
0.002 0.003 0.003 0.003 0.003 0.004 0.004 0.005 0.005 0.005 0.006 0.007
0.007 0.008 0.009 0.01 0.01 0.011 0.013 0.014 0.015 0.017 0.018 0.02
0.022 0.024 0.027 0.029 0.032 0.035 0.039 0.042 0.046 0.051 0.056 0.061
0.067 0.074 0.081 0.089 0.098 0.107 0.118 0.129 0.142 0.156 0.171 0.187
0.206 0.226 0.248 0.272 0.298 0.327 0.359 0.394 0.433 0.475 0.521 0.572
0.628 0.689 0.756 0.83 0.911 1, f 134;
#X obj 120 142 / 100;
#X connect 1 0 4 0;
#X connect 1 0 7 0;
#X connect 3 0 2 0;
#X connect 4 0 6 0;
#X connect 4 1 5 0;
#X connect 5 0 8 0;
#X connect 6 0 3 0;
#X connect 7 0 0 0;
#X connect 8 0 3 1;
#X restore 479 245 pd expo;
#X obj 201 227 bng 15 250 50 0 empty empty empty 17 7 0 10 -262144
-1 -1;
#X obj 534 227 bng 15 250 50 0 empty empty empty 17 7 0 10 -262144
-1 -1;
#N canvas 962 54 956 1000 rand-lin 0;
#X obj 9 202 outlet;
#X obj 9 16 inlet;
#X obj 67 202 s \$0-modulating;
#X obj 67 178 pack f f;
#X obj 67 127 t b b;
#X obj 9 66 list-apply / 100;
#X obj 9 41 list-random 100 99;
#X obj 9 92 list-shellsort;
#X obj 120 128 expr random(1 \, 10);
#X obj 67 154 expr random(1 \, 10);
#X connect 1 0 4 0;
#X connect 1 0 6 0;
#X connect 3 0 2 0;
#X connect 4 0 9 0;
#X connect 4 1 8 0;
#X connect 5 0 7 0;
#X connect 6 0 5 0;
#X connect 7 0 0 0;
#X connect 8 0 3 1;
#X connect 9 0 3 0;
#X restore 534 245 pd rand-lin;
#N canvas 962 54 476 1000 camel 0;
#X obj 19 11 inlet bang;
#X obj 19 232 outlet;
#X obj 112 232 s \$0-modulating;
#X obj 112 208 pack f f;
#X obj 112 156 t b b;
#X msg 19 38 0 0.00714284 0.0214284 0.0499995 0.0714279 0.099999 0.12857
0.164284 0.199998 0.235712 0.264283 0.292854 0.328568 0.357139 0.392853
0.428567 0.449995 0.478566 0.51428 0.535709 0.56428 0.585708 0.607137
0.635708 0.657136 0.678564 0.69285 0.707135 0.721421 0.721421 0.728564
0.735707 0.742849 0.742849 0.735707 0.728564 0.728564 0.721421 0.707135
0.699993 0.685707 0.671422 0.657136 0.635708 0.614279 0.592851 0.56428
0.542852 0.528566 0.51428 0.499995 0.492852 0.492852 0.492852 0.51428
0.549994 0.56428 0.592851 0.599994 0.621422 0.64285 0.657136 0.678564
0.69285 0.714278 0.721421 0.735707 0.749992 0.764278 0.771421 0.778563
0.778563 0.778563 0.778563 0.778563 0.771421 0.764278 0.749992 0.742849
0.735707 0.721421 0.707135 0.69285 0.671422 0.628565 0.592851 0.549994
0.507138 0.471424 0.414281 0.371425 0.321425 0.278569 0.235712 0.199998
0.164284 0.121427 0.0928562 0.0642851 0, f 130;
#X obj 112 183 expr random(1 \, 100)/100;
#X obj 165 157 expr random(1 \, 100)/100;
#X connect 0 0 5 0;
#X connect 0 0 4 0;
#X connect 3 0 2 0;
#X connect 4 0 6 0;
#X connect 4 1 7 0;
#X connect 5 0 1 0;
#X connect 6 0 3 0;
#X connect 7 0 3 1;
#X restore 617 245 pd camel;
#X obj 617 227 bng 15 250 50 0 empty empty empty 17 7 0 10 -262144
-1 -1;
#N canvas 1282 54 636 1000 symbol 0;
#X obj 15 15 inlet float;
#X obj 462 129 outlet;
#X msg 15 79 symbol bell;
#X msg 101 79 symbol drum;
#X msg 188 79 symbol wood;
#X msg 367 79 symbol bird;
#X msg 453 79 symbol clarinet;
#X msg 568 79 symbol trumpet;
#X msg 675 79 symbol expo;
#X msg 761 79 symbol random-lin;
#X msg 890 79 symbol camel;
#X obj 15 41 sel 0 1 2 3 4 5 6 7 8 9 10, f 139;
#X msg 985 79 symbol random;
#X msg 275 79 symbol brown;
#X connect 0 0 11 0;
#X connect 2 0 1 0;
#X connect 3 0 1 0;
#X connect 4 0 1 0;
#X connect 5 0 1 0;
#X connect 6 0 1 0;
#X connect 7 0 1 0;
#X connect 8 0 1 0;
#X connect 9 0 1 0;
#X connect 10 0 1 0;
#X connect 11 0 2 0;
#X connect 11 1 3 0;
#X connect 11 2 4 0;
#X connect 11 3 13 0;
#X connect 11 4 5 0;
#X connect 11 5 6 0;
#X connect 11 6 7 0;
#X connect 11 7 8 0;
#X connect 11 8 9 0;
#X connect 11 9 10 0;
#X connect 11 10 12 0;
#X connect 12 0 1 0;
#X connect 13 0 1 0;
#X restore 26 290 pd symbol;
#X obj 26 315 outlet symbol;
#N canvas 962 54 956 1000 brown 1;
#X obj 9 319 outlet;
#X obj 9 16 inlet;
#X obj 67 319 s \$0-modulating;
#X obj 67 295 pack f f;
#X obj 67 217 t b b;
#X obj 9 65 list-map;
#X obj 76 165 *;
#X obj 62 90 t f b;
#X obj 9 188 list-math / 100;
#X obj 9 41 list-random 2 99;
#X obj 62 114 expr if($f1 == 0 \, 1 \, 1);
#X obj 120 268 expr random(1 \, 100)* 0.01;
#X obj 67 241 expr random(0 \, 100) * 0.1;
#X obj 94 140 else/drunkard -p 75 5 0 100;
#X connect 1 0 4 0;
#X connect 1 0 9 0;
#X connect 3 0 2 0;
#X connect 4 0 12 0;
#X connect 4 1 11 0;
#X connect 5 0 8 0;
#X connect 5 1 7 0;
#X connect 6 0 5 1;
#X connect 7 0 10 0;
#X connect 7 1 13 0;
#X connect 8 0 0 0;
#X connect 9 0 5 0;
#X connect 10 0 6 0;
#X connect 11 0 3 1;
#X connect 12 0 3 0;
#X connect 13 0 6 1;
#X restore 201 245 pd brown;
#X obj 36 201 sel 0 1 2 3 4 5 6 7 8 9 10, f 99;
#N canvas 1282 54 636 1000 random 0;
#N canvas 0 50 450 250 (subpatch) 0;
#X array \$0-random_env 10 float 3;
#A 0 0 0.49 0.21 0.02 0.62 0.45 0.36 0.1 0.75 0;
#X coords 0 0 10 1 200 140 1 0 0;
#X restore 379 111 graph;
#N canvas 2 758 956 296 random 0;
#X obj 5 5 inlet bang;
#X obj 5 105 list-map;
#X obj 70 105 * 0.01;
#X obj 5 132 array set \$0-random_env;
#X obj 5 54 list prepend 0;
#X obj 5 79 list append 0;
#X obj 5 30 list-random 100 8;
#X connect 0 0 6 0;
#X connect 1 0 3 0;
#X connect 1 1 2 0;
#X connect 2 0 1 1;
#X connect 4 0 5 0;
#X connect 5 0 1 0;
#X connect 6 0 4 0;
#X restore 429 66 pd random;
#X obj 46 144 line~;
#X obj 46 192 +~ 1;
#X obj 46 168 *~ 7;
#X obj 23 18 inlet bang;
#X obj 46 216 tabread4~ \$0-random_env;
#X obj 429 45 bng 15 250 50 0 empty empty empty 17 7 0 10 -262144 -1
-1;
#X obj 23 241 tabwrite~ \$0-envelope;
#X obj 23 90 t b b;
#X msg 46 121 0 \, 1 10;
#X obj 218 231 s \$0-modulating;
#X obj 218 102 t b b;
#X obj 218 204 pack f f;
#X obj 218 128 random 100;
#X obj 218 152 / 100;
#X obj 301 122 random 9;
#X obj 301 148 + 2;
#X obj 218 177 + 1;
#X obj 429 20 inlet new;
#X obj 301 173 / 10;
#X obj 23 70 bng 15 250 50 0 empty empty empty 17 7 0 10 -262144 -1
-1;
#X connect 2 0 4 0;
#X connect 3 0 6 0;
#X connect 4 0 3 0;
#X connect 5 0 12 0;
#X connect 6 0 8 0;
#X connect 7 0 1 0;
#X connect 7 0 21 0;
#X connect 9 0 8 0;
#X connect 9 1 10 0;
#X connect 10 0 2 0;
#X connect 12 0 14 0;
#X connect 12 1 16 0;
#X connect 13 0 11 0;
#X connect 14 0 15 0;
#X connect 15 0 18 0;
#X connect 16 0 17 0;
#X connect 17 0 20 0;
#X connect 18 0 13 0;
#X connect 19 0 7 0;
#X connect 20 0 13 1;
#X connect 21 0 9 0;
#X restore 680 246 pd random;
#X obj 680 227 bng 15 250 50 0 empty empty empty 17 7 0 10 -262144
-1 -1;
#X obj 58 174 array define \$0-envelope;
#X obj 26 46 t f f;
#X obj 58 71 > 9;
#X obj 58 119 sel 0 1;
#X msg 58 144 resize 100;
#X msg 153 146 resize 480;
#X obj 58 95 change;
#X obj 740 227 bng 15 250 50 0 empty empty empty 17 7 0 10 -262144
-1 -1;
#X connect 1 0 0 0;
#X connect 2 0 1 0;
#X connect 3 0 8 0;
#X connect 4 0 9 0;
#X connect 5 0 10 0;
#X connect 6 0 11 0;
#X connect 7 0 12 0;
#X connect 8 0 0 0;
#X connect 9 0 0 0;
#X connect 10 0 0 0;
#X connect 11 0 0 0;
#X connect 12 0 0 0;
#X connect 13 0 15 0;
#X connect 14 0 28 0;
#X connect 15 0 0 0;
#X connect 16 0 23 0;
#X connect 17 0 18 0;
#X connect 18 0 0 0;
#X connect 19 0 0 0;
#X connect 20 0 19 0;
#X connect 21 0 22 0;
#X connect 23 0 0 0;
#X connect 24 0 4 0;
#X connect 24 1 5 0;
#X connect 24 2 6 0;
#X connect 24 3 16 0;
#X connect 24 4 7 0;
#X connect 24 5 2 0;
#X connect 24 6 3 0;
#X connect 24 7 13 0;
#X connect 24 8 17 0;
#X connect 24 9 20 0;
#X connect 24 10 26 0;
#X connect 26 0 25 0;
#X connect 28 0 24 0;
#X connect 28 0 21 0;
#X connect 28 1 29 0;
#X connect 29 0 33 0;
#X connect 30 0 31 0;
#X connect 30 1 32 0;
#X connect 30 1 34 0;
#X connect 31 0 27 0;
#X connect 32 0 27 0;
#X connect 33 0 30 0;
#X connect 34 0 25 1;
#X restore 248 414 pd timbre;
#X obj 455 9 inlet voice_status;
#X obj 455 34 tgl 15 0 empty empty empty 17 7 0 10 -262144 -1 -1 0
1;
#X obj 455 54 switch~;
#X obj 146 439 outlet symbol;
#X obj 248 439 outlet symbol;
#X obj 16 366 clip~ -0.99 0.99;
#X obj 276 154 min 0.99;
#X obj 16 81 unpack f f f f f, f 44;
#X obj 16 34 list split 5;
#N canvas 1282 54 636 1000 add 0;
#X obj 314 100 vline~;
#X obj 314 124 tabread4~ \$0-flat_env_out 99;
#X obj 314 148 snapshot~;
#X msg 314 76 1 0 \, 99 \$1;
#X obj 399 179 vline~;
#X obj 399 203 snapshot~;
#X msg 399 154 1 0 \, 0 \$1;
#X obj 107 21 inlet dur;
#X obj 107 274 outlet;
#X obj 399 99 metro 100;
#X floatatom 314 173 5 0 0 0 - - -;
#X obj 23 50 r \$0-flat_fm;
#X obj 125 101 list length;
#X obj 23 74 t l l, f 15;
#X obj 107 201 metro;
#X msg 107 176 1;
#X obj 107 127 /;
#X obj 107 225 list-dripslow;
#X obj 195 200 list store;
#X obj 107 249 * 10;
#X msg 139 176 0;
#X obj 107 151 t b b f;
#X connect 1 0 2 0;
#X connect 2 0 10 0;
#X connect 3 0 0 0;
#X connect 4 0 5 0;
#X connect 6 0 4 0;
#X connect 7 0 16 0;
#X connect 9 0 5 0;
#X connect 9 0 2 0;
#X connect 11 0 13 0;
#X connect 12 0 16 1;
#X connect 13 0 18 1;
#X connect 13 1 12 0;
#X connect 14 0 17 0;
#X connect 15 0 14 0;
#X connect 16 0 21 0;
#X connect 17 0 19 0;
#X connect 17 1 20 0;
#X connect 17 1 18 0;
#X connect 18 0 17 1;
#X connect 19 0 8 0;
#X connect 20 0 14 0;
#X connect 21 0 15 0;
#X connect 21 1 18 0;
#X connect 21 2 14 1;
#X restore 79 263 pd add noise;
#X obj 276 106 dbtorms;
#X obj 276 130 +, f 9;
#N canvas 1282 54 636 1000 waves 0;
#X obj 7 132 waves~;
#X obj 7 5 inlet timbre;
#X obj 97 5 inlet modulator;
#X obj 209 5 inlet~ signal;
#X obj 193 311 outlet symbol;
#N canvas 1442 54 476 1000 symbol 0;
#X obj 20 12 inlet;
#X msg 20 94 symbol sine;
#X msg 193 94 symbol triangle;
#X msg 112 94 symbol saw;
#X msg 314 94 symbol square;
#X obj 112 138 outlet;
#X msg 417 94 symbol pulse;
#X obj 20 37 sel 0 1 2 3 4 5 6 7 8 9, f 53;
#X connect 0 0 7 0;
#X connect 1 0 5 0;
#X connect 2 0 5 0;
#X connect 3 0 5 0;
#X connect 4 0 5 0;
#X connect 6 0 5 0;
#X connect 7 0 1 0;
#X connect 7 1 1 0;
#X connect 7 2 1 0;
#X connect 7 3 1 0;
#X connect 7 4 1 0;
#X connect 7 5 1 0;
#X connect 7 6 3 0;
#X connect 7 7 2 0;
#X connect 7 8 4 0;
#X connect 7 9 6 0;
#X restore 193 286 pd symbol;
#X obj 7 28 change;
#X obj 7 52 bang;
#X obj 7 76 random 10;
#X obj 16 158 waves~;
#X obj 26 188 waves~;
#X obj 36 218 waves~;
#X obj 46 248 waves~;
#X obj 97 29 * 2;
#X obj 107 56 * 3;
#X obj 127 86 * 4;
#X obj 137 116 * 5;
#X obj 7 290 /~ 5;
#X obj 7 314 outlet~ signal;
#X connect 0 0 17 0;
#X connect 1 0 6 0;
#X connect 2 0 0 1;
#X connect 2 0 13 0;
#X connect 2 0 14 0;
#X connect 2 0 15 0;
#X connect 2 0 16 0;
#X connect 3 0 0 2;
#X connect 3 0 9 2;
#X connect 3 0 12 2;
#X connect 3 0 11 2;
#X connect 3 0 10 2;
#X connect 5 0 4 0;
#X connect 6 0 7 0;
#X connect 7 0 8 0;
#X connect 8 0 0 0;
#X connect 8 0 5 0;
#X connect 8 0 9 0;
#X connect 8 0 12 0;
#X connect 8 0 11 0;
#X connect 8 0 10 0;
#X connect 9 0 17 0;
#X connect 10 0 17 0;
#X connect 11 0 17 0;
#X connect 12 0 17 0;
#X connect 13 0 9 1;
#X connect 14 0 10 1;
#X connect 15 0 11 1;
#X connect 16 0 12 1;
#X connect 17 0 18 0;
#X restore 16 180 pd waves;
#X f 19;
#X obj 181 207 min 0.99;
#N canvas 962 54 956 1000 lowpass 0;
#X obj 6 12 inlet~ signal;
#X obj 6 247 outlet~;
#X obj 31 41 loadbang;
#X obj 6 96 lop~;
#X obj 6 121 lop~;
#X obj 6 146 lop~;
#X obj 113 12 inlet midi;
#X obj 113 37 mtof;
#X obj 6 171 lop~;
#X obj 6 196 lop~;
#X obj 113 62 * 3;
#X obj 6 220 hip~ 5;
#X msg 31 66 10000;
#X connect 0 0 3 0;
#X connect 2 0 12 0;
#X connect 3 0 4 0;
#X connect 4 0 5 0;
#X connect 5 0 8 0;
#X connect 6 0 7 0;
#X connect 7 0 10 0;
#X connect 8 0 9 0;
#X connect 9 0 11 0;
#X connect 10 0 3 1;
#X connect 10 0 4 1;
#X connect 10 0 5 1;
#X connect 10 0 8 1;
#X connect 10 0 9 1;
#X connect 11 0 1 0;
#X connect 12 0 3 1;
#X restore 16 238 pd lowpass;
#X f 11;
#X obj 36 286 fold~;
#X obj 79 286 else/float2sig~ 100 1;
#X obj 36 262 *~;
#X text 107 36 Timbre \, pitch \, duration \, legato \, amp \, noiseness
;
#X obj 169 111 s \$0-dur_fm;
#X obj 16 317 *~, f 24;
#X obj 16 390 *~;
#N canvas 1282 54 636 1000 amp 0;
#X obj 24 15 r \$0-dur_fm;
#X obj 24 39 t b f;
#X obj 95 73 delay;
#X obj 24 73 pack 1 10;
#X obj 24 97 line~;
#X obj 24 123 outlet~;
#X obj 127 48 + 10;
#X obj 95 97 pack 0 100;
#X connect 0 0 1 0;
#X connect 1 0 2 0;
#X connect 1 0 3 0;
#X connect 1 1 6 0;
#X connect 2 0 7 0;
#X connect 3 0 4 0;
#X connect 4 0 5 0;
#X connect 6 0 2 1;
#X connect 7 0 4 0;
#X restore 43 390 pd amp;
#N canvas 0 32 1920 1048 harmonics 0;
#X obj 12 13 inlet~;
#X obj 74 329 *~;
#X obj 229 222 line~;
#X obj 74 189 exp;
#X obj 74 264 /, f 12;
#X obj 123 189 * 0.001;
#X obj 296 384 line~;
#X obj 74 355 +~;
#X obj 11 373 cos~;
#X obj 11 400 *~;
#X obj 120 472 +~;
#X obj 158 337 wrap~;
#X obj 211 356 *~;
#X obj 211 403 +~;
#X obj 158 428 cos~;
#X obj 158 452 *~;
#X obj 123 216 t b f;
#X obj 158 310 +~ 0.5;
#X obj 11 321 -~ 0.5;
#X obj 11 347 *~ 0.5;
#X obj 158 367 -~ 0.5;
#X obj 158 404 *~ 0.5;
#X obj 74 214 - 1;
#X obj 74 163 * 0.05776;
#X obj 74 240 * -1;
#X obj 74 291 phasor~;
#X obj 296 335 max 1.5;
#X obj 229 170 max 1;
#X obj 435 335 *~;
#X obj 590 228 line~;
#X obj 590 202 pack 0 200;
#X obj 435 195 exp;
#X obj 435 270 /, f 12;
#X obj 484 195 * 0.001;
#X obj 657 390 line~;
#X obj 435 361 +~;
#X obj 372 379 cos~;
#X obj 372 406 *~;
#X obj 481 478 +~;
#X obj 519 343 wrap~;
#X obj 572 362 *~;
#X obj 572 409 +~;
#X obj 519 434 cos~;
#X obj 519 458 *~;
#X obj 484 222 t b f;
#X obj 519 316 +~ 0.5;
#X obj 372 327 -~ 0.5;
#X obj 372 353 *~ 0.5;
#X obj 519 373 -~ 0.5;
#X obj 519 410 *~ 0.5;
#X obj 435 220 - 1;
#X obj 435 169 * 0.05776;
#X obj 435 246 * -1;
#X obj 435 297 phasor~;
#X obj 657 341 max 1.5;
#X obj 590 176 max 1;
#X obj 120 577 outlet~;
#X obj 795 335 *~;
#X obj 950 228 line~;
#X obj 795 195 exp;
#X obj 795 270 /, f 12;
#X obj 844 195 * 0.001;
#X obj 1017 390 line~;
#X obj 795 361 +~;
#X obj 732 379 cos~;
#X obj 732 406 *~;
#X obj 841 478 +~;
#X obj 879 343 wrap~;
#X obj 932 362 *~;
#X obj 932 409 +~;
#X obj 879 434 cos~;
#X obj 879 458 *~;
#X obj 844 222 t b f;
#X obj 879 316 +~ 0.5;
#X obj 732 327 -~ 0.5;
#X obj 732 353 *~ 0.5;
#X obj 879 373 -~ 0.5;
#X obj 879 410 *~ 0.5;
#X obj 795 220 - 1;
#X obj 795 169 * 0.05776;
#X obj 795 246 * -1;
#X obj 795 297 phasor~;
#X obj 1017 341 max 1.5;
#X obj 950 176 max 1;
#X obj 493 13 inlet bang;
#X obj 493 38 bang;
#X obj 795 145 expr random (24 \, 36);
#X obj 74 139 expr random(1 \, 12);
#X obj 435 143 expr random (12 \, 24);
#X obj 229 196 pack 0 100;
#X obj 950 202 pack 0 300;
#X msg 656 57 10;
#X obj 656 29 loadbang;
#X obj 657 365 pack 0 20;
#X obj 296 358 pack 0 20;
#X obj 1017 365 pack 0 20;
#X msg 590 58 10;
#X obj 120 496 *~ 0.25;
#X obj 481 503 *~ 0.125;
#X obj 841 503 *~ 0.0612;
#X obj 211 428 vd~ \$0-pitch_shift2;
#X obj 572 434 vd~ \$0-pitch_shift3;
#X obj 435 387 vd~ \$0-pitch_shift3;
#X obj 12 41 delwrite~ \$0-pitch_shift2 1000;
#X obj 18 65 delwrite~ \$0-pitch_shift3 1000;
#X obj 31 89 delwrite~ \$0-pitch_shift4 1000;
#X obj 795 386 vd~ \$0-pitch_shift4;
#X obj 932 434 vd~ \$0-pitch_shift4;
#X obj 74 381 vd~ \$0-pitch_shift2;
#X connect 0 0 103 0;
#X connect 0 0 104 0;
#X connect 0 0 105 0;
#X connect 1 0 7 0;
#X connect 2 0 1 1;
#X connect 2 0 12 1;
#X connect 3 0 22 0;
#X connect 4 0 25 0;
#X connect 5 0 16 0;
#X connect 6 0 7 1;
#X connect 6 0 13 1;
#X connect 7 0 108 0;
#X connect 8 0 9 0;
#X connect 9 0 10 0;
#X connect 10 0 97 0;
#X connect 11 0 12 0;
#X connect 11 0 20 0;
#X connect 12 0 13 0;
#X connect 13 0 100 0;
#X connect 14 0 15 0;
#X connect 15 0 10 1;
#X connect 16 0 4 0;
#X connect 16 1 4 1;
#X connect 17 0 11 0;
#X connect 18 0 19 0;
#X connect 19 0 8 0;
#X connect 20 0 21 0;
#X connect 21 0 14 0;
#X connect 22 0 24 0;
#X connect 23 0 3 0;
#X connect 24 0 4 0;
#X connect 25 0 1 0;
#X connect 25 0 18 0;
#X connect 25 0 17 0;
#X connect 26 0 94 0;
#X connect 27 0 5 0;
#X connect 27 0 89 0;
#X connect 28 0 35 0;
#X connect 29 0 28 1;
#X connect 29 0 40 1;
#X connect 30 0 29 0;
#X connect 31 0 50 0;
#X connect 32 0 53 0;
#X connect 33 0 44 0;
#X connect 34 0 35 1;
#X connect 34 0 41 1;
#X connect 35 0 102 0;
#X connect 36 0 37 0;
#X connect 37 0 38 0;
#X connect 38 0 98 0;
#X connect 39 0 40 0;
#X connect 39 0 48 0;
#X connect 40 0 41 0;
#X connect 41 0 101 0;
#X connect 42 0 43 0;
#X connect 43 0 38 1;
#X connect 44 0 32 0;
#X connect 44 1 32 1;
#X connect 45 0 39 0;
#X connect 46 0 47 0;
#X connect 47 0 36 0;
#X connect 48 0 49 0;
#X connect 49 0 42 0;
#X connect 50 0 52 0;
#X connect 51 0 31 0;
#X connect 52 0 32 0;
#X connect 53 0 28 0;
#X connect 53 0 46 0;
#X connect 53 0 45 0;
#X connect 54 0 93 0;
#X connect 55 0 33 0;
#X connect 55 0 30 0;
#X connect 57 0 63 0;
#X connect 58 0 57 1;
#X connect 58 0 68 1;
#X connect 59 0 78 0;
#X connect 60 0 81 0;
#X connect 61 0 72 0;
#X connect 62 0 63 1;
#X connect 62 0 69 1;
#X connect 63 0 106 0;
#X connect 64 0 65 0;
#X connect 65 0 66 0;
#X connect 66 0 99 0;
#X connect 67 0 68 0;
#X connect 67 0 76 0;
#X connect 68 0 69 0;
#X connect 69 0 107 0;
#X connect 70 0 71 0;
#X connect 71 0 66 1;
#X connect 72 0 60 0;
#X connect 72 1 60 1;
#X connect 73 0 67 0;
#X connect 74 0 75 0;
#X connect 75 0 64 0;
#X connect 76 0 77 0;
#X connect 77 0 70 0;
#X connect 78 0 80 0;
#X connect 79 0 59 0;
#X connect 80 0 60 0;
#X connect 81 0 57 0;
#X connect 81 0 74 0;
#X connect 81 0 73 0;
#X connect 82 0 95 0;
#X connect 83 0 61 0;
#X connect 83 0 90 0;
#X connect 84 0 85 0;
#X connect 85 0 86 0;
#X connect 85 0 87 0;
#X connect 85 0 88 0;
#X connect 86 0 79 0;
#X connect 87 0 23 0;
#X connect 88 0 51 0;
#X connect 89 0 2 0;
#X connect 90 0 58 0;
#X connect 91 0 54 0;
#X connect 91 0 26 0;
#X connect 91 0 82 0;
#X connect 92 0 91 0;
#X connect 92 0 96 0;
#X connect 93 0 34 0;
#X connect 94 0 6 0;
#X connect 95 0 62 0;
#X connect 96 0 27 0;
#X connect 96 0 55 0;
#X connect 96 0 83 0;
#X connect 97 0 56 0;
#X connect 98 0 56 0;
#X connect 99 0 56 0;
#X connect 100 0 15 1;
#X connect 101 0 43 1;
#X connect 102 0 37 1;
#X connect 106 0 65 1;
#X connect 107 0 71 1;
#X connect 108 0 9 1;
#X restore 16 208 pd harmonics;
#X obj 16 341 limiter~;
#X connect 0 0 17 0;
#X connect 1 0 22 0;
#X connect 2 0 3 0;
#X connect 3 0 20 1;
#X connect 6 0 1 0;
#X connect 6 0 7 1;
#X connect 7 0 21 1;
#X connect 7 0 6 0;
#X connect 7 0 32 1;
#X connect 7 1 21 2;
#X connect 8 0 13 0;
#X connect 9 0 10 0;
#X connect 10 0 11 0;
#X connect 14 0 30 0;
#X connect 15 0 1 1;
#X connect 16 0 8 0;
#X connect 16 0 21 0;
#X connect 16 1 7 0;
#X connect 16 1 23 1;
#X connect 16 2 6 1;
#X connect 16 2 18 0;
#X connect 16 2 28 0;
#X connect 16 3 6 2;
#X connect 16 4 19 0;
#X connect 17 0 16 0;
#X connect 17 1 5 0;
#X connect 18 0 25 0;
#X connect 19 0 20 0;
#X connect 20 0 15 0;
#X connect 21 0 32 0;
#X connect 21 1 12 0;
#X connect 22 0 29 1;
#X connect 23 0 29 0;
#X connect 23 0 26 0;
#X connect 24 0 29 0;
#X connect 25 0 26 1;
#X connect 26 0 24 0;
#X connect 29 0 33 0;
#X connect 30 0 4 0;
#X connect 31 0 30 1;
#X connect 32 0 23 0;
#X connect 33 0 14 0;
#X coords 0 0 0 0 0 0 0;
