#N canvas 642 54 636 1000 12;
#X obj 75 369 spigot;
#X obj 75 392 outlet;
#X obj 6 6 inlet sel;
#X obj 75 302 list store;
#X obj 338 219 f;
#X obj 181 234 pack;
#N canvas 962 54 956 1000 timbre 0;
#X obj 13 13 inlet bang;
#X obj 13 88 outlet;
#X obj 96 89 random 11;
#X obj 96 66 sel 1;
#X obj 13 37 f;
#X obj 96 13 r \$0-homo_status;
#X obj 96 38 change;
#X connect 0 0 4 0;
#X connect 2 0 4 1;
#X connect 3 0 2 0;
#X connect 4 0 1 0;
#X connect 5 0 6 0;
#X connect 6 0 3 0;
#X restore 140 182 pd timbre;
#X obj 511 6 inlet flat_curve;
#X obj 338 243 list;
#X obj 181 258 list;
#X obj 181 287 list;
#X obj 272 262 list;
#X obj 272 239 f;
#X obj 441 6 inlet amp;
#X text 156 309 This abstraction concatenates values for timbre \,
pitch \, duration \, amplitude and flatness curve into a single list.
;
#N canvas 962 54 956 1000 pitch 0;
#X obj 3 85 outlet pitch;
#X obj 3 7 inlet bang;
#X obj 86 7 inlet pitch;
#X obj 3 57 pick-random;
#X obj 3 32 list store;
#X connect 1 0 4 0;
#X connect 2 0 4 1;
#X connect 3 0 0 0;
#X connect 4 0 3 0;
#X restore 206 209 pd pitch;
#X obj 259 6 inlet melody;
#X obj 350 6 inlet legato;
#X obj 6 34 == 1;
#X obj 511 105 list trim;
#X obj 511 81 list prepend flat;
#X obj 75 6 inlet dur;
#N canvas 962 54 956 1000 metro 0;
#X obj 152 9 inlet dur;
#X obj 106 109 f;
#X obj 6 34 change;
#X obj 106 83 sel 1;
#X obj 6 108 metro;
#X obj 106 393 outlet dur;
#X obj 6 393 outlet bang;
#X obj 6 9 r \$0-homo_status;
#X obj 26 233 f;
#X obj 152 34 list-mean;
#X obj 26 133 random 2;
#X obj 26 157 sel 0;
#X obj 53 233 f;
#X obj 82 233 f;
#X obj 123 233 f;
#X obj 26 207 sel 0 1 2 3 4, f 26;
#X obj 172 232 f;
#X obj 152 59 max 100;
#X obj 26 287 max 100;
#X obj 53 257 * 4;
#X obj 82 256 * 2;
#X obj 123 256 * 0.5;
#X obj 172 255 * 0.33;
#X obj 26 183 drunk 5 1;
#X connect 0 0 9 0;
#X connect 1 0 4 1;
#X connect 1 0 5 0;
#X connect 2 0 3 0;
#X connect 2 0 4 0;
#X connect 3 0 1 0;
#X connect 4 0 6 0;
#X connect 4 0 10 0;
#X connect 7 0 2 0;
#X connect 8 0 18 0;
#X connect 9 0 17 0;
#X connect 10 0 11 0;
#X connect 11 0 23 0;
#X connect 12 0 19 0;
#X connect 13 0 20 0;
#X connect 14 0 21 0;
#X connect 15 0 8 0;
#X connect 15 1 12 0;
#X connect 15 2 13 0;
#X connect 15 3 14 0;
#X connect 15 4 16 0;
#X connect 16 0 22 0;
#X connect 17 0 1 1;
#X connect 17 0 8 1;
#X connect 17 0 16 1;
#X connect 17 0 14 1;
#X connect 17 0 13 1;
#X connect 17 0 12 1;
#X connect 18 0 4 1;
#X connect 18 0 5 0;
#X connect 19 0 18 0;
#X connect 20 0 18 0;
#X connect 21 0 18 0;
#X connect 22 0 18 0;
#X connect 23 0 15 0;
#X restore 75 112 pd metro;
#N canvas 1282 54 636 1000 amp 1;
#X obj 96 87 pick-random;
#X obj 96 191 outlet;
#X obj 207 10 inlet offset;
#X obj 96 142 max 70;
#X obj 96 166 min 99;
#X obj 207 85 * 1.1;
#X obj 96 112 expr $f1+random(1 \, 10);
#X obj 13 11 inlet bang;
#X obj 96 12 inlet amp;
#X obj 96 57 list store;
#X connect 0 0 6 0;
#X connect 2 0 5 0;
#X connect 3 0 4 0;
#X connect 4 0 1 0;
#X connect 5 0 3 1;
#X connect 6 0 3 0;
#X connect 7 0 9 0;
#X connect 8 0 9 1;
#X connect 9 0 0 0;
#X restore 356 171 pd amp;
#X obj 75 50 spigot;
#X obj 114 28 r \$0-homo_status;
#X obj 6 78 s \$0-homo_status;
#X obj 114 346 r \$0-homo_status;
#X obj 511 54 spigot;
#X obj 550 32 r \$0-homo_status;
#X obj 630 6 inlet offset;
#X obj 75 142 t b b b b b b, f 38;
#X connect 0 0 1 0;
#X connect 2 0 18 0;
#X connect 3 0 0 0;
#X connect 4 0 8 0;
#X connect 5 0 9 0;
#X connect 6 0 5 0;
#X connect 7 0 28 0;
#X connect 8 0 11 1;
#X connect 9 0 10 0;
#X connect 10 0 3 1;
#X connect 11 0 10 1;
#X connect 12 0 11 0;
#X connect 13 0 23 1;
#X connect 15 0 5 1;
#X connect 16 0 15 1;
#X connect 17 0 12 1;
#X connect 18 0 26 0;
#X connect 19 0 8 1;
#X connect 20 0 19 0;
#X connect 21 0 24 0;
#X connect 22 0 31 0;
#X connect 22 1 9 1;
#X connect 23 0 4 1;
#X connect 24 0 22 0;
#X connect 25 0 24 1;
#X connect 27 0 0 1;
#X connect 28 0 20 0;
#X connect 29 0 28 1;
#X connect 30 0 23 2;
#X connect 31 0 3 0;
#X connect 31 1 6 0;
#X connect 31 2 15 0;
#X connect 31 3 12 0;
#X connect 31 4 4 0;
#X connect 31 5 23 0;
