#N canvas 962 54 956 1000 12;
#X obj 22 13 inlet~;
#X msg 383 144 10;
#X obj 258 168 expr (($f1 - $f3) / $f2) - $f1 + $f3;
#X obj 383 119 loadbang;
#X obj 223 69 env~ 1024;
#X obj 258 211 dbtorms;
#X obj 258 190 expr 100 + $f1;
#X obj 22 337 outlet~;
#X obj 22 310 *~;
#X obj 42 283 line~;
#X obj 223 120 moses;
#X msg 223 212 1;
#X text 415 144 limit factor;
#X text 274 331 www.pd-tutorial.com;
#X text 283 306 Johannes Kreidler;
#X obj 507 58 loadbang;
#X text 547 82 threshold;
#X obj 22 101 loadbang;
#X msg 22 124 30;
#X obj 223 144 bang;
#X obj 22 74 delwrite~ \$0-limiter_fm 100;
#X obj 22 146 delread~ \$0-limiter_fm;
#X msg 507 81 90;
#X msg 42 259 \$1 20;
#X msg 88 259 \$1 20;
#X connect 0 0 4 0;
#X connect 0 0 20 0;
#X connect 1 0 2 1;
#X connect 2 0 6 0;
#X connect 3 0 1 0;
#X connect 4 0 10 0;
#X connect 5 0 23 0;
#X connect 6 0 5 0;
#X connect 8 0 7 0;
#X connect 9 0 8 1;
#X connect 10 0 19 0;
#X connect 10 1 2 0;
#X connect 11 0 24 0;
#X connect 15 0 22 0;
#X connect 17 0 18 0;
#X connect 18 0 21 0;
#X connect 19 0 11 0;
#X connect 21 0 8 0;
#X connect 22 0 2 2;
#X connect 22 0 10 1;
#X connect 23 0 9 0;
#X connect 24 0 9 0;
