#N canvas 1280 32 640 1024 12;
#X obj 161 342 list prepend;
#X obj 254 343 t a;
#X obj 161 261 until;
#X obj 138 109 t b b b;
#X obj 138 373 list;
#X obj 312 133 f \$2;
#X obj 323 105 loadbang;
#X obj 138 406 outlet;
#X obj 161 235 f 1;
#X obj 312 157 max 1;
#X obj 73 55 inlet bang;
#X obj 181 53 inlet value;
#X obj 312 54 inlet length;
#X obj 161 290 f;
#X obj 73 86 t b b;
#X obj 73 111 bng 15 250 50 0 empty empty empty 17 7 0 10 -262144 -1
-1;
#X text 71 14 make a list of size \$2 comprised of repeated \$1s;
#X connect 0 0 1 0;
#X connect 0 0 4 1;
#X connect 1 0 0 1;
#X connect 2 0 13 0;
#X connect 3 0 4 0;
#X connect 3 1 8 0;
#X connect 3 2 0 1;
#X connect 4 0 7 0;
#X connect 5 0 9 0;
#X connect 6 0 5 0;
#X connect 8 0 2 0;
#X connect 9 0 8 1;
#X connect 10 0 14 0;
#X connect 11 0 13 1;
#X connect 12 0 5 0;
#X connect 13 0 0 0;
#X connect 14 0 15 0;
#X connect 14 1 3 0;
#X connect 15 0 13 0;
