#N canvas 1442 54 476 1000 10;
#X obj 33 181 list store;
#X obj 89 89 t l l;
#X obj 89 112 list length;
#X msg 33 158 get \$1 1;
#X msg 130 135 clear;
#X msg 112 181 done;
#X obj 33 227 outlet;
#X obj 33 20 inlet bang;
#X obj 89 43 inlet list;
#N canvas 1538 54 380 1000 vurn 0;
#X obj 299 175 text define \$0-urn;
#X obj 260 198 until;
#X msg 299 152 clear;
#X obj 260 221 f;
#X obj 290 221 + 1;
#X obj 260 244 text set \$0-urn 1e+06;
#X msg 306 198 0;
#X obj 40 106 text size \$0-urn;
#X obj 40 129 sel;
#X obj 55 152 t b f;
#X obj 55 175 random;
#X obj 55 198 t f f;
#X obj 82 221 text get \$0-urn 0 1;
#X obj 55 244 text delete \$0-urn;
#X obj 40 37 inlet;
#X obj 55 267 outlet;
#X obj 260 37 inlet;
#X obj 308 37 loadbang;
#X obj 260 83 \$1;
#X obj 260 129 t f b b;
#X msg 119 83 seed \$1;
#X obj 271 60 r \$0-reset;
#X obj 174 83 s \$0-reset;
#X obj 112 267 outlet;
#X obj 260 106 max 1;
#X obj 40 60 route bang float seed clear;
#X obj 79 83 b;
#X connect 1 0 3 0;
#X connect 2 0 0 0;
#X connect 3 0 4 0;
#X connect 3 0 5 0;
#X connect 4 0 3 1;
#X connect 6 0 3 1;
#X connect 7 0 8 0;
#X connect 8 0 23 0;
#X connect 8 1 9 0;
#X connect 9 0 10 0;
#X connect 9 1 10 1;
#X connect 10 0 11 0;
#X connect 11 0 13 0;
#X connect 11 1 12 0;
#X connect 12 0 15 0;
#X connect 14 0 25 0;
#X connect 16 0 18 0;
#X connect 17 0 18 0;
#X connect 18 0 24 0;
#X connect 19 0 1 0;
#X connect 19 1 6 0;
#X connect 19 2 2 0;
#X connect 20 0 10 0;
#X connect 21 0 18 0;
#X connect 24 0 19 0;
#X connect 25 0 7 0;
#X connect 25 1 26 0;
#X connect 25 2 20 0;
#X connect 25 3 22 0;
#X connect 26 0 7 0;
#X restore 33 134 pd vurn;
#X connect 0 0 6 0;
#X connect 1 0 2 0;
#X connect 1 1 0 1;
#X connect 2 0 9 1;
#X connect 3 0 0 0;
#X connect 4 0 9 0;
#X connect 5 0 6 0;
#X connect 7 0 9 0;
#X connect 8 0 1 0;
#X connect 9 0 3 0;
#X connect 9 1 4 0;
#X connect 9 1 5 0;
