#N canvas 962 54 956 1000 12;
#X obj 19 19 inlet list;
#X obj 19 66 list-unique;
#X obj 29 140 list-find;
#X obj 89 164 list-extend;
#X obj 22 236 list-minmax;
#X obj 96 260 list-find;
#X obj 19 43 t l l b, f 18;
#X obj 22 188 list store;
#X obj 19 114 list-drip;
#X obj 19 90 t l l, f 13;
#X obj 22 212 t l l, f 6;
#X obj 96 308 list store;
#X obj 96 332 list-idx;
#X obj 96 284 t b f;
#X obj 96 356 route float list;
#X obj 96 405 outlet float;
#X text 186 80 list-mode: Get the most common value in a list \;;
#X obj 150 380 list-minmax;
#X text 239 382 If more than one value \, outputs the greatest.;
#X connect 0 0 6 0;
#X connect 1 0 9 0;
#X connect 2 1 3 0;
#X connect 3 0 7 1;
#X connect 4 1 5 0;
#X connect 5 0 13 0;
#X connect 6 0 1 0;
#X connect 6 1 2 1;
#X connect 6 2 3 1;
#X connect 7 0 10 0;
#X connect 8 0 2 0;
#X connect 8 1 7 0;
#X connect 9 0 8 0;
#X connect 9 1 11 1;
#X connect 10 0 4 0;
#X connect 10 1 5 1;
#X connect 11 0 12 0;
#X connect 12 0 14 0;
#X connect 13 0 11 0;
#X connect 13 1 12 1;
#X connect 14 0 15 0;
#X connect 14 1 17 0;
#X connect 17 1 15 0;
#X coords 0 0 0.125 0.125 0 0 0;
