#N canvas 1282 54 636 1000 12;
#X obj 13 19 inlet list;
#X obj 144 20 inlet offset;
#X obj 105 100 list-minmax;
#X obj 116 157 expr $f2-$f1;
#X obj 13 163 list-map;
#X obj 87 133 -;
#X obj 144 69 expr 100 - $f1;
#X obj 87 157 *;
#X obj 87 181 /;
#X obj 87 205 +;
#X obj 144 44 t f f;
#X obj 13 237 outlet list;
#X obj 13 43 t l l;
#X connect 0 0 12 0;
#X connect 1 0 10 0;
#X connect 2 0 3 0;
#X connect 2 0 5 1;
#X connect 2 1 3 1;
#X connect 3 0 8 1;
#X connect 4 0 11 0;
#X connect 4 1 5 0;
#X connect 5 0 7 0;
#X connect 6 0 7 1;
#X connect 7 0 8 0;
#X connect 8 0 9 0;
#X connect 9 0 4 1;
#X connect 10 0 6 0;
#X connect 10 1 9 1;
#X connect 12 0 4 0;
#X connect 12 1 2 0;
