#N canvas 2 54 1916 1000 12;
#X obj 115 6 inlet list;
#X obj 99 95 list-dripslow;
#X obj 17 119 t b b;
#X obj 49 164 outlet;
#X obj 35 6 inlet;
#X obj 17 143 delay, f 11;
#X obj 99 119 t f f;
#X obj 219 95 list store;
#X obj 187 118 t b b;
#X obj 187 55 list-abs;
#X obj 17 72 f;
#X obj 115 30 t b l;
#X obj 35 30 sel 1;
#X obj 17 95 metro 1000;
#X connect 0 0 11 0;
#X connect 1 0 6 0;
#X connect 1 1 8 0;
#X connect 2 0 5 0;
#X connect 2 1 3 0;
#X connect 4 0 10 1;
#X connect 4 0 12 0;
#X connect 5 0 1 0;
#X connect 6 0 13 1;
#X connect 6 1 5 1;
#X connect 7 0 1 1;
#X connect 8 0 1 0;
#X connect 8 1 7 0;
#X connect 9 0 7 1;
#X connect 9 0 1 1;
#X connect 10 0 13 0;
#X connect 11 0 10 0;
#X connect 11 1 9 0;
#X connect 12 0 10 0;
#X connect 13 0 2 0;
