#N canvas 962 54 636 1000 12;
#X obj 22 20 inlet;
#X obj 49 299 makenote;
#X obj 22 71 unpack f f f f f;
#X obj 22 45 list split 5;
#X text 146 67 Timbre \, pitch \, dur \, legato \, amp.;
#X obj 102 124 *;
#X floatatom 217 45 5 0 0 0 - - - 0;
#X obj 217 20 inlet offset;
#X obj 49 324 noteout;
#X obj 102 209 expr $f1+$f2;
#X obj 102 149 t f b;
#X obj 136 175 drunk 5000 1000;
#X obj 131 97 map 0 100 10 80;
#X obj 49 246 map 0 127 21 108;
#X connect 0 0 3 0;
#X connect 1 0 8 0;
#X connect 1 1 8 1;
#X connect 2 1 13 0;
#X connect 2 2 5 0;
#X connect 2 3 5 1;
#X connect 2 4 12 0;
#X connect 3 0 2 0;
#X connect 5 0 10 0;
#X connect 6 0 12 1;
#X connect 7 0 6 0;
#X connect 9 0 1 2;
#X connect 10 0 9 0;
#X connect 10 1 11 0;
#X connect 11 0 9 1;
#X connect 12 0 1 1;
#X connect 13 0 1 0;
