#N canvas 960 22 956 1000 12;
#X obj 16 257 *~;
#X obj 91 257 *~;
#X obj 16 13 inlet~;
#X obj 109 85 * -1;
#X obj 109 109 + 1;
#X obj 109 61 abs;
#X obj 16 283 outlet~;
#X obj 91 283 outlet~;
#X obj 34 148 pack f f;
#X obj 109 149 pack f f;
#X obj 34 232 osc~;
#X obj 109 232 osc~;
#X obj 315 13 inlet event;
#X obj 109 37 / 100;
#X obj 315 64 unpack f f f f f, f 17;
#X obj 315 37 list split 5;
#X obj 315 88 bang;
#X obj 109 12 else/drunkard -p 75 10 0 100;
#X obj 176 176 metro 100;
#X obj 176 149 r \$0-start;
#X obj 34 173 line~;
#X obj 34 208 snapshot~;
#X obj 109 174 line~;
#X obj 109 208 snapshot~;
#X connect 0 0 6 0;
#X connect 1 0 7 0;
#X connect 2 0 0 0;
#X connect 2 0 1 0;
#X connect 3 0 4 0;
#X connect 4 0 9 0;
#X connect 5 0 8 0;
#X connect 5 0 3 0;
#X connect 8 0 20 0;
#X connect 9 0 22 0;
#X connect 10 0 0 1;
#X connect 11 0 1 1;
#X connect 12 0 15 0;
#X connect 13 0 5 0;
#X connect 14 0 16 0;
#X connect 14 2 8 1;
#X connect 14 2 9 1;
#X connect 15 0 14 0;
#X connect 16 0 17 0;
#X connect 17 0 13 0;
#X connect 18 0 21 0;
#X connect 18 0 23 0;
#X connect 19 0 18 0;
#X connect 20 0 21 0;
#X connect 21 0 10 0;
#X connect 22 0 23 0;
#X connect 23 0 11 0;
