#N canvas 1280 32 640 1024 12;
#X obj 11 18 inlet list;
#X obj 11 118 list-idx;
#X obj 64 94 random;
#X obj 64 46 list length;
#X obj 64 71 t b f;
#X obj 11 46 t l l;
#X obj 11 143 outlet;
#X connect 0 0 5 0;
#X connect 1 0 6 0;
#X connect 2 0 1 1;
#X connect 3 0 4 0;
#X connect 4 0 2 0;
#X connect 4 1 2 1;
#X connect 5 0 1 0;
#X connect 5 1 3 0;
