#N canvas 1154 54 380 1000 12;
#X obj 181 273 outlet~;
#X obj 102 14 inlet frequency;
#X obj 12 14 inlet timbre;
#X obj 213 14 inlet~ modulator;
#N canvas 1538 54 380 1000 sine 0;
#X obj 56 16 inlet status;
#X obj 7 125 osc~;
#X obj 7 199 *~;
#X obj 7 223 outlet~;
#X obj 7 16 inlet~;
#X obj 56 41 < 6;
#X connect 0 0 5 0;
#X connect 1 0 2 0;
#X connect 2 0 3 0;
#X connect 4 0 1 0;
#X connect 5 0 2 1;
#X restore 67 165 pd sine;
#N canvas 1538 54 380 1000 saw 0;
#X obj 88 16 inlet status;
#X obj 7 140 outlet~;
#X obj 7 43 phasor~;
#X obj 7 67 *~ 2;
#X obj 7 91 -~ 1;
#X obj 7 115 *~;
#X obj 7 16 inlet~;
#X obj 88 41 == 6;
#X connect 0 0 7 0;
#X connect 2 0 3 0;
#X connect 3 0 4 0;
#X connect 4 0 5 0;
#X connect 5 0 1 0;
#X connect 6 0 2 0;
#X connect 7 0 5 1;
#X restore 128 165 pd saw;
#N canvas 1538 54 380 1000 triangle 0;
#X obj 88 16 inlet status;
#X obj 7 319 outlet~;
#X obj 7 143 phasor~;
#X obj 7 167 *~ 2;
#X obj 7 191 -~ 1;
#X obj 125 95 loadbang;
#X msg 125 119 0;
#X obj 79 144 phasor~;
#X obj 79 168 *~ 2;
#X obj 79 192 -~ 1;
#X obj 7 215 clip~ 0 1;
#X obj 79 215 clip~ 0 1;
#X obj 7 239 +~;
#X obj 7 293 *~;
#X obj 7 16 inlet~;
#X obj 7 264 /~ 2;
#X obj 88 41 == 7;
#X connect 0 0 16 0;
#X connect 2 0 3 0;
#X connect 3 0 4 0;
#X connect 4 0 10 0;
#X connect 5 0 6 0;
#X connect 6 0 7 1;
#X connect 6 0 2 1;
#X connect 7 0 8 0;
#X connect 8 0 9 0;
#X connect 9 0 11 0;
#X connect 10 0 12 0;
#X connect 11 0 12 1;
#X connect 12 0 15 0;
#X connect 13 0 1 0;
#X connect 14 0 2 0;
#X connect 14 0 7 0;
#X connect 15 0 13 0;
#X connect 16 0 13 1;
#X restore 181 165 pd triangle;
#N canvas 1538 54 380 1000 square 0;
#X obj 88 16 inlet status;
#X obj 7 275 outlet~;
#X obj 7 148 phasor~;
#X obj 79 148 phasor~;
#X msg 53 123 0;
#X msg 125 124 0.5;
#X obj 7 173 +~;
#X obj 7 198 -~ 1;
#X obj 7 249 *~;
#X obj 53 99 loadbang;
#X obj 7 16 inlet~;
#X obj 7 223 /~ 2;
#X obj 88 41 == 8;
#X connect 0 0 12 0;
#X connect 2 0 6 0;
#X connect 3 0 6 1;
#X connect 4 0 2 1;
#X connect 5 0 3 1;
#X connect 6 0 7 0;
#X connect 7 0 11 0;
#X connect 8 0 1 0;
#X connect 9 0 5 0;
#X connect 9 0 4 0;
#X connect 10 0 2 0;
#X connect 10 0 3 0;
#X connect 11 0 8 0;
#X connect 12 0 8 1;
#X restore 264 165 pd square;
#N canvas 1538 54 380 1000 pulse 1;
#X obj 20 44 phasor~;
#X obj 20 69 -~ 0.99;
#X obj 20 94 clip~ 0 1;
#X obj 20 144 *~;
#X obj 20 168 outlet~;
#X obj 98 15 inlet status;
#X obj 20 119 *~ 100;
#X obj 20 15 inlet~;
#X obj 98 40 == 9;
#X connect 0 0 1 0;
#X connect 1 0 2 0;
#X connect 2 0 6 0;
#X connect 3 0 4 0;
#X connect 5 0 8 0;
#X connect 6 0 3 0;
#X connect 7 0 0 0;
#X connect 8 0 3 1;
#X restore 334 165 pd pulse;
#X obj 181 69 +~, f 5;
#X connect 1 0 9 0;
#X connect 2 0 4 1;
#X connect 2 0 8 1;
#X connect 2 0 7 1;
#X connect 2 0 6 1;
#X connect 2 0 5 1;
#X connect 3 0 9 1;
#X connect 4 0 0 0;
#X connect 5 0 0 0;
#X connect 6 0 0 0;
#X connect 7 0 0 0;
#X connect 8 0 0 0;
#X connect 9 0 4 0;
#X connect 9 0 5 0;
#X connect 9 0 6 0;
#X connect 9 0 8 0;
#X connect 9 0 7 0;
