#N canvas 1280 32 640 1024 12;
#X obj 38 25 inlet;
#X obj 38 50 t b;
#X obj 38 125 outlet;
#X obj 110 49 loadbang;
#X msg 110 74 1;
#X obj 38 75 random 12;
#X obj 38 100 array get, f 21;
#X obj 182 24 inlet msg;
#X connect 0 0 1 0;
#X connect 1 0 5 0;
#X connect 3 0 4 0;
#X connect 4 0 6 1;
#X connect 5 0 6 0;
#X connect 6 0 2 0;
#X connect 7 0 6 2;
