#N struct 1143-f float x;
#N struct 1166-f float x;
#N struct 1175-f float x;
#N struct 1198-f float x;
#N struct 1342-f float x;
#N struct 1344-f float x;
#N canvas 1282 54 636 1000 12;
#X obj 2 9 inlet;
#X obj 180 9 inlet pc_set;
#X obj 274 9 inlet octaves;
#X obj 614 9 inlet \$0-figures;
#N canvas 0 32 1920 1024 pitch 0;
#X obj 214 7 inlet pc_set;
#X obj 12 8 inlet bang;
#X obj 126 56 list store, f 13;
#X obj 94 7 inlet bang;
#X obj 287 229 outlet;
#N canvas 960 32 960 1024 same 0;
#X obj 10 15 inlet bang;
#X obj 89 15 inlet list;
#X obj 10 41 list store;
#X obj 10 67 random-list;
#X obj 10 93 outlet pc;
#X connect 0 0 2 0;
#X connect 1 0 2 1;
#X connect 2 0 3 0;
#X connect 3 0 4 0;
#X restore 5 138 pd same;
#N canvas 960 32 960 1024 mult 0;
#X obj 22 34 inlet bang;
#X obj 121 34 inlet list;
#X obj 22 106 list store;
#X obj 22 155 outlet list;
#X obj 121 58 t l b, f 12;
#X obj 206 81 random 12;
#X obj 121 106 list-map;
#X obj 188 130 % 12;
#X obj 22 130 random-list;
#X obj 188 106 *;
#X connect 0 0 2 0;
#X connect 1 0 4 0;
#X connect 2 0 8 0;
#X connect 4 0 6 0;
#X connect 4 1 5 0;
#X connect 5 0 9 1;
#X connect 6 0 2 1;
#X connect 6 1 9 0;
#X connect 7 0 6 1;
#X connect 8 0 3 0;
#X connect 9 0 7 0;
#X restore 231 138 pd mult;
#X obj 94 31 t b b;
#X obj 12 89 f;
#N canvas 960 32 960 1024 asc 0;
#X obj 10 15 inlet bang;
#X obj 89 15 inlet list;
#X obj 10 49 list store;
#X obj 10 173 outlet list;
#X obj 10 147 list-idx;
#X obj 89 49 list length;
#X obj 63 74 f 0;
#X obj 63 98 + 1;
#X obj 63 122 %;
#X obj 10 73 t l b;
#X connect 0 0 2 0;
#X connect 1 0 2 1;
#X connect 1 0 5 0;
#X connect 2 0 9 0;
#X connect 4 0 3 0;
#X connect 5 0 8 1;
#X connect 6 0 7 0;
#X connect 7 0 8 0;
#X connect 8 0 6 1;
#X connect 8 0 4 1;
#X connect 9 0 4 0;
#X connect 9 1 6 0;
#X restore 61 138 pd asc;
#N canvas 960 32 960 1024 desc 0;
#X obj 19 19 inlet bang;
#X obj 104 19 inlet list;
#X obj 19 73 list store;
#X obj 19 197 outlet list;
#X obj 19 171 list-idx;
#X obj 104 146 list length;
#X obj 72 98 f 0;
#X obj 72 122 + 1;
#X obj 72 146 %;
#X obj 19 97 t l b;
#X obj 86 47 list-sort desc;
#X connect 0 0 2 0;
#X connect 1 0 5 0;
#X connect 1 0 10 0;
#X connect 2 0 9 0;
#X connect 4 0 3 0;
#X connect 5 0 8 1;
#X connect 6 0 7 0;
#X connect 7 0 8 0;
#X connect 8 0 6 1;
#X connect 8 0 4 1;
#X connect 9 0 4 0;
#X connect 9 1 6 0;
#X connect 10 0 2 1;
#X restore 118 138 pd desc;
#N canvas 960 32 960 1024 tran 0;
#X obj 10 15 inlet bang;
#X obj 109 15 inlet list;
#X obj 10 87 list store;
#X obj 10 136 outlet list;
#X obj 109 39 t l b, f 12;
#X obj 194 62 random 12;
#X obj 109 87 list-map;
#X obj 176 87 +;
#X obj 176 111 % 12;
#X obj 10 111 random-list;
#X connect 0 0 2 0;
#X connect 1 0 4 0;
#X connect 2 0 9 0;
#X connect 4 0 6 0;
#X connect 4 1 5 0;
#X connect 5 0 7 1;
#X connect 6 0 2 1;
#X connect 6 1 7 0;
#X connect 7 0 8 0;
#X connect 8 0 6 1;
#X connect 9 0 3 0;
#X restore 174 138 pd tran;
#X obj 5 114 sel 0 1 2 3 4 5 6 7 8 9, f 81;
#N canvas 1280 32 640 1024 comp 0;
#X obj 10 15 inlet bang;
#X obj 135 15 inlet list;
#X obj 10 41 list store;
#X obj 10 67 random-list;
#X obj 10 93 outlet pc;
#X obj 135 115 list-sieve;
#X msg 135 67 0 1 2 3 4 5 6 7 8 9 10 11;
#X obj 135 91 list-drip;
#X obj 269 92 list length;
#X obj 269 116 expr abs(($f1 - 12));
#X obj 135 41 t b l l, f 20;
#X obj 202 141 list-lastx;
#X connect 0 0 2 0;
#X connect 1 0 10 0;
#X connect 2 0 3 0;
#X connect 3 0 4 0;
#X connect 5 1 11 0;
#X connect 6 0 7 0;
#X connect 7 0 5 0;
#X connect 8 0 9 0;
#X connect 9 0 11 1;
#X connect 10 0 6 0;
#X connect 10 1 5 1;
#X connect 10 2 8 0;
#X connect 11 0 2 1;
#X restore 287 138 pd comp;
#X obj 5 60 random 10;
#N canvas 960 32 960 1024 casc 0;
#X obj 10 15 inlet bang;
#X obj 89 15 inlet list;
#X obj 10 219 list store;
#X obj 10 343 outlet list;
#X obj 10 317 list-idx;
#X obj 94 292 list length;
#X obj 63 244 f 0;
#X obj 63 268 + 1;
#X obj 63 292 %;
#X obj 10 243 t l b;
#X obj 89 114 list-sieve;
#X msg 89 66 0 1 2 3 4 5 6 7 8 9 10 11;
#X obj 89 90 list-drip;
#X obj 223 91 list length;
#X obj 223 115 expr abs(($f1 - 12));
#X obj 89 40 t b l l, f 19;
#X obj 156 140 list-lastx;
#X obj 156 163 t l l;
#X obj 77 197 list-sort asc;
#X connect 0 0 2 0;
#X connect 1 0 15 0;
#X connect 2 0 9 0;
#X connect 4 0 3 0;
#X connect 5 0 8 1;
#X connect 6 0 7 0;
#X connect 7 0 8 0;
#X connect 8 0 6 1;
#X connect 8 0 4 1;
#X connect 9 0 4 0;
#X connect 9 1 6 0;
#X connect 10 1 16 0;
#X connect 11 0 12 0;
#X connect 12 0 10 0;
#X connect 13 0 14 0;
#X connect 14 0 16 1;
#X connect 15 0 11 0;
#X connect 15 1 10 1;
#X connect 15 2 13 0;
#X connect 16 0 17 0;
#X connect 17 0 18 0;
#X connect 17 1 5 0;
#X connect 18 0 2 1;
#X restore 343 138 pd casc;
#N canvas 1280 32 640 1024 cdes 0;
#X obj 10 15 inlet bang;
#X obj 89 15 inlet list;
#X obj 10 219 list store;
#X obj 10 343 outlet list;
#X obj 10 317 list-idx;
#X obj 94 292 list length;
#X obj 63 244 f 0;
#X obj 63 268 + 1;
#X obj 63 292 %;
#X obj 10 243 t l b;
#X obj 89 114 list-sieve;
#X msg 89 66 0 1 2 3 4 5 6 7 8 9 10 11;
#X obj 89 90 list-drip;
#X obj 223 91 list length;
#X obj 223 115 expr abs(($f1 - 12));
#X obj 89 40 t b l l, f 19;
#X obj 156 140 list-lastx;
#X obj 156 163 t l l;
#X obj 77 197 list-sort desc;
#X connect 0 0 2 0;
#X connect 1 0 15 0;
#X connect 2 0 9 0;
#X connect 4 0 3 0;
#X connect 5 0 8 1;
#X connect 6 0 7 0;
#X connect 7 0 8 0;
#X connect 8 0 6 1;
#X connect 8 0 4 1;
#X connect 9 0 4 0;
#X connect 9 1 6 0;
#X connect 10 1 16 0;
#X connect 11 0 12 0;
#X connect 12 0 10 0;
#X connect 13 0 14 0;
#X connect 14 0 16 1;
#X connect 15 0 11 0;
#X connect 15 1 10 1;
#X connect 15 2 13 0;
#X connect 16 0 17 0;
#X connect 17 0 18 0;
#X connect 17 1 5 0;
#X connect 18 0 2 1;
#X restore 399 138 pd cdes;
#N canvas 1280 32 640 1024 ctra 0;
#X obj 10 6 inlet bang;
#X obj 89 6 inlet list;
#X obj 89 105 list-sieve;
#X msg 89 57 0 1 2 3 4 5 6 7 8 9 10 11;
#X obj 89 81 list-drip;
#X obj 223 82 list length;
#X obj 223 106 expr abs(($f1 - 12));
#X obj 89 31 t b l l, f 19;
#X obj 156 131 list-lastx;
#X obj 10 220 list store;
#X obj 10 269 outlet list;
#X obj 162 171 random 12;
#X obj 77 196 list-map;
#X obj 144 196 +;
#X obj 144 220 % 12;
#X obj 10 244 random-list;
#X obj 77 162 t l b;
#X connect 0 0 9 0;
#X connect 1 0 7 0;
#X connect 2 1 8 0;
#X connect 3 0 4 0;
#X connect 4 0 2 0;
#X connect 5 0 6 0;
#X connect 6 0 8 1;
#X connect 7 0 3 0;
#X connect 7 1 2 1;
#X connect 7 2 5 0;
#X connect 8 0 16 0;
#X connect 9 0 15 0;
#X connect 11 0 13 1;
#X connect 12 0 9 1;
#X connect 12 1 13 0;
#X connect 13 0 14 0;
#X connect 14 0 12 1;
#X connect 15 0 10 0;
#X connect 16 0 12 0;
#X connect 16 1 11 0;
#X restore 456 138 pd ctra;
#N canvas 1280 32 640 1024 cmul 0;
#X obj 22 18 inlet bang;
#X obj 101 18 inlet list;
#X obj 101 117 list-sieve;
#X msg 101 69 0 1 2 3 4 5 6 7 8 9 10 11;
#X obj 101 93 list-drip;
#X obj 235 94 list length;
#X obj 235 118 expr abs(($f1 - 12));
#X obj 101 43 t b l l, f 19;
#X obj 168 143 list-lastx;
#X obj 22 232 list store;
#X obj 22 281 outlet list;
#X obj 174 183 random 12;
#X obj 89 208 list-map;
#X obj 156 232 % 12;
#X obj 22 256 random-list;
#X obj 89 174 t l b;
#X obj 156 208 *;
#X connect 0 0 9 0;
#X connect 1 0 7 0;
#X connect 2 1 8 0;
#X connect 3 0 4 0;
#X connect 4 0 2 0;
#X connect 5 0 6 0;
#X connect 6 0 8 1;
#X connect 7 0 3 0;
#X connect 7 1 2 1;
#X connect 7 2 5 0;
#X connect 8 0 15 0;
#X connect 9 0 14 0;
#X connect 11 0 16 1;
#X connect 12 0 9 1;
#X connect 12 1 16 0;
#X connect 13 0 12 1;
#X connect 14 0 10 0;
#X connect 15 0 12 0;
#X connect 15 1 11 0;
#X connect 16 0 13 0;
#X restore 513 138 pd cmul;
#X connect 0 0 2 1;
#X connect 1 0 8 0;
#X connect 2 0 5 1;
#X connect 2 0 11 1;
#X connect 2 0 9 1;
#X connect 2 0 6 1;
#X connect 2 0 10 1;
#X connect 2 0 13 1;
#X connect 2 0 16 1;
#X connect 2 0 15 1;
#X connect 2 0 17 1;
#X connect 2 0 18 1;
#X connect 3 0 7 0;
#X connect 5 0 4 0;
#X connect 6 0 4 0;
#X connect 7 0 14 0;
#X connect 7 1 2 0;
#X connect 8 0 12 0;
#X connect 9 0 4 0;
#X connect 10 0 4 0;
#X connect 11 0 4 0;
#X connect 12 0 5 0;
#X connect 12 1 9 0;
#X connect 12 2 10 0;
#X connect 12 3 11 0;
#X connect 12 4 6 0;
#X connect 12 5 13 0;
#X connect 12 6 15 0;
#X connect 12 7 16 0;
#X connect 12 8 17 0;
#X connect 12 9 18 0;
#X connect 13 0 4 0;
#X connect 14 0 8 1;
#X connect 14 0 12 0;
#X connect 15 0 4 0;
#X connect 16 0 4 0;
#X connect 17 0 4 0;
#X connect 18 0 4 0;
#X restore 128 252 pd pitch;
#X obj 25 189 metroplus;
#X obj 154 146 list store;
#X obj 186 99 list-sum;
#X obj 154 122 metro;
#X msg 154 99 1;
#X obj 154 76 loadbang;
#X msg 25 163 start;
#X obj 25 140 loadbang;
#N canvas 960 32 960 1024 octave 0;
#X obj 16 10 inlet pc;
#X obj 16 194 expr $f1+(($f2+1)*12);
#X obj 16 218 outlet;
#X obj 273 13 inlet oct_spread;
#X obj 160 108 list-sort desc;
#X obj 160 134 list-nth;
#X obj 212 82 random;
#X obj 160 13 inlet oct_prob;
#X obj 160 159 list-find;
#X obj 160 39 t l b l, f 9;
#X connect 0 0 1 0;
#X connect 1 0 2 0;
#X connect 3 0 6 1;
#X connect 4 0 5 0;
#X connect 5 0 8 0;
#X connect 6 0 5 1;
#X connect 7 0 9 0;
#X connect 8 0 1 1;
#X connect 9 0 4 0;
#X connect 9 1 6 0;
#X connect 9 2 8 1;
#X restore 128 286 pd octave;
#X f 42;
#X obj 25 279 f;
#X obj 202 316 list-dripslow;
#X obj 232 354 f;
#X obj 128 340 list append;
#X obj 128 374 list append;
#X obj 25 303 list append;
#X obj 25 448 outlet;
#X obj 25 423 spigot;
#X obj 732 9 inlet legato_mean;
#X obj 371 9 inlet octave_spread;
#X obj 154 169 t b l l;
#N canvas 960 32 960 1024 timbre 0;
#X obj 33 23 inlet list;
#X obj 131 23 inlet bang;
#X obj 36 177 list store;
#X obj 36 203 list-mean;
#X obj 36 228 moses 0.5;
#X obj 36 252 bang;
#X obj 96 252 bang;
#X obj 36 279 expr random(0 \, 3);
#X obj 131 48 f 0;
#X obj 131 73 + 1;
#X obj 131 98 %;
#X obj 131 123 sel 0;
#X obj 36 347 outlet;
#X obj 235 23 inlet figures;
#X obj 235 51 list-mean;
#X obj 97 309 expr random(3 \, 7);
#X obj 235 78 expr if($f1 < 400 \, 30 \, rint(1000 / ($f1/12.)));
#X connect 0 0 2 1;
#X connect 1 0 8 0;
#X connect 2 0 3 0;
#X connect 3 0 4 0;
#X connect 4 0 5 0;
#X connect 4 1 6 0;
#X connect 5 0 7 0;
#X connect 6 0 15 0;
#X connect 7 0 12 0;
#X connect 8 0 9 0;
#X connect 9 0 10 0;
#X connect 10 0 8 1;
#X connect 10 0 11 0;
#X connect 11 0 2 0;
#X connect 13 0 14 0;
#X connect 14 0 16 0;
#X connect 15 0 12 0;
#X connect 16 0 10 1;
#X restore 43 73 pd timbre;
#X obj 25 213 t b b b b b, f 30;
#X obj 522 54 t l l;
#X text 75 441 timbre \, pitch \, dur \, rms;
#X obj 857 9 inlet rms_mean;
#X obj 510 9 inlet last_dur;
#X obj 43 9 inlet atk_type;
#N canvas 0 32 1920 1024 rhythm 0;
#X obj 82 11 inlet figures;
#N canvas 960 32 960 1024 same 0;
#X obj 10 15 inlet bang;
#X obj 89 15 inlet list;
#X obj 10 49 list store;
#X obj 10 73 outlet list;
#X connect 0 0 2 0;
#X connect 1 0 2 1;
#X connect 2 0 3 0;
#X restore 8 154 pd same;
#X obj 8 82 t b l, f 55;
#X obj 236 218 outlet list;
#N canvas 960 32 960 1024 shuf 0;
#X obj 10 15 inlet bang;
#X obj 156 16 inlet list;
#X obj 10 455 list store;
#X obj 10 479 outlet list;
#X obj 89 305 list-swap;
#X obj 89 329 list-swap;
#X obj 89 353 list-swap;
#X obj 89 377 list-swap;
#X obj 89 401 list-swap;
#X obj 89 425 list-swap;
#X obj 89 175 t l b b;
#X obj 112 200 list-random 12 6;
#X obj 149 256 list-random 12 6;
#X obj 149 280 unpack f f f f f f;
#X obj 112 224 unpack f f f f f f;
#X obj 89 100 list-drip;
#X obj 89 125 list-lastx 12;
#X obj 10 40 t b b;
#X obj 89 75 list store;
#X obj 89 151 list store;
#X connect 0 0 17 0;
#X connect 1 0 18 1;
#X connect 2 0 3 0;
#X connect 4 0 5 0;
#X connect 5 0 6 0;
#X connect 6 0 7 0;
#X connect 7 0 8 0;
#X connect 8 0 9 0;
#X connect 9 0 2 1;
#X connect 10 0 4 0;
#X connect 10 1 11 0;
#X connect 10 2 12 0;
#X connect 11 0 14 0;
#X connect 12 0 13 0;
#X connect 13 0 4 2;
#X connect 13 1 5 2;
#X connect 13 2 6 2;
#X connect 13 3 7 2;
#X connect 13 4 8 2;
#X connect 13 5 9 2;
#X connect 14 0 4 1;
#X connect 14 1 5 1;
#X connect 14 2 6 1;
#X connect 14 3 7 1;
#X connect 14 4 8 1;
#X connect 14 5 9 1;
#X connect 15 0 16 0;
#X connect 15 1 19 0;
#X connect 16 0 19 1;
#X connect 17 0 2 0;
#X connect 17 1 18 0;
#X connect 18 0 15 0;
#X connect 19 0 10 0;
#X restore 179 154 pd shuf;
#N canvas 960 32 960 1024 add 0;
#X obj 10 15 inlet bang;
#X obj 144 15 inlet list;
#X obj 10 199 list store;
#X obj 10 223 outlet list;
#X obj 77 173 list-insert;
#X obj 77 122 list-minmax;
#X obj 114 149 expr random(0 \, $f2);
#X obj 244 124 list length;
#X obj 77 98 t l b l l;
#X obj 10 40 t b b;
#X obj 77 74 list store;
#X connect 0 0 9 0;
#X connect 1 0 10 1;
#X connect 2 0 3 0;
#X connect 4 0 2 1;
#X connect 5 0 4 0;
#X connect 6 0 4 1;
#X connect 7 0 6 1;
#X connect 8 0 5 0;
#X connect 8 1 6 0;
#X connect 8 2 4 2;
#X connect 8 3 7 0;
#X connect 9 0 2 0;
#X connect 9 1 10 0;
#X connect 10 0 8 0;
#X restore 294 154 pd add;
#N canvas 960 32 960 1024 ost 0;
#X obj 10 15 inlet bang;
#X obj 174 15 inlet list;
#X obj 10 369 list store;
#X obj 10 393 outlet list;
#X obj 184 224 list-mean;
#X obj 21 185 list-minmax;
#X obj 107 254 f;
#X obj 137 254 f;
#X obj 166 254 f;
#X obj 107 161 random 3;
#X obj 107 185 sel 0 1 2;
#X obj 137 320 list-value;
#X obj 107 128 t b l l;
#X obj 204 157 list length;
#X obj 137 292 t b f;
#X obj 10 40 t b b;
#X obj 107 101 list store;
#X connect 0 0 15 0;
#X connect 1 0 16 1;
#X connect 2 0 3 0;
#X connect 4 0 8 1;
#X connect 5 0 6 1;
#X connect 5 1 7 1;
#X connect 6 0 14 0;
#X connect 7 0 14 0;
#X connect 8 0 14 0;
#X connect 9 0 10 0;
#X connect 10 0 6 0;
#X connect 10 1 7 0;
#X connect 10 2 8 0;
#X connect 11 0 2 1;
#X connect 12 0 9 0;
#X connect 12 1 4 0;
#X connect 12 1 5 0;
#X connect 12 2 13 0;
#X connect 13 0 11 2;
#X connect 14 0 11 0;
#X connect 14 1 11 1;
#X connect 15 0 2 0;
#X connect 15 1 16 0;
#X connect 16 0 12 0;
#X restore 351 154 pd ost;
#N canvas 640 32 640 1024 rand 0;
#X obj 10 15 inlet bang;
#X obj 144 15 inlet list;
#X obj 10 239 list store;
#X obj 10 263 outlet list;
#X obj 77 189 list-random;
#X obj 114 156 list-minmax;
#X obj 151 130 list length;
#X obj 77 215 list-map;
#X obj 77 100 t b l l, f 11;
#X obj 10 40 t b b;
#X obj 77 74 list store;
#X obj 148 215 expr if($f1 < $f2 \, $f1+$f2 \, $f1);
#X connect 0 0 9 0;
#X connect 1 0 10 1;
#X connect 2 0 3 0;
#X connect 4 0 7 0;
#X connect 5 0 11 1;
#X connect 5 1 4 1;
#X connect 6 0 4 2;
#X connect 7 0 2 1;
#X connect 7 1 11 0;
#X connect 8 0 4 0;
#X connect 8 1 5 0;
#X connect 8 2 6 0;
#X connect 9 0 2 0;
#X connect 9 1 10 0;
#X connect 10 0 8 0;
#X connect 11 0 7 1;
#X restore 521 154 pd rand;
#N canvas 960 32 960 1024 mult 0;
#X obj 10 15 inlet bang;
#X obj 144 15 inlet list;
#X obj 10 209 list store;
#X obj 10 233 outlet list;
#X obj 77 109 t l b;
#X obj 141 185 expr $f1*(pow(2 \, $f2 / 12));
#X obj 77 185 list-map;
#X obj 141 209 expr rint($f1);
#X obj 109 133 expr random(1 \, 25) - 12;
#X obj 10 40 t b b;
#X obj 77 76 list store;
#X connect 0 0 9 0;
#X connect 1 0 10 1;
#X connect 2 0 3 0;
#X connect 4 0 6 0;
#X connect 4 1 8 0;
#X connect 5 0 7 0;
#X connect 6 0 2 1;
#X connect 6 1 5 0;
#X connect 7 0 6 1;
#X connect 8 0 5 1;
#X connect 9 0 2 0;
#X connect 9 1 10 0;
#X connect 10 0 4 0;
#X restore 236 154 pd mult;
#X obj 180 11 inlet legato_mean;
#X obj 8 58 list-map;
#X obj 148 58 *, f 5;
#N canvas 960 32 960 1024 resize 0;
#X obj 105 49 list-mean;
#X obj 105 14 inlet figures;
#X obj 18 211 list-extend;
#X obj 92 111 list length;
#X obj 92 185 list store;
#X obj 92 159 sel 1;
#X obj 159 136 list-drip;
#X obj 287 141 r \$0-start;
#X obj 287 191 list-map;
#X obj 355 191 + 10;
#X obj 105 74 expr if($f1 < 400 \, 30 \, rint(1000 / ($f1/12.)));
#X obj 159 161 list-lastx 30;
#X obj 287 167 list-random 1000 30;
#X obj 18 14 inlet dur;
#X obj 92 136 >= 60;
#X obj 18 235 list-drip;
#X obj 18 260 list-lastx 12;
#X obj 18 287 list store;
#X obj 18 312 outlet list;
#X connect 0 0 10 0;
#X connect 1 0 0 0;
#X connect 2 0 3 0;
#X connect 2 0 6 0;
#X connect 2 0 15 0;
#X connect 3 0 14 0;
#X connect 4 0 2 1;
#X connect 5 0 4 0;
#X connect 6 0 11 0;
#X connect 7 0 12 0;
#X connect 8 0 2 1;
#X connect 8 0 6 0;
#X connect 8 1 9 0;
#X connect 9 0 8 1;
#X connect 10 0 16 1;
#X connect 11 0 4 1;
#X connect 12 0 8 0;
#X connect 13 0 2 0;
#X connect 14 0 5 0;
#X connect 15 0 16 0;
#X connect 15 1 17 0;
#X connect 16 0 17 1;
#X connect 17 0 18 0;
#X restore 8 35 pd resize;
#X f 11;
#N canvas 960 32 960 1024 rot 0;
#X obj 10 15 inlet bang;
#X obj 144 15 inlet list;
#X obj 10 229 list store;
#X obj 10 253 outlet list;
#X obj 77 204 list-rot;
#X obj 77 102 t l l, f 8;
#X obj 130 127 list length;
#X obj 130 177 expr random(1 \, ($f2-1));
#X obj 130 151 t b l;
#X obj 10 40 t b b;
#X obj 77 74 list store;
#X connect 0 0 9 0;
#X connect 1 0 10 1;
#X connect 2 0 3 0;
#X connect 4 0 2 1;
#X connect 5 0 4 0;
#X connect 5 1 6 0;
#X connect 6 0 8 0;
#X connect 7 0 4 1;
#X connect 8 0 7 0;
#X connect 8 1 7 1;
#X connect 9 0 2 0;
#X connect 9 1 10 0;
#X connect 10 0 5 0;
#X restore 408 154 pd rot;
#X obj 8 130 sel 0 1 2 3 4 5 6 7 8 9, f 82;
#X obj 8 106 random 10;
#N canvas 640 32 640 1024 rev 0;
#X obj 10 15 inlet bang;
#X obj 144 15 inlet list;
#X obj 10 126 list store;
#X obj 10 150 outlet list;
#X obj 77 101 list-rev;
#X obj 10 40 t b b;
#X obj 77 76 list store;
#X connect 0 0 5 0;
#X connect 1 0 6 1;
#X connect 2 0 3 0;
#X connect 4 0 2 1;
#X connect 5 0 2 0;
#X connect 5 1 6 0;
#X connect 6 0 4 0;
#X restore 465 154 pd rev;
#X obj 8 11 inlet dur;
#N canvas 960 32 960 1024 acc 0;
#X obj 10 15 inlet bang;
#X obj 89 15 inlet list;
#X obj 10 129 list store;
#X obj 10 153 outlet list;
#X obj 10 40 t b b;
#X obj 77 77 list store;
#X obj 77 104 list-sort desc;
#X connect 0 0 4 0;
#X connect 1 0 5 1;
#X connect 2 0 3 0;
#X connect 4 0 2 0;
#X connect 4 1 5 0;
#X connect 5 0 6 0;
#X connect 6 0 2 1;
#X restore 65 154 pd acc;
#N canvas 960 32 960 1024 rall 0;
#X obj 10 15 inlet bang;
#X obj 89 15 inlet list;
#X obj 10 129 list store;
#X obj 10 153 outlet list;
#X obj 10 40 t b b;
#X obj 77 76 list store;
#X obj 77 100 list-sort asc;
#X connect 0 0 4 0;
#X connect 1 0 5 1;
#X connect 2 0 3 0;
#X connect 4 0 2 0;
#X connect 4 1 5 0;
#X connect 5 0 6 0;
#X connect 6 0 2 1;
#X restore 122 154 pd rall;
#X connect 0 0 12 1;
#X connect 1 0 3 0;
#X connect 2 0 15 0;
#X connect 2 1 1 1;
#X connect 2 1 18 1;
#X connect 2 1 19 1;
#X connect 2 1 8 1;
#X connect 2 1 5 1;
#X connect 2 1 4 1;
#X connect 2 1 6 1;
#X connect 2 1 7 1;
#X connect 2 1 13 1;
#X connect 2 1 16 1;
#X connect 4 0 3 0;
#X connect 5 0 3 0;
#X connect 6 0 3 0;
#X connect 7 0 3 0;
#X connect 8 0 3 0;
#X connect 9 0 11 1;
#X connect 10 0 2 0;
#X connect 10 1 11 0;
#X connect 11 0 10 1;
#X connect 12 0 10 0;
#X connect 13 0 3 0;
#X connect 14 0 1 0;
#X connect 14 1 18 0;
#X connect 14 2 19 0;
#X connect 14 3 4 0;
#X connect 14 4 8 0;
#X connect 14 5 5 0;
#X connect 14 6 6 0;
#X connect 14 7 13 0;
#X connect 14 8 16 0;
#X connect 14 9 7 0;
#X connect 15 0 14 0;
#X connect 16 0 3 0;
#X connect 17 0 12 0;
#X connect 18 0 3 0;
#X connect 19 0 3 0;
#X restore 510 96 pd rhythm;
#X f 13;
#X obj 2 364 > 0;
#X connect 0 0 33 0;
#X connect 1 0 4 2;
#X connect 2 0 13 1;
#X connect 3 0 27 0;
#X connect 4 0 13 0;
#X connect 5 0 26 0;
#X connect 6 0 24 0;
#X connect 7 0 8 1;
#X connect 8 0 6 0;
#X connect 9 0 8 0;
#X connect 10 0 9 0;
#X connect 11 0 5 0;
#X connect 12 0 11 0;
#X connect 13 0 17 0;
#X connect 14 0 19 0;
#X connect 15 0 17 1;
#X connect 16 0 18 1;
#X connect 17 0 18 0;
#X connect 18 0 19 1;
#X connect 19 0 21 0;
#X connect 21 0 20 0;
#X connect 22 0 32 2;
#X connect 23 0 13 2;
#X connect 24 0 4 1;
#X connect 24 1 5 1;
#X connect 24 1 15 1;
#X connect 24 2 7 0;
#X connect 25 0 14 1;
#X connect 26 0 14 0;
#X connect 26 1 25 1;
#X connect 26 2 4 0;
#X connect 26 3 15 0;
#X connect 26 4 16 0;
#X connect 27 1 25 2;
#X connect 27 1 32 1;
#X connect 29 0 16 1;
#X connect 30 0 32 0;
#X connect 31 0 25 0;
#X connect 32 0 6 1;
#X connect 33 0 21 1;
