#N canvas 1280 32 640 1024 12;
#N canvas 960 32 960 1024 snare 0;
#X obj 144 192 vline~;
#X obj 127 407 *~;
#X obj 98 271 cos~;
#X obj 116 109 t f f;
#X obj 98 241 *~;
#X obj 128 501 outlet~;
#X obj 182 481 switch~;
#X obj 182 433 env~;
#X obj 182 457 > 0.1;
#X msg 261 170 1;
#X obj 135 33 t b b b;
#X text 286 440 ajf;
#X obj 144 250 *~;
#X obj 127 384 cos~;
#X obj 65 451 s~ \$0-fb;
#X obj 32 273 r~ \$0-fb;
#X obj 81 322 +~;
#X obj 32 349 *~;
#X obj 145 275 *~;
#X obj 81 297 sig~ 5;
#X msg 154 83 6;
#X obj 116 135 /;
#X text 250 418 efficient snare drum;
#X obj 116 62 del 5;
#X obj 135 9 inlet bang;
#X msg 144 170 1 0 0 \, 0 \$1 3;
#X obj 116 86 f 90;
#X connect 0 0 4 0;
#X connect 0 0 12 0;
#X connect 0 0 12 1;
#X connect 1 0 5 0;
#X connect 1 0 7 0;
#X connect 1 0 14 0;
#X connect 2 0 16 1;
#X connect 3 0 21 0;
#X connect 3 1 25 0;
#X connect 4 0 2 0;
#X connect 7 0 8 0;
#X connect 8 0 6 0;
#X connect 9 0 6 0;
#X connect 10 0 23 0;
#X connect 10 1 20 0;
#X connect 10 2 9 0;
#X connect 12 0 18 0;
#X connect 12 0 18 1;
#X connect 13 0 1 0;
#X connect 15 0 17 0;
#X connect 16 0 17 1;
#X connect 17 0 13 0;
#X connect 18 0 1 1;
#X connect 19 0 16 0;
#X connect 20 0 21 1;
#X connect 21 0 4 1;
#X connect 23 0 26 0;
#X connect 24 0 10 0;
#X connect 25 0 0 0;
#X connect 26 0 3 0;
#X restore 89 68 pd snare;
#N canvas 1280 32 640 1024 hat 0;
#X obj 21 79 noise~;
#X obj 118 48 inlet;
#X obj 118 107 vline~;
#X obj 21 136 *~;
#X obj 21 158 outlet~;
#X obj 21 102 bp~ 15000 18;
#X msg 118 85 0.5 5 \, 0 50 5;
#X connect 0 0 5 0;
#X connect 1 0 6 0;
#X connect 2 0 3 1;
#X connect 3 0 4 0;
#X connect 5 0 3 0;
#X connect 6 0 2 0;
#X restore 154 68 pd hat;
#N canvas 1440 32 480 1024 ride 0;
#X obj 59 106 noise~;
#X obj 146 70 inlet;
#X obj 146 135 vline~;
#X obj 59 161 *~;
#X obj 59 183 outlet~;
#X obj 59 131 bp~ 5000 10;
#X msg 146 113 0.5 5 \, 0 300 5;
#X connect 0 0 5 0;
#X connect 1 0 6 0;
#X connect 2 0 3 1;
#X connect 3 0 4 0;
#X connect 5 0 3 0;
#X connect 6 0 2 0;
#X restore 208 68 pd ride;
#N canvas 960 32 960 1024 bumbo 0;
#X obj 257 130 noise~;
#X obj 36 189 *~;
#X obj 35 116 vline~;
#X obj 158 118 vline~;
#X obj 344 152 vline~;
#X obj 256 186 *~;
#X obj 36 240 +~;
#X obj 35 43 bng 15 250 50 0 empty empty empty 17 7 0 10 -262144 -1
-1;
#X msg 35 94 75 5 \, 50 150 5;
#X msg 344 130 3 5 \, 0 50 5;
#X obj 36 262 outlet~;
#X obj 35 20 inlet;
#X obj 35 164 osc~ 50;
#X msg 158 96 1 5 \, 0 300 5;
#X obj 256 153 bp~ 100 5;
#X connect 0 0 14 0;
#X connect 1 0 6 0;
#X connect 2 0 12 0;
#X connect 3 0 1 1;
#X connect 4 0 5 1;
#X connect 5 0 6 1;
#X connect 6 0 10 0;
#X connect 7 0 8 0;
#X connect 7 0 9 0;
#X connect 7 0 13 0;
#X connect 8 0 2 0;
#X connect 9 0 4 0;
#X connect 11 0 7 0;
#X connect 12 0 1 0;
#X connect 13 0 3 0;
#X connect 14 0 5 0;
#X restore 24 68 pd bumbo;
#X obj 96 119 output~;
#X connect 0 0 4 0;
#X connect 0 0 4 1;
#X connect 1 0 4 0;
#X connect 1 0 4 1;
#X connect 2 0 4 0;
#X connect 2 0 4 1;
#X connect 3 0 4 0;
#X connect 3 0 4 1;
