#N canvas 2 54 1916 1000 12;
#X obj 8 237 *~, f 24;
#X obj 175 129 bng 15 250 50 0 empty empty empty 17 7 0 10 -262144
-1 -1;
#X obj 8 7 inlet list;
#X obj 175 181 expr $f1 * $f2;
#X obj 519 7 inlet set_offset;
#X obj 519 95 dbtorms;
#X obj 8 356 outlet~;
#N canvas 962 54 956 1000 flat_env 0;
#X obj 11 13 inlet flatness_curve;
#X obj 11 88 t l l, f 16;
#N canvas 1282 54 636 1000 resize_interp 0;
#X obj 89 283 f;
#X obj 89 255 until;
#X obj 89 207 t b b;
#X obj 129 283 - 1;
#X obj 89 308 t f f;
#X msg 135 64 resize \$1;
#X obj 135 89 array define \$0-flat_env_in;
#X obj 8 10 inlet;
#X obj 89 12 inlet size;
#X obj 11 94 list store;
#X msg 89 231 99;
#X msg 134 255 98;
#X obj 201 190 loadbang;
#X msg 201 214 const 0;
#X obj 89 359 tabread4 \$0-flat_env_in;
#X obj 89 385 tabwrite \$0-flat_env_out;
#X obj 89 334 *;
#X obj 149 334 / 99;
#X obj 89 37 t b b f f;
#X obj 11 126 array set \$0-flat_env_in;
#X obj 201 239 array define \$0-flat_env_out 99;
#X text 201 126 Resizes an array containing the flatness curve to match
99 values and interpolate them with tabread4.;
#X connect 0 0 3 0;
#X connect 0 0 4 0;
#X connect 1 0 0 0;
#X connect 2 0 10 0;
#X connect 2 1 11 0;
#X connect 3 0 0 1;
#X connect 4 0 16 0;
#X connect 4 1 15 1;
#X connect 5 0 6 0;
#X connect 7 0 9 1;
#X connect 8 0 18 0;
#X connect 9 0 19 0;
#X connect 10 0 1 0;
#X connect 11 0 0 1;
#X connect 12 0 13 0;
#X connect 13 0 20 0;
#X connect 14 0 15 0;
#X connect 16 0 14 0;
#X connect 17 0 16 1;
#X connect 18 0 2 0;
#X connect 18 1 9 0;
#X connect 18 2 5 0;
#X connect 18 3 17 0;
#X restore 11 138 pd resize_interp;
#X obj 120 112 list length;
#X obj 11 38 list trim;
#X obj 11 63 route flat;
#X connect 0 0 4 0;
#X connect 1 0 2 0;
#X connect 1 1 3 0;
#X connect 3 0 2 1;
#X connect 4 0 5 0;
#X connect 5 0 1 0;
#X restore 48 56 pd flat_env;
#N canvas 1442 54 476 1000 add_noise 0;
#X obj 15 273 outlet~;
#X obj 15 56 noise~;
#X obj 112 11 inlet midi;
#X obj 112 36 mtof;
#X obj 15 108 *~;
#X obj 273 13 loadbang;
#X msg 273 37 1;
#X obj 188 60 vline~;
#X obj 188 84 tabread4~ \$0-flat_env_out 99;
#X obj 188 108 snapshot~;
#X msg 188 36 1 0 \, 99 \$1;
#X obj 273 181 vline~;
#X obj 273 208 snapshot~;
#X obj 15 188 *~;
#X obj 15 80 bp~ 100 10;
#X obj 273 59 metro 10;
#X obj 15 160 osc~;
#X msg 273 156 1 0 \, 0 \$1;
#X obj 15 132 *~ 0.001;
#X obj 15 241 hip~ 100;
#X obj 15 213 *~ 0.001;
#X obj 467 67 switch~;
#X obj 474 36 tgl 15 0 empty empty empty 17 7 0 10 -262144 -1 -1 0
1;
#X obj 188 11 inlet dur;
#X connect 1 0 14 0;
#X connect 2 0 3 0;
#X connect 3 0 14 1;
#X connect 4 0 18 0;
#X connect 5 0 6 0;
#X connect 6 0 15 0;
#X connect 7 0 8 0;
#X connect 8 0 9 0;
#X connect 9 0 4 1;
#X connect 10 0 7 0;
#X connect 11 0 12 0;
#X connect 12 0 13 1;
#X connect 13 0 20 0;
#X connect 14 0 4 0;
#X connect 15 0 9 0;
#X connect 15 0 12 0;
#X connect 16 0 13 0;
#X connect 17 0 11 0;
#X connect 18 0 16 0;
#X connect 19 0 0 0;
#X connect 20 0 19 0;
#X connect 22 0 21 0;
#X connect 23 0 10 0;
#X connect 23 0 17 0;
#X restore 20 207 pd add_noise;
#N canvas 642 54 636 1000 wave_generation 0;
#X obj 214 281 outlet~;
#X obj 113 16 inlet frequency;
#X obj 23 16 inlet timbre;
#X obj 23 41 change;
#X obj 453 134 outlet symbol;
#X obj 245 16 inlet~ modulator;
#N canvas 1282 54 636 1000 symbol 0;
#X obj 20 12 inlet;
#X msg 20 94 symbol sine;
#X msg 193 94 symbol triangle;
#X msg 112 94 symbol saw;
#X msg 314 94 symbol square;
#X obj 112 138 outlet;
#X msg 417 94 symbol pulse;
#X obj 20 37 sel 0 1 2 3 4 5 6 7 8 9, f 53;
#X connect 0 0 7 0;
#X connect 1 0 5 0;
#X connect 2 0 5 0;
#X connect 3 0 5 0;
#X connect 4 0 5 0;
#X connect 6 0 5 0;
#X connect 7 0 1 0;
#X connect 7 1 1 0;
#X connect 7 2 1 0;
#X connect 7 3 1 0;
#X connect 7 4 1 0;
#X connect 7 5 1 0;
#X connect 7 6 3 0;
#X connect 7 7 2 0;
#X connect 7 8 4 0;
#X connect 7 9 6 0;
#X restore 453 109 pd symbol;
#N canvas 1282 54 636 1000 sine 0;
#X obj 58 16 inlet status;
#X obj 7 45 osc~;
#X obj 7 119 *~;
#X obj 7 143 outlet~;
#X msg 58 79 1;
#X msg 93 79 0;
#X obj 58 40 sel 0 1 2 3 4 5;
#X obj 7 16 inlet~;
#X connect 0 0 6 0;
#X connect 1 0 2 0;
#X connect 2 0 3 0;
#X connect 4 0 2 1;
#X connect 5 0 2 1;
#X connect 6 0 4 0;
#X connect 6 1 4 0;
#X connect 6 2 4 0;
#X connect 6 3 4 0;
#X connect 6 4 4 0;
#X connect 6 5 4 0;
#X connect 6 6 5 0;
#X connect 7 0 1 0;
#X restore 99 173 pd sine;
#N canvas 1282 54 636 1000 saw 0;
#X obj 88 16 inlet status;
#X obj 7 140 outlet~;
#X obj 7 43 phasor~;
#X obj 7 67 *~ 2;
#X obj 7 91 -~ 1;
#X obj 7 115 *~;
#X msg 88 64 1;
#X msg 123 64 0;
#X obj 88 40 sel 6;
#X obj 7 16 inlet~;
#X connect 0 0 8 0;
#X connect 2 0 3 0;
#X connect 3 0 4 0;
#X connect 4 0 5 0;
#X connect 5 0 1 0;
#X connect 6 0 5 1;
#X connect 7 0 5 1;
#X connect 8 0 6 0;
#X connect 8 1 7 0;
#X connect 9 0 2 0;
#X restore 160 173 pd saw;
#N canvas 1282 54 636 1000 triangle 0;
#X obj 88 16 inlet status;
#X obj 7 319 outlet~;
#X obj 7 143 phasor~;
#X obj 7 167 *~ 2;
#X obj 7 191 -~ 1;
#X obj 125 95 loadbang;
#X msg 125 119 0;
#X obj 79 144 phasor~;
#X obj 79 168 *~ 2;
#X obj 79 192 -~ 1;
#X obj 7 215 clip~ 0 1;
#X obj 79 215 clip~ 0 1;
#X obj 7 239 +~;
#X obj 7 293 *~;
#X msg 88 64 1;
#X msg 123 64 0;
#X obj 88 40 sel 7;
#X obj 7 16 inlet~;
#X obj 7 264 /~ 2;
#X connect 0 0 16 0;
#X connect 2 0 3 0;
#X connect 3 0 4 0;
#X connect 4 0 10 0;
#X connect 5 0 6 0;
#X connect 6 0 7 1;
#X connect 6 0 2 1;
#X connect 7 0 8 0;
#X connect 8 0 9 0;
#X connect 9 0 11 0;
#X connect 10 0 12 0;
#X connect 11 0 12 1;
#X connect 12 0 18 0;
#X connect 13 0 1 0;
#X connect 14 0 13 1;
#X connect 15 0 13 1;
#X connect 16 0 14 0;
#X connect 16 1 15 0;
#X connect 17 0 2 0;
#X connect 17 0 7 0;
#X connect 18 0 13 0;
#X restore 213 173 pd triangle;
#N canvas 1282 54 636 1000 square 0;
#X obj 88 16 inlet status;
#X obj 7 275 outlet~;
#X obj 7 148 phasor~;
#X obj 79 148 phasor~;
#X msg 53 123 0;
#X msg 125 124 0.5;
#X obj 7 173 +~;
#X obj 7 198 -~ 1;
#X obj 7 249 *~;
#X obj 53 99 loadbang;
#X msg 88 64 1;
#X msg 123 64 0;
#X obj 88 40 sel 8;
#X obj 7 16 inlet~;
#X obj 7 223 /~ 2;
#X connect 0 0 12 0;
#X connect 2 0 6 0;
#X connect 3 0 6 1;
#X connect 4 0 2 1;
#X connect 5 0 3 1;
#X connect 6 0 7 0;
#X connect 7 0 14 0;
#X connect 8 0 1 0;
#X connect 9 0 5 0;
#X connect 9 0 4 0;
#X connect 10 0 8 1;
#X connect 11 0 8 1;
#X connect 12 0 10 0;
#X connect 12 1 11 0;
#X connect 13 0 2 0;
#X connect 13 0 3 0;
#X connect 14 0 8 0;
#X restore 296 173 pd square;
#N canvas 1282 54 636 1000 pulse 0;
#X obj 20 44 phasor~;
#X obj 20 69 -~ 0.99;
#X obj 20 94 clip~ 0 1;
#X obj 20 144 *~;
#X obj 20 168 outlet~;
#X obj 98 15 inlet status;
#X msg 98 64 1;
#X msg 133 64 0;
#X obj 98 40 sel 9;
#X obj 20 119 *~ 100;
#X obj 20 15 inlet~;
#X connect 0 0 1 0;
#X connect 1 0 2 0;
#X connect 2 0 9 0;
#X connect 3 0 4 0;
#X connect 5 0 8 0;
#X connect 6 0 3 1;
#X connect 7 0 3 1;
#X connect 8 0 6 0;
#X connect 8 1 7 0;
#X connect 9 0 3 0;
#X connect 10 0 0 0;
#X restore 366 173 pd pulse;
#X obj 23 65 bang;
#X obj 214 52 osc~;
#X obj 214 77 +~, f 5;
#X obj 23 89 random 10;
#X connect 1 0 13 0;
#X connect 2 0 3 0;
#X connect 3 0 12 0;
#X connect 5 0 14 1;
#X connect 6 0 4 0;
#X connect 7 0 0 0;
#X connect 8 0 0 0;
#X connect 9 0 0 0;
#X connect 10 0 0 0;
#X connect 11 0 0 0;
#X connect 12 0 15 0;
#X connect 13 0 14 0;
#X connect 14 0 7 0;
#X connect 14 0 8 0;
#X connect 14 0 9 0;
#X connect 14 0 11 0;
#X connect 14 0 10 0;
#X connect 15 0 6 0;
#X connect 15 0 7 1;
#X connect 15 0 10 1;
#X connect 15 0 9 1;
#X connect 15 0 8 1;
#X connect 15 0 11 1;
#X coords 0 0 0 0 0 0 0;
#X restore 8 177 pd wave_generation;
#X f 22;
#N canvas 962 54 956 1000 envelope 0;
#X obj 11 11 inlet bang;
#X obj 11 177 outlet rms;
#X obj 11 83 vline~;
#X obj 11 153 snapshot~;
#X msg 11 59 0 0 \, 99 \$1;
#X obj 21 130 bang~;
#X obj 11 107 tabread4~ \$0-envelope;
#X obj 11 35 f;
#X obj 87 11 inlet dur;
#X obj 156 11 inlet legato;
#X obj 87 36 *;
#X connect 0 0 7 0;
#X connect 2 0 6 0;
#X connect 3 0 1 0;
#X connect 4 0 2 0;
#X connect 5 0 3 0;
#X connect 6 0 3 0;
#X connect 7 0 4 0;
#X connect 8 0 10 0;
#X connect 9 0 10 1;
#X connect 10 0 7 1;
#X restore 175 150 pd envelope;
#N canvas 642 54 636 1000 modulator 0;
#X obj 98 197 osc~;
#X obj 98 226 *~;
#X obj 116 29 mtof;
#X obj 224 201 *;
#X obj 161 29 r \$0-modulating;
#X obj 242 177 *;
#X obj 98 172 expr $f1 * $f2;
#X obj 98 90 f;
#X obj 161 53 t b l;
#X obj 193 79 unpack f f;
#X obj 116 5 inlet midi;
#X obj 98 290 outlet~;
#X obj 224 5 inlet rms;
#X obj 14 291 outlet freq;
#X obj 98 115 t f f f;
#X connect 0 0 1 0;
#X connect 1 0 11 0;
#X connect 2 0 7 1;
#X connect 3 0 1 1;
#X connect 4 0 8 0;
#X connect 5 0 3 1;
#X connect 6 0 0 0;
#X connect 7 0 14 0;
#X connect 8 0 7 0;
#X connect 8 1 9 0;
#X connect 9 0 6 1;
#X connect 9 1 5 1;
#X connect 10 0 2 0;
#X connect 12 0 3 0;
#X connect 14 0 6 0;
#X connect 14 1 5 0;
#X connect 14 2 13 0;
#X restore 84 150 pd modulator;
#N canvas 2 54 956 472 timbre 0;
#X obj 320 335 array set \$0-envelope;
#N canvas 2 406 956 296 clarinet 0;
#X obj 11 225 outlet;
#X obj 11 6 inlet;
#X obj 74 225 s \$0-modulating;
#X msg 11 31 0 0.01 0.025 0.05 0.075 0.1 0.125 0.15 0.175 0.2 0.25
0.3 0.34 0.4 0.46 0.53 0.62 0.72 0.84 0.9 0.95 0.99 1 1 1 1 1 1 1 1
1 1 1 1 1 1 1 1 1 1 1 1 1 1 1 1 1 1 1 1 1 1 1 1 1 1 1 1 1 1 1 1 1 1
1 1 1 1 1 1 1 1 1 1 1 1 1 0.99 0.95 0.9 0.84 0.72 0.62 0.53 0.46 0.4
0.34 0.3 0.25 0.2 0.175 0.15 0.125 0.1 0.075 0.05 0.025 0.01 0 0,
f 134;
#X obj 74 198 pack f f, f 11;
#X obj 74 148 sel 0 1;
#X obj 74 100 t b b;
#X msg 74 173 0.333;
#X msg 119 173 0.2;
#X obj 148 147 expr random (150 \, 300)*0.01;
#X obj 74 124 random 2;
#X connect 1 0 3 0;
#X connect 1 0 6 0;
#X connect 3 0 0 0;
#X connect 4 0 2 0;
#X connect 5 0 7 0;
#X connect 5 1 8 0;
#X connect 6 0 10 0;
#X connect 6 1 9 0;
#X connect 7 0 4 0;
#X connect 8 0 4 0;
#X connect 9 0 4 1;
#X connect 10 0 5 0;
#X restore 320 265 pd clarinet;
#X obj 320 247 bng 15 250 50 0 empty empty empty 17 7 0 10 -262144
-1 -1;
#X obj 403 247 bng 15 250 50 0 empty empty empty 17 7 0 10 -262144
-1 -1;
#X obj 36 247 bng 15 250 50 0 empty empty empty 17 7 0 10 -262144 -1
-1;
#X obj 91 247 bng 15 250 50 0 empty empty empty 17 7 0 10 -262144 -1
-1;
#X obj 146 247 bng 15 250 50 0 empty empty empty 17 7 0 10 -262144
-1 -1;
#X obj 265 247 bng 15 250 50 0 empty empty empty 17 7 0 10 -262144
-1 -1;
#N canvas 962 54 476 1000 trumpet 0;
#X obj 1 233 outlet;
#X obj 1 3 inlet;
#X obj 58 233 s \$0-modulating;
#X msg 1 26 0 0.01 0.02 0.03 0.0625 0.125 0.1875 0.25 0.3125 0.375
0.4375 0.5 0.5625 0.625 0.6875 0.75 0.8125 0.875 0.9375 1 0.954 0.931
0.908 0.885 0.862 0.839 0.816 0.793 0.77 0.747 0.724 0.7 0.678 0.655
0.632 0.609 0.6 0.598 0.596 0.594 0.592 0.59 0.588 0.586 0.584 0.582
0.58 0.578 0.576 0.574 0.572 0.57 0.568 0.566 0.564 0.562 0.56 0.558
0.556 0.554 0.552 0.55 0.548 0.546 0.544 0.542 0.54 0.538 0.536 0.534
0.532 0.53 0.528 0.526 0.524 0.522 0.52 0.518 0.516 0.514 0.512 0.51
0.508 0.506 0.504 0.502 0.5 0.5 0.5 0.45 0.4 0.35 0.3 0.25 0.2 0.15
0.12 0.09 0.04 0 0, f 134;
#X obj 58 201 pack f f, f 11;
#X obj 58 127 t b b;
#X obj 58 150 expr random(100 \, 200)*0.01;
#X obj 132 174 expr random(50 \, 70)*0.01;
#X connect 1 0 3 0;
#X connect 1 0 5 0;
#X connect 3 0 0 0;
#X connect 4 0 2 0;
#X connect 5 0 6 0;
#X connect 5 1 7 0;
#X connect 6 0 4 0;
#X connect 7 0 4 1;
#X restore 403 265 pd trumpet;
#N canvas 1282 54 636 1000 bell 0;
#X obj 3 204 outlet;
#X obj 3 3 inlet;
#X obj 60 204 s \$0-modulating;
#X msg 3 32 1 0.911 0.83 0.756 0.689 0.628 0.572 0.521 0.475 0.433
0.394 0.359 0.327 0.298 0.272 0.248 0.226 0.206 0.187 0.171 0.156 0.142
0.129 0.118 0.107 0.098 0.089 0.081 0.074 0.067 0.061 0.056 0.051 0.046
0.042 0.039 0.035 0.032 0.029 0.027 0.024 0.022 0.02 0.018 0.017 0.015
0.014 0.013 0.011 0.01 0.01 0.009 0.008 0.007 0.007 0.006 0.005 0.005
0.005 0.004 0.004 0.003 0.003 0.003 0.003 0.002 0.002 0.002 0.002 0.002
0.001 0.001 0.001 0.001 0.001 0.001 0.001 0.001 0.001 0.001 0.001 0.001
0 0 0 0 0 0 0 0 0 0 0 0 0 0 0 0 0, f 134;
#X msg 60 131 0.714 10;
#X connect 1 0 3 0;
#X connect 1 0 4 0;
#X connect 3 0 0 0;
#X connect 4 0 2 0;
#X restore 36 265 pd bell;
#N canvas 2 758 1916 296 drum 0;
#X obj 1 177 outlet;
#X obj 1 3 inlet;
#X obj 76 177 s \$0-modulating;
#X msg 1 28 0.75 0.756 0.761 0.767 0.772 0.778 0.783 0.789 0.794 0.8
0.81 0.827 0.847 0.865 0.882 0.899 0.914 0.929 0.944 0.95 0.955 0.96
0.965 0.97 0.975 0.98 0.985 0.99 0.995 1 1 0.935 0.875 0.819 0.766
0.716 0.67 0.627 0.586 0.548 0.513 0.48 0.449 0.42 0.393 0.367 0.344
0.322 0.301 0.281 0.263 0.246 0.23 0.215 0.202 0.189 0.176 0.165 0.154
0.144 0.135 0.126 0.118 0.111 0.103 0.097 0.09 0.085 0.079 0.074 0.069
0.065 0.061 0.057 0.053 0.05 0.046 0.043 0.041 0.038 0.036 0.033 0.031
0.029 0.027 0.025 0.024 0.022 0.021 0.019 0.018 0.017 0.016 0.015 0.014
0.013 0.012 0.01 0.001 0, f 134;
#X msg 76 148 1 1;
#X connect 1 0 3 0;
#X connect 1 0 4 0;
#X connect 3 0 0 0;
#X connect 4 0 2 0;
#X restore 91 265 pd drum;
#N canvas 962 54 956 1000 wood 0;
#X obj 1 201 outlet;
#X obj 1 3 inlet;
#X obj 58 200 s \$0-modulating;
#X obj 58 91 t b b;
#X msg 1 27 0 0.01 0.025 0.05 0.075 0.1 0.125 0.15 0.175 0.2 0.25 0.3
0.34 0.4 0.46 0.53 0.62 0.72 0.8 0.85 0.9 0.95 0.99 1 1 1 1 1 1 1 1
1 1 1 1 1 1 1 1 1 1 1 1 1 1 1 1 1 1 1 1 1 1 1 1 1 1 1 1 1 1 1 1 1 1
1 1 1 1 1 1 1 1 1 1 1 1 1 0.99 0.95 0.9 0.84 0.72 0.62 0.53 0.46 0.4
0.34 0.3 0.25 0.2 0.175 0.15 0.125 0.1 0.075 0.05 0.025 0.01 0 0,
f 135;
#X obj 58 171 pack f f;
#X msg 58 117 1.4545;
#X floatatom 158 156 5 0 0 0 - - -;
#X obj 111 116 expr random(200 \, 300)* 0.01;
#X connect 1 0 4 0;
#X connect 1 0 3 0;
#X connect 3 0 6 0;
#X connect 3 1 8 0;
#X connect 4 0 0 0;
#X connect 5 0 2 0;
#X connect 6 0 5 0;
#X connect 8 0 5 1;
#X connect 8 0 7 0;
#X restore 146 265 pd wood;
#N canvas 962 54 476 1000 bird 0;
#X obj 9 208 outlet;
#X obj 9 6 inlet;
#X obj 67 208 s \$0-modulating;
#X msg 9 30 0 0 0 0 0 0 0 0 0 0 0 0 0 0 0 0 0 0.001 0.001 0.001 0.001
0.001 0.001 0.001 0.001 0.001 0.001 0.001 0.001 0.002 0.002 0.002 0.002
0.002 0.003 0.003 0.003 0.003 0.004 0.004 0.005 0.005 0.005 0.006 0.007
0.007 0.008 0.009 0.01 0.01 0.011 0.013 0.014 0.015 0.017 0.018 0.02
0.022 0.024 0.027 0.029 0.032 0.035 0.039 0.042 0.046 0.051 0.056 0.061
0.067 0.074 0.081 0.089 0.098 0.107 0.118 0.129 0.142 0.156 0.171 0.187
0.206 0.226 0.248 0.272 0.298 0.327 0.359 0.394 0.433 0.475 0.521 0.572
0.628 0.689 0.756 0.83 0.911 1, f 134;
#X obj 67 181 pack f f;
#X obj 67 109 t b b;
#X obj 67 154 expr random(10 \, 100) * 0.01;
#X obj 120 129 expr random(75 \, 100) * 0.01;
#X connect 1 0 3 0;
#X connect 1 0 5 0;
#X connect 3 0 0 0;
#X connect 4 0 2 0;
#X connect 5 0 6 0;
#X connect 5 1 7 0;
#X connect 6 0 4 0;
#X connect 7 0 4 1;
#X restore 265 265 pd bird;
#X obj 479 247 bng 15 250 50 0 empty empty empty 17 7 0 10 -262144
-1 -1;
#X obj 26 21 inlet timbre;
#N canvas 1282 54 636 1000 expo 0;
#X obj 9 232 outlet;
#X obj 8 16 inlet;
#X obj 67 233 s \$0-modulating;
#X obj 67 208 pack f f;
#X obj 67 117 t b b;
#X obj 120 117 expr random(10 \, 100);
#X obj 67 184 expr random(5 \, 100);
#X msg 9 44 0 0 0 0 0 0 0 0 0 0 0 0 0 0 0 0 0 0.001 0.001 0.001 0.001
0.001 0.001 0.001 0.001 0.001 0.001 0.001 0.001 0.002 0.002 0.002 0.002
0.002 0.003 0.003 0.003 0.003 0.004 0.004 0.005 0.005 0.005 0.006 0.007
0.007 0.008 0.009 0.01 0.01 0.011 0.013 0.014 0.015 0.017 0.018 0.02
0.022 0.024 0.027 0.029 0.032 0.035 0.039 0.042 0.046 0.051 0.056 0.061
0.067 0.074 0.081 0.089 0.098 0.107 0.118 0.129 0.142 0.156 0.171 0.187
0.206 0.226 0.248 0.272 0.298 0.327 0.359 0.394 0.433 0.475 0.521 0.572
0.628 0.689 0.756 0.83 0.911 1, f 134;
#X obj 120 142 / 100;
#X connect 1 0 4 0;
#X connect 1 0 7 0;
#X connect 3 0 2 0;
#X connect 4 0 6 0;
#X connect 4 1 5 0;
#X connect 5 0 8 0;
#X connect 6 0 3 0;
#X connect 7 0 0 0;
#X connect 8 0 3 1;
#X restore 479 265 pd expo;
#X obj 201 247 bng 15 250 50 0 empty empty empty 17 7 0 10 -262144
-1 -1;
#X obj 534 247 bng 15 250 50 0 empty empty empty 17 7 0 10 -262144
-1 -1;
#N canvas 642 54 636 1000 rand-lin 0;
#X obj 9 202 outlet;
#X obj 9 16 inlet;
#X obj 67 202 s \$0-modulating;
#X obj 67 178 pack f f;
#X obj 67 127 t b b;
#X obj 9 66 list-apply / 100;
#X obj 9 41 list-random 100 99;
#X obj 120 128 expr random(1 \, 100);
#X obj 67 154 expr random(1 \, 100);
#X obj 9 92 list-shellsort;
#X connect 1 0 4 0;
#X connect 1 0 6 0;
#X connect 3 0 2 0;
#X connect 4 0 8 0;
#X connect 4 1 7 0;
#X connect 5 0 9 0;
#X connect 6 0 5 0;
#X connect 7 0 3 1;
#X connect 8 0 3 0;
#X connect 9 0 0 0;
#X restore 534 265 pd rand-lin;
#N canvas 962 54 476 1000 camel 0;
#X obj 19 11 inlet bang;
#X obj 19 232 outlet;
#X obj 112 232 s \$0-modulating;
#X obj 112 208 pack f f;
#X obj 112 156 t b b;
#X msg 19 38 0 0.00714284 0.0214284 0.0499995 0.0714279 0.099999 0.12857
0.164284 0.199998 0.235712 0.264283 0.292854 0.328568 0.357139 0.392853
0.428567 0.449995 0.478566 0.51428 0.535709 0.56428 0.585708 0.607137
0.635708 0.657136 0.678564 0.69285 0.707135 0.721421 0.721421 0.728564
0.735707 0.742849 0.742849 0.735707 0.728564 0.728564 0.721421 0.707135
0.699993 0.685707 0.671422 0.657136 0.635708 0.614279 0.592851 0.56428
0.542852 0.528566 0.51428 0.499995 0.492852 0.492852 0.492852 0.51428
0.549994 0.56428 0.592851 0.599994 0.621422 0.64285 0.657136 0.678564
0.69285 0.714278 0.721421 0.735707 0.749992 0.764278 0.771421 0.778563
0.778563 0.778563 0.778563 0.778563 0.771421 0.764278 0.749992 0.742849
0.735707 0.721421 0.707135 0.69285 0.671422 0.628565 0.592851 0.549994
0.507138 0.471424 0.414281 0.371425 0.321425 0.278569 0.235712 0.199998
0.164284 0.121427 0.0928562 0.0642851 0, f 130;
#X obj 112 183 expr random(1 \, 100)/100;
#X obj 165 157 expr random(1 \, 100)/100;
#X connect 0 0 5 0;
#X connect 0 0 4 0;
#X connect 3 0 2 0;
#X connect 4 0 6 0;
#X connect 4 1 7 0;
#X connect 5 0 1 0;
#X connect 6 0 3 0;
#X connect 7 0 3 1;
#X restore 617 265 pd camel;
#X obj 617 247 bng 15 250 50 0 empty empty empty 17 7 0 10 -262144
-1 -1;
#N canvas 2 582 1916 472 symbol 0;
#X obj 15 15 inlet float;
#X obj 462 169 outlet;
#X msg 15 79 symbol bell;
#X msg 101 79 symbol drum;
#X msg 188 79 symbol wood;
#X msg 275 79 symbol random;
#X msg 376 79 symbol bird;
#X msg 462 79 symbol clarinet;
#X msg 577 79 symbol trumpet;
#X msg 684 79 symbol expo;
#X msg 770 79 symbol random-lin;
#X msg 899 79 symbol camel;
#X obj 15 41 sel 0 1 2 3 4 5 6 7 8 9 10, f 141;
#X msg 994 79 symbol random;
#X connect 0 0 12 0;
#X connect 2 0 1 0;
#X connect 3 0 1 0;
#X connect 4 0 1 0;
#X connect 5 0 1 0;
#X connect 6 0 1 0;
#X connect 7 0 1 0;
#X connect 8 0 1 0;
#X connect 9 0 1 0;
#X connect 10 0 1 0;
#X connect 11 0 1 0;
#X connect 12 0 2 0;
#X connect 12 1 3 0;
#X connect 12 2 4 0;
#X connect 12 3 5 0;
#X connect 12 4 6 0;
#X connect 12 5 7 0;
#X connect 12 6 8 0;
#X connect 12 7 9 0;
#X connect 12 8 10 0;
#X connect 12 9 11 0;
#X connect 12 10 13 0;
#X connect 13 0 1 0;
#X restore 26 319 pd symbol;
#X obj 26 344 outlet symbol;
#N canvas 962 54 956 1000 brown 0;
#X obj 9 319 outlet;
#X obj 9 16 inlet;
#X obj 67 319 s \$0-modulating;
#X obj 67 295 pack f f;
#X obj 67 217 t b b;
#X obj 9 65 list-map;
#X obj 76 165 *;
#X obj 62 90 t f b;
#X obj 94 140 drunk 100 5;
#X obj 9 188 list-math / 100;
#X obj 9 41 list-random 2 99;
#X obj 62 114 expr if($f1 == 0 \, 1 \, 1);
#X obj 120 268 expr random(1 \, 100)* 0.01;
#X obj 67 241 expr random(0 \, 100) * 0.1;
#X connect 1 0 4 0;
#X connect 1 0 10 0;
#X connect 3 0 2 0;
#X connect 4 0 13 0;
#X connect 4 1 12 0;
#X connect 5 0 9 0;
#X connect 5 1 7 0;
#X connect 6 0 5 1;
#X connect 7 0 11 0;
#X connect 7 1 8 0;
#X connect 8 0 6 1;
#X connect 9 0 0 0;
#X connect 10 0 5 0;
#X connect 11 0 6 0;
#X connect 12 0 3 1;
#X connect 13 0 3 0;
#X restore 201 265 pd brown;
#X obj 36 221 sel 0 1 2 3 4 5 6 7 8 9 10, f 99;
#N canvas 2 582 956 472 random 0;
#N canvas 0 50 450 250 (subpatch) 0;
#X array \$0-random_env 10 float 3;
#A 0 0 0.54 0.12 0.31 0 0.23 0.58 0.07 0.65 0;
#X coords 0 0 10 1 200 140 1 0 0;
#X restore 379 111 graph;
#N canvas 2 758 956 296 random 0;
#X obj 5 5 inlet bang;
#X obj 5 105 list-map;
#X obj 70 105 * 0.01;
#X obj 5 132 array set \$0-random_env;
#X obj 5 54 list prepend 0;
#X obj 5 79 list append 0;
#X obj 5 30 list-random 100 8;
#X connect 0 0 6 0;
#X connect 1 0 3 0;
#X connect 1 1 2 0;
#X connect 2 0 1 1;
#X connect 4 0 5 0;
#X connect 5 0 1 0;
#X connect 6 0 4 0;
#X restore 429 66 pd random;
#X obj 46 144 line~;
#X obj 46 192 +~ 1;
#X obj 46 168 *~ 7;
#X obj 23 18 inlet bang;
#X obj 46 216 tabread4~ \$0-random_env;
#X obj 429 45 bng 15 250 50 0 empty empty empty 17 7 0 10 -262144 -1
-1;
#X obj 23 241 tabwrite~ \$0-envelope;
#X obj 23 90 t b b;
#X msg 46 121 0 \, 1 10;
#X obj 218 231 s \$0-modulating;
#X obj 218 102 t b b;
#X obj 218 204 pack f f;
#X obj 218 128 random 100;
#X obj 218 152 / 100;
#X obj 301 122 random 9;
#X obj 301 148 + 2;
#X obj 218 177 + 1;
#X obj 429 20 inlet new;
#X obj 301 173 / 10;
#X obj 23 70 bng 15 250 50 0 empty empty empty 17 7 0 10 -262144 -1
-1;
#X connect 2 0 4 0;
#X connect 3 0 6 0;
#X connect 4 0 3 0;
#X connect 5 0 12 0;
#X connect 6 0 8 0;
#X connect 7 0 1 0;
#X connect 7 0 21 0;
#X connect 9 0 8 0;
#X connect 9 1 10 0;
#X connect 10 0 2 0;
#X connect 12 0 14 0;
#X connect 12 1 16 0;
#X connect 13 0 11 0;
#X connect 14 0 15 0;
#X connect 15 0 18 0;
#X connect 16 0 17 0;
#X connect 17 0 20 0;
#X connect 18 0 13 0;
#X connect 19 0 7 0;
#X connect 20 0 13 1;
#X connect 21 0 9 0;
#X restore 680 266 pd random;
#X obj 680 247 bng 15 250 50 0 empty empty empty 17 7 0 10 -262144
-1 -1;
#X obj 58 194 array define \$0-envelope;
#X obj 26 66 t f f;
#X obj 58 91 > 9;
#X obj 58 139 sel 0 1;
#X msg 58 164 resize 100;
#X msg 153 166 resize 480;
#X obj 58 115 change;
#X obj 740 247 bng 15 250 50 0 empty empty empty 17 7 0 10 -262144
-1 -1;
#X connect 1 0 0 0;
#X connect 2 0 1 0;
#X connect 3 0 8 0;
#X connect 4 0 9 0;
#X connect 5 0 10 0;
#X connect 6 0 11 0;
#X connect 7 0 12 0;
#X connect 8 0 0 0;
#X connect 9 0 0 0;
#X connect 10 0 0 0;
#X connect 11 0 0 0;
#X connect 12 0 0 0;
#X connect 13 0 15 0;
#X connect 14 0 28 0;
#X connect 15 0 0 0;
#X connect 16 0 23 0;
#X connect 17 0 18 0;
#X connect 18 0 0 0;
#X connect 19 0 0 0;
#X connect 20 0 19 0;
#X connect 21 0 22 0;
#X connect 23 0 0 0;
#X connect 24 0 4 0;
#X connect 24 1 5 0;
#X connect 24 2 6 0;
#X connect 24 3 16 0;
#X connect 24 4 7 0;
#X connect 24 5 2 0;
#X connect 24 6 3 0;
#X connect 24 7 13 0;
#X connect 24 8 17 0;
#X connect 24 9 20 0;
#X connect 24 10 26 0;
#X connect 26 0 25 0;
#X connect 28 0 21 0;
#X connect 28 0 24 0;
#X connect 28 1 29 0;
#X connect 29 0 33 0;
#X connect 30 0 31 0;
#X connect 30 1 32 0;
#X connect 30 1 34 0;
#X connect 31 0 27 0;
#X connect 32 0 27 0;
#X connect 33 0 30 0;
#X connect 34 0 25 1;
#X restore 263 260 pd timbre;
#X obj 645 7 inlet voice_status;
#X obj 645 32 tgl 15 0 empty empty empty 17 7 0 10 -262144 -1 -1 1
1;
#X obj 645 52 switch~;
#X obj 270 109 clip 0 100;
#X obj 159 286 outlet symbol;
#X obj 263 286 outlet symbol;
#N canvas 642 54 636 1000 lowpass 0;
#X obj 6 12 inlet~ signal;
#X obj 6 171 outlet~;
#X obj 31 41 loadbang;
#X msg 31 66 5000;
#X obj 6 96 lop~;
#X obj 6 121 lop~;
#X obj 6 146 lop~;
#X obj 113 12 inlet midi;
#X obj 113 37 mtof;
#X obj 113 62 * 3;
#X connect 0 0 4 0;
#X connect 2 0 3 0;
#X connect 3 0 4 1;
#X connect 4 0 5 0;
#X connect 5 0 6 0;
#X connect 6 0 1 0;
#X connect 7 0 8 0;
#X connect 8 0 9 0;
#X connect 9 0 4 1;
#X connect 9 0 5 1;
#X connect 9 0 6 1;
#X restore 8 262 pd lowpass;
#N canvas 962 54 956 1000 highpass 0;
#X obj 17 17 inlet~;
#X obj 17 173 outlet~;
#X obj 17 41 hip~;
#X obj 77 21 loadbang;
#X obj 17 66 hip~;
#X obj 17 90 hip~;
#X obj 17 115 hip~;
#X obj 17 140 hip~;
#X msg 77 45 100;
#X connect 0 0 2 0;
#X connect 2 0 4 0;
#X connect 3 0 8 0;
#X connect 4 0 5 0;
#X connect 5 0 6 0;
#X connect 6 0 7 0;
#X connect 7 0 1 0;
#X connect 8 0 2 1;
#X connect 8 0 4 1;
#X connect 8 0 5 1;
#X connect 8 0 6 1;
#X connect 8 0 7 1;
#X restore 8 286 pd highpass;
#X obj 8 333 clip~ -0.99 0.99;
#X obj 270 132 expr (pow(10 \, $f1/20)*0.00001) + $f2;
#X obj 270 157 min 0.99;
#X obj 8 311 compress~ -30 5 10 10 10 256;
#X obj 175 206 min 0.9;
#X text 249 76 timbre \, midi \, dur \, legato \, rms;
#X obj 8 79 unpack f f f f f, f 33;
#X obj 8 32 list split 5;
#X text 83 6 timbre \, midi \, dur \, legato \, rms \, flatness curve
;
#X connect 0 0 19 0;
#X connect 1 0 10 0;
#X connect 2 0 28 0;
#X connect 3 0 25 0;
#X connect 4 0 5 0;
#X connect 5 0 22 1;
#X connect 8 0 0 0;
#X connect 9 0 0 0;
#X connect 9 1 17 0;
#X connect 10 0 3 0;
#X connect 10 0 11 1;
#X connect 11 0 9 1;
#X connect 11 0 1 0;
#X connect 11 1 9 2;
#X connect 12 0 18 0;
#X connect 13 0 14 0;
#X connect 14 0 15 0;
#X connect 16 0 22 0;
#X connect 19 0 20 0;
#X connect 20 0 24 0;
#X connect 21 0 6 0;
#X connect 22 0 23 0;
#X connect 23 0 3 1;
#X connect 24 0 21 0;
#X connect 25 0 0 1;
#X connect 27 0 12 0;
#X connect 27 0 9 0;
#X connect 27 1 19 1;
#X connect 27 1 11 0;
#X connect 27 1 8 0;
#X connect 27 2 10 1;
#X connect 27 2 8 1;
#X connect 27 3 10 2;
#X connect 27 4 16 0;
#X connect 28 0 27 0;
#X connect 28 1 7 0;
#X coords 0 0 0 0 0 0 0;
