#N canvas 0 32 1920 1024 12;
#X obj 40 284 +~;
#X obj 58 211 osc~;
#X obj 40 310 osc~;
#X obj 40 420 clip~ -0.99 0.99;
#X obj 40 336 hip~ 3;
#X obj 40 391 *~;
#X obj 192 186 bng 15 250 50 0 empty empty empty 17 7 0 10 -262144
-1 -1;
#X obj 192 257 vline~;
#X obj 192 327 snapshot~;
#N canvas 0 32 1920 1024 envelope 0;
#N canvas 1280 32 640 1024 (subpatch) 0;
#X array \$0-envelope 100 float 3;
#A 0 1 0.883 0.767 0.65 0.533 0.417 0.3 0.259 0.217 0.176 0.134 0.093
0.051 0.01 0 0 0 0 0 0 0 0 0 0 0 0 0 0 0 0 0 0 0 0 0 0 0 0 0 0 0 0
0 0 0 0 0 0 0 0 0 0 0 0 0 0 0 0 0 0 0 0 0 0 0 0 0 0 0 0 0 0 0 0 0 0
0 0 0 0 0 0 0 0 0 0 0 0 0 0 0 0 0 0 0 0 0 0 0 0;
#X coords 0 1 100 0 200 140 1 0 0;
#X restore 323 20 graph;
#X obj 179 271 array set \$0-envelope;
#N canvas 1536 32 384 1024 clarinet 0;
#X obj 1 225 outlet;
#X obj 1 6 inlet;
#X msg 1 32 0 0.01 0.025 0.05 0.075 0.1 0.125 0.15 0.175 0.2 0.25 0.3
0.34 0.4 0.46 0.53 0.62 0.72 0.84 0.9 0.95 0.99 1 1 1 1 1 1 1 1 1 1
1 1 1 1 1 1 1 1 1 1 1 1 1 1 1 1 1 1 1 1 1 1 1 1 1 1 1 1 1 1 1 1 1 1
1 1 1 1 1 1 1 1 1 1 1 0.99 0.95 0.9 0.84 0.72 0.62 0.53 0.46 0.4 0.34
0.3 0.25 0.2 0.175 0.15 0.125 0.1 0.075 0.05 0.025 0.01 0 0, f 134
;
#X obj 64 225 s \$0-modulating;
#X obj 64 200 pack f f, f 11;
#X obj 64 150 sel 0 1;
#X obj 64 102 t b b;
#X msg 64 175 0.333;
#X msg 109 175 0.2;
#X obj 138 149 expr random (150 \, 300)*0.01;
#X obj 64 126 random 2;
#X connect 1 0 2 0;
#X connect 1 0 6 0;
#X connect 2 0 0 0;
#X connect 4 0 3 0;
#X connect 5 0 7 0;
#X connect 5 1 8 0;
#X connect 6 0 10 0;
#X connect 6 1 9 0;
#X connect 7 0 4 0;
#X connect 8 0 4 0;
#X connect 9 0 4 1;
#X connect 10 0 5 0;
#X restore 238 221 pd clarinet;
#X obj 238 203 bng 15 250 50 0 empty empty empty 17 7 0 10 -262144
-1 -1;
#X obj 323 203 bng 15 250 50 0 empty empty empty 17 7 0 10 -262144
-1 -1;
#X obj 11 203 bng 15 250 50 0 empty empty empty 17 7 0 10 -262144 -1
-1;
#X obj 67 203 bng 15 250 50 0 empty empty empty 17 7 0 10 -262144 -1
-1;
#X obj 123 203 bng 15 250 50 0 empty empty empty 17 7 0 10 -262144
-1 -1;
#X obj 179 203 bng 15 250 50 0 empty empty empty 17 7 0 10 -262144
-1 -1;
#N canvas 1440 32 480 1024 trumpet 0;
#X obj 1 213 outlet;
#X obj 1 3 inlet;
#X msg 1 26 0 0.01 0.02 0.03 0.0625 0.125 0.1875 0.25 0.3125 0.375
0.4375 0.5 0.5625 0.625 0.6875 0.75 0.8125 0.875 0.9375 1 0.954 0.931
0.908 0.885 0.862 0.839 0.816 0.793 0.77 0.747 0.724 0.7 0.678 0.655
0.632 0.609 0.6 0.598 0.596 0.594 0.592 0.59 0.588 0.586 0.584 0.582
0.58 0.578 0.576 0.574 0.572 0.57 0.568 0.566 0.564 0.562 0.56 0.558
0.556 0.554 0.552 0.55 0.548 0.546 0.544 0.542 0.54 0.538 0.536 0.534
0.532 0.53 0.528 0.526 0.524 0.522 0.52 0.518 0.516 0.514 0.512 0.51
0.508 0.506 0.504 0.502 0.5 0.5 0.5 0.45 0.4 0.35 0.3 0.25 0.2 0.15
0.09 0.04 0 0, f 134;
#X obj 58 213 s \$0-modulating;
#X obj 58 188 pack f f, f 11;
#X obj 58 114 t b b;
#X obj 58 137 expr random(100 \, 200)*0.01;
#X obj 132 161 expr random(500 \, 700)*0.01;
#X connect 1 0 2 0;
#X connect 1 0 5 0;
#X connect 2 0 0 0;
#X connect 4 0 3 0;
#X connect 5 0 6 0;
#X connect 5 1 7 0;
#X connect 6 0 4 0;
#X connect 7 0 4 1;
#X restore 323 221 pd trumpet;
#N canvas 1440 32 480 1024 bell 0;
#X obj 1 129 outlet;
#X obj 1 3 inlet;
#X msg 1 32 1 0.911 0.83 0.756 0.689 0.628 0.572 0.521 0.475 0.433
0.394 0.359 0.327 0.298 0.272 0.248 0.226 0.206 0.187 0.171 0.156 0.142
0.129 0.118 0.107 0.098 0.089 0.081 0.074 0.067 0.061 0.056 0.051 0.046
0.042 0.039 0.035 0.032 0.029 0.027 0.024 0.022 0.02 0.018 0.017 0.015
0.014 0.013 0.011 0.01 0.01 0.009 0.008 0.007 0.007 0.006 0.005 0.005
0.005 0.004 0.004 0.003 0.003 0.003 0.003 0.002 0.002 0.002 0.002 0.002
0.001 0.001 0.001 0.001 0.001 0.001 0.001 0.001 0.001 0.001 0.001 0.001
0 0 0 0 0 0 0 0 0 0 0 0 0 0 0 0 0, f 134;
#X obj 56 129 s \$0-modulating;
#X msg 56 102 0.714 10;
#X connect 1 0 2 0;
#X connect 1 0 4 0;
#X connect 2 0 0 0;
#X connect 4 0 3 0;
#X restore 11 221 pd bell;
#N canvas 1280 32 640 1024 drum 0;
#X obj 1 187 outlet;
#X obj 1 3 inlet;
#X msg 1 28 0.75 0.756 0.761 0.767 0.772 0.778 0.783 0.789 0.794 0.8
0.81 0.827 0.847 0.865 0.882 0.899 0.914 0.929 0.944 0.95 0.955 0.96
0.965 0.97 0.975 0.98 0.985 0.99 0.995 1 1 0.935 0.875 0.819 0.766
0.716 0.67 0.627 0.586 0.548 0.513 0.48 0.449 0.42 0.393 0.367 0.344
0.322 0.301 0.281 0.263 0.246 0.23 0.215 0.202 0.189 0.176 0.165 0.154
0.144 0.135 0.126 0.118 0.111 0.103 0.097 0.09 0.085 0.079 0.074 0.069
0.065 0.061 0.057 0.053 0.05 0.046 0.043 0.041 0.038 0.036 0.033 0.031
0.029 0.027 0.025 0.024 0.022 0.021 0.019 0.018 0.017 0.016 0.015 0.014
0.013 0.012 0.01 0.001 0, f 134;
#X obj 76 187 s \$0-modulating;
#X obj 76 114 t b b;
#X obj 129 137 expr random(15 \, 30)*0.1;
#X msg 76 138 0.714;
#X obj 76 162 pack f f;
#X connect 1 0 2 0;
#X connect 1 0 4 0;
#X connect 2 0 0 0;
#X connect 4 0 6 0;
#X connect 4 1 5 0;
#X connect 5 0 7 1;
#X connect 6 0 7 0;
#X connect 7 0 3 0;
#X restore 67 221 pd drum;
#N canvas 1280 32 640 1024 wood 0;
#X obj 1 141 outlet;
#X obj 1 3 inlet;
#X msg 1 27 1 0.883 0.767 0.65 0.533 0.417 0.3 0.259 0.217 0.176 0.134
0.093 0.051 0.01 0 0 0 0 0 0 0 0 0 0 0 0 0 0 0 0 0 0 0 0 0 0 0 0 0
0 0 0 0 0 0 0 0 0 0 0 0 0 0 0 0 0 0 0 0 0 0 0 0 0 0 0 0 0 0 0 0 0 0
0 0 0 0 0 0 0 0 0 0 0 0 0 0 0 0 0 0 0 0 0 0 0 0 0 0 0, f 135;
#X obj 56 140 s \$0-modulating;
#X obj 56 68 t b b;
#X obj 56 116 pack f f;
#X obj 109 91 expr random(20 \, 30);
#X msg 56 92 1.4545;
#X connect 1 0 2 0;
#X connect 1 0 4 0;
#X connect 2 0 0 0;
#X connect 4 0 7 0;
#X connect 4 1 6 0;
#X connect 5 0 3 0;
#X connect 6 0 5 1;
#X connect 7 0 5 0;
#X restore 123 221 pd wood;
#N canvas 1536 32 384 1024 bird 0;
#X obj 9 163 outlet;
#X obj 9 6 inlet;
#X obj 67 163 s \$0-modulating;
#X obj 67 138 pack f f;
#X obj 67 85 t b b;
#X obj 67 112 expr random(10 \, 100) * 0.01;
#X obj 120 86 expr random(75 \, 100);
#X msg 9 30 0 0.5 0.75 0.9 1 1 1 1 1 1 1 1 1 1 1 1 1 1 1 1 1 1 1 1
1 1 1 1 1 1 1 1 1 1 1 1 1 1 1 1 1 1 1 1 1 1 1 1 1 1 1 1 1 1 1 1 1 1
1 1 1 1 1 1 1 1 1 1 1 1 1 1 1 1 1 1 1 1 1 1 1 1 1 1 1 1 0.9 0.75 0.5
0 0 0 0 0 0 0 0 0 0 0, f 134;
#X connect 1 0 4 0;
#X connect 1 0 7 0;
#X connect 3 0 2 0;
#X connect 4 0 5 0;
#X connect 4 1 6 0;
#X connect 5 0 3 0;
#X connect 6 0 3 1;
#X connect 7 0 0 0;
#X restore 179 221 pd bird;
#X obj 401 203 bng 15 250 50 0 empty empty empty 17 7 0 10 -262144
-1 -1;
#X obj 11 7 inlet timbre;
#X obj 11 57 sel 0 1 2 3 4 5 6;
#N canvas 960 32 960 1024 expo 0;
#X obj 9 202 outlet;
#X obj 9 16 inlet;
#X obj 67 203 s \$0-modulating;
#X obj 67 178 pack f f;
#X obj 67 127 t b b;
#X msg 9 44 0 0 0 0 0 0 0 0 0 0 0 0 0 0 0 0 0.089 0.17 0.244 0.311
0.372 0.428 0.479 0.525 0.567 0.606 0.641 0.673 0.702 0.728 0.752 0.774
0.794 0.813 0.829 0.844 0.858 0.871 0.882 0.893 0.902 0.911 0.919 0.926
0.933 0.939 0.944 0.949 0.954 0.958 0.961 0.965 0.968 0.971 0.973 0.976
0.978 0.98 0.982 0.983 0.985 0.986 0.987 0.989 0.99 0.99 0.991 0.992
0.993 0.993 0.994 0.995 0.995 0.995 0.996 0.996 0.997 0.997 0.997 0.997
0.998 0.998 0.998 0.998 0.998 0.999 0.999 0.999 0.999 0.999 0.999 0.999
0.999 0.999 0.999 0.999 0.999 1 0, f 134;
#X obj 120 127 expr random(10 \, 100);
#X obj 67 154 expr random(5 \, 100);
#X connect 1 0 5 0;
#X connect 1 0 4 0;
#X connect 3 0 2 0;
#X connect 4 0 7 0;
#X connect 4 1 6 0;
#X connect 5 0 0 0;
#X connect 6 0 3 1;
#X connect 7 0 3 0;
#X restore 401 221 pd expo;
#X connect 2 0 1 0;
#X connect 3 0 2 0;
#X connect 4 0 9 0;
#X connect 5 0 10 0;
#X connect 6 0 11 0;
#X connect 7 0 12 0;
#X connect 8 0 13 0;
#X connect 9 0 1 0;
#X connect 10 0 1 0;
#X connect 11 0 1 0;
#X connect 12 0 1 0;
#X connect 13 0 1 0;
#X connect 14 0 17 0;
#X connect 15 0 16 0;
#X connect 16 0 5 0;
#X connect 16 1 6 0;
#X connect 16 2 7 0;
#X connect 16 3 8 0;
#X connect 16 4 3 0;
#X connect 16 5 4 0;
#X connect 16 6 14 0;
#X connect 17 0 1 0;
#X restore 27 67 pd envelope;
#X msg 192 233 0 0 \, 99 \$1;
#X obj 58 260 *~;
#X obj 202 304 bang~;
#X obj 40 445 outlet~;
#X obj 192 281 tabread4~ \$0-envelope;
#X obj 27 4 inlet list;
#X obj 58 115 mtof;
#X obj 93 235 *;
#X obj 121 94 r \$0-modulating;
#X obj 111 211 *;
#X obj 58 186 expr $f1 * $f2;
#X obj 58 366 expr $f1 * $f2, f 18;
#X obj 40 153 f;
#X obj 121 118 t b l;
#X obj 153 151 unpack f f;
#X obj 192 209 f;
#X obj 27 34 unpack f f f f;
#X obj 181 67 expr (pow(10 \, $f1/20)*0.00001) + $f2;
#X obj 430 4 inlet set_offset;
#X obj 430 33 dbtorms;
#X text 111 4 timbre \, midi \, ioi \, rms;
#X connect 0 0 2 0;
#X connect 1 0 11 0;
#X connect 2 0 4 0;
#X connect 3 0 13 0;
#X connect 4 0 5 0;
#X connect 5 0 3 0;
#X connect 6 0 25 0;
#X connect 7 0 14 0;
#X connect 8 0 21 0;
#X connect 8 0 17 0;
#X connect 10 0 7 0;
#X connect 11 0 0 1;
#X connect 12 0 8 0;
#X connect 14 0 8 0;
#X connect 15 0 26 0;
#X connect 16 0 22 1;
#X connect 17 0 11 1;
#X connect 18 0 23 0;
#X connect 19 0 17 1;
#X connect 20 0 1 0;
#X connect 21 0 5 1;
#X connect 22 0 19 0;
#X connect 22 0 6 0;
#X connect 22 0 0 0;
#X connect 22 0 20 0;
#X connect 23 0 22 0;
#X connect 23 1 24 0;
#X connect 24 0 20 1;
#X connect 24 1 19 1;
#X connect 25 0 10 0;
#X connect 26 0 9 0;
#X connect 26 1 16 0;
#X connect 26 2 25 1;
#X connect 26 3 27 0;
#X connect 27 0 21 1;
#X connect 28 0 29 0;
#X connect 29 0 27 1;
#X coords 0 0 0.5 0.5 0 0 0;
