#N canvas 1440 32 480 1024 10;
#X obj 34 18 loadbang;
#X msg 34 41 1;
#X obj 34 64 tgl 15 0 empty empty empty 17 7 0 10 -262144 -1 -1 0 1
;
#X obj 34 87 metro \$1;
#X obj 34 110 outlet;
#X obj 79 63 inlet time;
#X connect 0 0 1 0;
#X connect 1 0 2 0;
#X connect 2 0 3 0;
#X connect 3 0 4 0;
#X connect 5 0 3 1;
