#N canvas 1280 32 640 1024 12;
#X obj 33 192 outlet;
#X obj 33 152 snapshot~;
#X obj 33 27 noise~;
#X obj 33 79 snapshot~;
#X obj 42 54 bang~;
#X obj 140 27 inlet;
#X obj 189 27 inlet;
#X obj 90 27 inlet;
#X obj 33 104 fscale -1 1 \$1 \$2;
#X obj 63 128 fmetro \$3;
#X connect 1 0 0 0;
#X connect 2 0 3 0;
#X connect 3 0 8 0;
#X connect 4 0 3 0;
#X connect 5 0 8 4;
#X connect 6 0 9 0;
#X connect 7 0 8 3;
#X connect 8 0 1 0;
#X connect 9 0 1 0;
