#N canvas 263 367 450 300 10;
#X obj 256 78 f \$1;
#X obj 296 78 f \$2;
#X obj 337 80 f \$3;
#X obj 386 78 f \$4;
#X obj 328 26 loadbang;
#X obj 72 43 inlet;
#X obj 110 42 inlet;
#X obj 149 42 inlet;
#X obj 188 42 inlet;
#X obj 228 42 inlet;
#X obj 72 196 outlet;
#X obj 72 173 expr (($f5-$f4)*($f1-$f2)/($f3-$f2)) + $f4;
#X floatatom 256 101 5 0 0 0 - - -;
#X floatatom 386 101 5 0 0 0 - - -;
#X floatatom 337 103 5 0 0 0 - - -;
#X floatatom 296 101 5 0 0 0 - - -;
#X floatatom 92 103 5 0 0 0 - - -;
#X connect 0 0 11 1;
#X connect 0 0 12 0;
#X connect 1 0 11 2;
#X connect 1 0 15 0;
#X connect 2 0 11 3;
#X connect 2 0 14 0;
#X connect 3 0 11 4;
#X connect 3 0 13 0;
#X connect 4 0 0 0;
#X connect 4 0 3 0;
#X connect 4 0 2 0;
#X connect 4 0 1 0;
#X connect 5 0 11 0;
#X connect 5 0 16 0;
#X connect 6 0 11 1;
#X connect 7 0 11 2;
#X connect 8 0 11 3;
#X connect 9 0 11 4;
#X connect 11 0 10 0;
