#N canvas 2 54 1916 1000 12;
#X obj 75 285 spigot;
#X obj 75 308 outlet;
#X obj 6 6 inlet sel;
#X obj 75 259 list store;
#X obj 401 175 f;
#X obj 180 190 pack;
#N canvas 962 54 956 1000 timbre 0;
#X obj 13 13 inlet bang;
#X obj 13 88 outlet;
#X obj 96 59 random 11;
#X obj 96 12 inlet mode;
#X obj 96 36 sel 1;
#X obj 13 37 f;
#X connect 0 0 5 0;
#X connect 2 0 5 1;
#X connect 3 0 4 0;
#X connect 4 0 2 0;
#X connect 5 0 1 0;
#X restore 140 112 pd timbre;
#X obj 513 6 inlet flat_curve;
#X obj 401 199 list;
#X obj 250 210 list;
#X obj 250 239 list;
#X obj 336 219 list;
#X obj 336 196 f;
#X obj 419 151 min 99;
#X obj 444 6 inlet amp;
#X text 153 266 This abstraction concatenates values for timbre \,
pitch \, duration \, amplitude and flatness curve into a single list.
;
#N canvas 962 54 956 1000 pitch 0;
#X obj 3 137 outlet pitch;
#X obj 3 7 inlet bang;
#X obj 3 109 f;
#X obj 86 7 inlet pitch;
#X obj 86 32 list-lastx 4;
#X obj 86 57 pick-random;
#X connect 1 0 2 0;
#X connect 2 0 0 0;
#X connect 3 0 4 0;
#X connect 4 0 5 0;
#X connect 5 0 2 1;
#X restore 205 140 pd pitch;
#X obj 158 6 inlet melody;
#N canvas 962 54 956 1000 rhythm 0;
#X obj 3 119 outlet pitch;
#X obj 3 7 inlet bang;
#X obj 3 93 f;
#X obj 85 7 inlet last_dur;
#X obj 85 32 list-lastx 4;
#X obj 85 58 pick-random;
#X connect 1 0 2 0;
#X connect 2 0 0 0;
#X connect 3 0 4 0;
#X connect 4 0 5 0;
#X connect 5 0 2 1;
#X restore 275 99 pd rhythm;
#X obj 354 6 inlet legato;
#X obj 6 34 == 1;
#X obj 513 54 list trim;
#X obj 513 30 list prepend flat;
#X obj 75 72 t b b b b b b, f 47;
#X obj 248 6 inlet last_dur;
#X obj 75 6 inlet dur;
#N canvas 962 54 956 1000 metro 0;
#X obj 82 9 inlet dur;
#X obj 6 9 inlet mode;
#X obj 82 34 list-lastx 4;
#X obj 82 58 list-mean;
#X obj 64 88 f;
#X obj 6 34 change;
#X obj 6 58 sel 1;
#X obj 6 107 metro;
#X obj 6 131 outlet;
#X connect 0 0 2 0;
#X connect 1 0 5 0;
#X connect 2 0 3 0;
#X connect 3 0 4 1;
#X connect 4 0 7 1;
#X connect 5 0 6 0;
#X connect 5 0 7 0;
#X connect 6 0 4 0;
#X connect 7 0 8 0;
#X restore 75 42 pd metro;
#X connect 0 0 1 0;
#X connect 2 0 20 0;
#X connect 3 0 0 0;
#X connect 4 0 8 0;
#X connect 5 0 9 0;
#X connect 6 0 5 0;
#X connect 7 0 22 0;
#X connect 8 0 11 1;
#X connect 9 0 10 0;
#X connect 10 0 3 1;
#X connect 11 0 10 1;
#X connect 12 0 11 0;
#X connect 13 0 4 1;
#X connect 14 0 13 0;
#X connect 16 0 5 1;
#X connect 17 0 16 1;
#X connect 18 0 9 1;
#X connect 19 0 12 1;
#X connect 20 0 0 1;
#X connect 20 0 6 1;
#X connect 20 0 26 0;
#X connect 21 0 8 1;
#X connect 22 0 21 0;
#X connect 23 0 3 0;
#X connect 23 1 6 0;
#X connect 23 2 16 0;
#X connect 23 3 18 0;
#X connect 23 4 12 0;
#X connect 23 5 4 0;
#X connect 24 0 18 1;
#X connect 25 0 26 1;
#X connect 26 0 23 0;
