#N canvas 962 54 956 1000 12;
#X obj 75 305 spigot;
#X obj 75 328 outlet;
#X obj 75 6 inlet onset;
#X obj 6 6 inlet sel;
#X obj 75 279 list store;
#X obj 408 195 f;
#X obj 191 210 pack;
#N canvas 1282 54 636 1000 timbre 0;
#X obj 13 13 inlet bang;
#X obj 13 38 f 0;
#X obj 13 63 + 1;
#X obj 13 88 %;
#X obj 13 113 sel 0;
#X obj 13 188 outlet;
#X obj 92 13 inlet rhythm;
#X obj 92 38 list length;
#X obj 13 163 f;
#X text 60 81 The frequency at which a new timbre is chosen varies
according to the size of the last phrase.;
#N canvas 1282 54 636 1000 old 1;
#X restore 251 242 pd old;
#X obj 13 138 random 11;
#X connect 0 0 1 0;
#X connect 1 0 2 0;
#X connect 2 0 3 0;
#X connect 3 0 1 1;
#X connect 3 0 4 0;
#X connect 4 0 11 0;
#X connect 6 0 7 0;
#X connect 7 0 3 1;
#X connect 8 0 5 0;
#X connect 11 0 8 0;
#X restore 145 142 pd timbre;
#X obj 519 6 inlet flat_curve;
#N canvas 1282 54 636 1000 make_list 0;
#X obj 14 11 inlet list;
#X obj 14 59 list trim;
#X obj 14 83 outlet;
#X obj 14 35 list prepend flat;
#X connect 0 0 3 0;
#X connect 1 0 2 0;
#X connect 3 0 1 0;
#X restore 519 89 pd make_list;
#X obj 408 219 list;
#X obj 262 230 list;
#X obj 262 259 list;
#X obj 341 239 list;
#X obj 75 92 t b b b b b b, f 48;
#X obj 341 216 f;
#X obj 426 171 min 99;
#X obj 450 6 inlet amp;
#X text 153 286 This abstraction concatenates values for timbre \,
pitch \, duration \, amplitude and flatness curve into a single list.
;
#N canvas 1282 54 636 1000 pitch 0;
#X obj 85 7 inlet list;
#X obj 3 157 outlet pitch;
#X obj 3 7 inlet bang;
#X obj 3 129 f;
#X obj 3 103 markov 2, f 24;
#X msg 85 56 create;
#X obj 85 31 t b l;
#X obj 116 80 list-drip;
#X connect 0 0 6 0;
#X connect 2 0 4 0;
#X connect 3 0 1 0;
#X connect 4 0 3 0;
#X connect 5 0 4 0;
#X connect 6 0 5 0;
#X connect 6 1 7 0;
#X connect 7 0 4 1;
#X restore 216 160 pd pitch;
#X obj 160 6 inlet melody;
#N canvas 1282 54 636 1000 rhythm 0;
#X obj 85 7 inlet list;
#X obj 3 154 outlet pitch;
#X obj 3 7 inlet bang;
#X obj 3 128 f;
#X obj 3 102 markov 2, f 24;
#X msg 85 55 create;
#X obj 85 30 t b l;
#X obj 116 79 list-drip;
#X connect 0 0 6 0;
#X connect 2 0 4 0;
#X connect 3 0 1 0;
#X connect 4 0 3 0;
#X connect 5 0 4 0;
#X connect 6 0 5 0;
#X connect 6 1 7 0;
#X connect 7 0 4 1;
#X restore 287 119 pd rhythm;
#X obj 75 65 spigot;
#X obj 359 6 inlet legato;
#X obj 251 6 inlet rhythm;
#X obj 160 58 spigot;
#X obj 251 58 spigot;
#X obj 359 58 spigot;
#X obj 519 58 spigot;
#X obj 6 254 == 1;
#X obj 114 38 == 1;
#X connect 0 0 1 0;
#X connect 2 0 22 0;
#X connect 3 0 29 0;
#X connect 3 0 30 0;
#X connect 4 0 0 0;
#X connect 5 0 10 0;
#X connect 6 0 11 0;
#X connect 7 0 6 0;
#X connect 8 0 28 0;
#X connect 9 0 10 1;
#X connect 10 0 13 1;
#X connect 11 0 12 0;
#X connect 12 0 4 1;
#X connect 13 0 12 1;
#X connect 14 0 4 0;
#X connect 14 1 7 0;
#X connect 14 2 19 0;
#X connect 14 3 21 0;
#X connect 14 4 15 0;
#X connect 14 5 5 0;
#X connect 15 0 13 0;
#X connect 16 0 5 1;
#X connect 17 0 16 0;
#X connect 19 0 6 1;
#X connect 20 0 25 0;
#X connect 21 0 11 1;
#X connect 22 0 14 0;
#X connect 23 0 27 0;
#X connect 24 0 7 1;
#X connect 24 0 26 0;
#X connect 25 0 19 1;
#X connect 26 0 21 1;
#X connect 27 0 15 1;
#X connect 28 0 9 0;
#X connect 29 0 0 1;
#X connect 30 0 22 1;
#X connect 30 0 25 1;
#X connect 30 0 26 1;
#X connect 30 0 27 1;
#X connect 30 0 28 1;
