#N struct 8936-f float x;
#N canvas 1282 84 316 970 12;
#X obj 71 327 spigot;
#X obj 71 350 outlet;
#X obj 71 4 inlet onset;
#X obj 2 4 inlet sel;
#X obj 71 301 list store;
#X obj 293 4 inlet pc_set;
#X obj 225 113 random-list;
#X obj 225 88 list store;
#N canvas 960 32 960 1024 octave 0;
#X obj 20 29 inlet pc;
#X obj 20 197 expr $f1+(($f2+1)*12);
#X obj 20 222 outlet;
#X obj 255 29 inlet oct_spread;
#X obj 164 116 list-sort desc;
#X obj 164 142 list-nth;
#X obj 216 90 random;
#X obj 142 29 inlet oct_prob;
#X obj 164 166 list-find;
#X obj 142 53 t l b l;
#X connect 0 0 1 0;
#X connect 1 0 2 0;
#X connect 3 0 6 1;
#X connect 4 0 5 0;
#X connect 5 0 8 0;
#X connect 6 0 5 1;
#X connect 7 0 9 0;
#X connect 8 0 1 1;
#X connect 9 0 4 0;
#X connect 9 1 6 0;
#X connect 9 2 8 1;
#X restore 225 137 pd octave;
#X obj 154 4 inlet atk_type_list;
#X obj 605 4 inlet ioi_mean;
#X obj 71 30 t b b b b b, f 72;
#X obj 834 4 inlet rms;
#X obj 572 133 f;
#X obj 446 196 f;
#X obj 200 162 pack;
#X obj 709 4 inlet legato_mean;
#X obj 478 196 *;
#X obj 383 4 inlet oct_prob;
#X obj 487 4 inlet oct_spread;
#N canvas 1602 84 316 970 timbre 1;
#X obj 15 13 inlet list;
#X obj 93 13 inlet bang;
#X obj 16 147 list store;
#X obj 16 173 list-mean;
#X obj 16 198 moses 0.5;
#X obj 16 222 bang;
#X obj 76 222 bang;
#X obj 172 13 inlet ioi_mean;
#X obj 93 38 f 0;
#X obj 93 63 + 1;
#X obj 93 88 %;
#X obj 93 113 sel 0;
#X obj 16 307 outlet;
#X obj 172 38 expr if($f1 < 400 \, 30 \, rint(1000 / ($f1/12.)));
#X obj 16 248 expr random(0 \, 4);
#X obj 77 273 expr random(4 \, 8);
#X connect 0 0 2 1;
#X connect 1 0 8 0;
#X connect 2 0 3 0;
#X connect 3 0 4 0;
#X connect 4 0 5 0;
#X connect 4 1 6 0;
#X connect 5 0 14 0;
#X connect 6 0 15 0;
#X connect 7 0 13 0;
#X connect 8 0 9 0;
#X connect 9 0 10 0;
#X connect 10 0 8 1;
#X connect 10 0 11 0;
#X connect 11 0 2 0;
#X connect 13 0 10 1;
#X connect 14 0 12 0;
#X connect 15 0 12 0;
#X restore 166 64 pd timbre;
#X obj 478 170 f;
#X obj 446 103 t b b;
#X text 157 300 timbre \, pitch \, dur \, rms;
#X obj 2 243 == 0;
#X obj 903 4 inlet flat_curve;
#N canvas 962 54 956 1000 make_list 0;
#X obj 14 11 inlet list;
#X obj 14 82 list;
#X msg 14 58 list flat;
#X obj 14 106 list trim;
#X obj 14 35 t b l;
#X obj 14 130 outlet;
#X connect 0 0 4 0;
#X connect 1 0 3 0;
#X connect 2 0 1 0;
#X connect 3 0 5 0;
#X connect 4 0 2 0;
#X connect 4 1 1 1;
#X restore 903 27 pd make_list;
#X obj 572 157 list;
#X obj 421 222 list;
#X obj 421 248 list;
#X connect 0 0 1 0;
#X connect 2 0 11 0;
#X connect 3 0 24 0;
#X connect 4 0 0 0;
#X connect 5 0 7 1;
#X connect 6 0 8 0;
#X connect 7 0 6 0;
#X connect 8 0 15 1;
#X connect 9 0 20 0;
#X connect 10 0 21 1;
#X connect 11 0 4 0;
#X connect 11 1 20 1;
#X connect 11 2 7 0;
#X connect 11 3 22 0;
#X connect 11 4 13 0;
#X connect 12 0 13 1;
#X connect 13 0 27 0;
#X connect 14 0 28 1;
#X connect 15 0 28 0;
#X connect 16 0 17 1;
#X connect 17 0 14 1;
#X connect 18 0 8 1;
#X connect 19 0 8 2;
#X connect 20 0 15 0;
#X connect 21 0 17 0;
#X connect 21 0 20 2;
#X connect 22 0 14 0;
#X connect 22 1 21 0;
#X connect 24 0 0 1;
#X connect 25 0 26 0;
#X connect 26 0 27 1;
#X connect 27 0 29 1;
#X connect 28 0 29 0;
#X connect 29 0 4 1;
