#N canvas 642 54 636 1000 12;
#X obj 75 245 spigot;
#X obj 75 268 outlet;
#X obj 75 6 inlet onset;
#X obj 6 6 inlet sel;
#X obj 75 219 list store;
#X obj 160 6 inlet pc_set;
#N canvas 1282 54 636 1000 octave 0;
#X obj 20 19 inlet pc;
#X obj 20 95 expr $f1+(($f2+1)*12);
#X obj 20 120 outlet;
#X obj 164 19 inlet oct_prob;
#X obj 164 43 t b l, f 12;
#X obj 164 68 list-wrandom;
#X connect 0 0 1 0;
#X connect 1 0 2 0;
#X connect 3 0 4 0;
#X connect 4 0 5 0;
#X connect 4 1 5 1;
#X connect 5 0 1 1;
#X restore 216 125 pd octave;
#X obj 354 6 inlet ioi_mean;
#X obj 429 135 f;
#X obj 191 150 pack;
#X obj 458 6 inlet legato_mean;
#X obj 250 6 inlet oct_prob;
#N canvas 962 54 956 1000 timbre 0;
#X obj 13 13 inlet bang;
#X obj 92 13 inlet ioi_mean;
#X obj 13 38 f 0;
#X obj 13 63 + 1;
#X obj 13 88 %;
#X obj 13 113 sel 0;
#X obj 13 164 outlet;
#X obj 13 139 random 11;
#X text 60 81 The frequency at which a new timbre is chosen varies
according to the mean duration found in the last phrase.;
#X obj 92 38 expr if($f1 < 100 \, 50 \, rint(1000 / ($f1/5)));
#X connect 0 0 2 0;
#X connect 1 0 9 0;
#X connect 2 0 3 0;
#X connect 3 0 4 0;
#X connect 4 0 2 1;
#X connect 4 0 5 0;
#X connect 5 0 7 0;
#X connect 7 0 6 0;
#X connect 9 0 4 1;
#X restore 145 82 pd timbre;
#X obj 287 62 f;
#X obj 6 194 == 0;
#X obj 652 6 inlet flat_curve;
#N canvas 962 54 956 1000 make_list 0;
#X obj 14 11 inlet list;
#X obj 14 59 list trim;
#X obj 14 83 outlet;
#X obj 14 35 list prepend flat;
#X connect 0 0 3 0;
#X connect 1 0 2 0;
#X connect 3 0 1 0;
#X restore 652 29 pd make_list;
#X obj 429 159 list;
#X obj 262 170 list;
#X obj 262 199 list;
#X obj 358 179 list;
#X obj 75 32 t b b b b b b, f 51;
#X obj 358 156 f;
#X obj 447 111 min 99;
#X obj 447 87 * 1.1;
#X obj 583 6 inlet amp;
#X text 153 226 This abstraction concatenates values for timbre \,
pitch \, duration \, amplitude and flatness curve into a single list.
;
#N canvas 962 54 956 1000 pitch 1;
#X obj 87 7 inlet list;
#X obj 3 151 outlet pitch;
#X obj 3 127 markov;
#X msg 17 100 create;
#X msg 63 78 clear;
#X obj 17 53 t b l b;
#X obj 3 7 inlet bang;
#X obj 87 33 list-map;
#X obj 161 33 int;
#X obj 161 56 % 12;
#X connect 0 0 7 0;
#X connect 2 0 1 0;
#X connect 3 0 2 0;
#X connect 4 0 2 0;
#X connect 5 0 3 0;
#X connect 5 1 2 1;
#X connect 5 2 4 0;
#X connect 6 0 2 0;
#X connect 7 0 5 0;
#X connect 7 1 8 0;
#X connect 8 0 9 0;
#X connect 9 0 7 1;
#X restore 216 100 pd pitch;
#X connect 0 0 1 0;
#X connect 2 0 21 0;
#X connect 3 0 14 0;
#X connect 4 0 0 0;
#X connect 5 0 27 1;
#X connect 6 0 9 1;
#X connect 7 0 13 1;
#X connect 8 0 17 0;
#X connect 9 0 18 0;
#X connect 10 0 22 1;
#X connect 11 0 6 1;
#X connect 12 0 9 0;
#X connect 13 0 12 1;
#X connect 13 0 18 1;
#X connect 14 0 0 1;
#X connect 15 0 16 0;
#X connect 16 0 17 1;
#X connect 17 0 20 1;
#X connect 18 0 19 0;
#X connect 19 0 4 1;
#X connect 20 0 19 1;
#X connect 21 0 4 0;
#X connect 21 1 12 0;
#X connect 21 2 27 0;
#X connect 21 3 13 0;
#X connect 21 4 22 0;
#X connect 21 5 8 0;
#X connect 22 0 20 0;
#X connect 23 0 8 1;
#X connect 24 0 23 0;
#X connect 25 0 24 0;
#X connect 27 0 6 0;
