#N struct 1118-f float x;
#N canvas 1282 54 636 1000 12;
#X obj 80 341 spigot;
#X obj 80 364 outlet;
#X obj 80 18 inlet onset;
#X obj 8 18 inlet sel;
#X obj 80 315 list store;
#X obj 306 18 inlet pc_set;
#X obj 239 127 random-list;
#X obj 239 102 list store;
#N canvas 960 32 960 1024 octave 0;
#X obj 20 29 inlet pc;
#X obj 20 197 expr $f1+(($f2+1)*12);
#X obj 20 222 outlet;
#X obj 255 29 inlet oct_spread;
#X obj 164 116 list-sort desc;
#X obj 164 142 list-nth;
#X obj 216 90 random;
#X obj 142 29 inlet oct_prob;
#X obj 164 166 list-find;
#X obj 142 53 t l b l;
#X connect 0 0 1 0;
#X connect 1 0 2 0;
#X connect 3 0 6 1;
#X connect 4 0 5 0;
#X connect 5 0 8 0;
#X connect 6 0 5 1;
#X connect 7 0 9 0;
#X connect 8 0 1 1;
#X connect 9 0 4 0;
#X connect 9 1 6 0;
#X connect 9 2 8 1;
#X restore 239 151 pd octave;
#X obj 165 18 inlet atk_type_list;
#X obj 623 18 inlet ioi_mean;
#X obj 80 44 t b b b b b, f 74;
#X obj 856 18 inlet rms;
#X obj 595 227 f;
#X obj 521 252 list append;
#X obj 392 196 list append;
#X obj 466 172 f;
#X obj 214 176 pack;
#X obj 729 18 inlet legato_mean;
#X obj 498 172 *;
#X obj 399 18 inlet oct_prob;
#X obj 503 18 inlet oct_spread;
#N canvas 0 32 1920 1024 timbre 0;
#X obj 15 13 inlet list;
#X obj 93 13 inlet bang;
#X obj 16 147 list store;
#X obj 16 173 list-mean;
#X obj 16 198 moses 0.5;
#X obj 16 222 bang;
#X obj 76 222 bang;
#X obj 16 249 expr random(0 \, 3);
#X obj 172 13 inlet ioi_mean;
#X obj 93 38 f 0;
#X obj 93 63 + 1;
#X obj 93 88 %;
#X obj 93 113 sel 0;
#X obj 16 307 outlet;
#X obj 77 273 expr random(3 \, 7);
#X obj 172 38 expr if($f1 < 400 \, 30 \, rint(1000 / ($f1/12.)));
#X connect 0 0 2 1;
#X connect 1 0 9 0;
#X connect 2 0 3 0;
#X connect 3 0 4 0;
#X connect 4 0 5 0;
#X connect 4 1 6 0;
#X connect 5 0 7 0;
#X connect 6 0 14 0;
#X connect 7 0 13 0;
#X connect 8 0 15 0;
#X connect 9 0 10 0;
#X connect 10 0 11 0;
#X connect 11 0 9 1;
#X connect 11 0 12 0;
#X connect 12 0 2 0;
#X connect 14 0 13 0;
#X connect 15 0 11 1;
#X restore 178 78 pd timbre;
#X obj 498 146 f;
#X obj 466 117 t b b;
#X text 166 314 timbre \, pitch \, dur \, rms;
#X obj 8 257 == 0;
#X connect 0 0 1 0;
#X connect 2 0 11 0;
#X connect 3 0 26 0;
#X connect 4 0 0 0;
#X connect 5 0 7 1;
#X connect 6 0 8 0;
#X connect 7 0 6 0;
#X connect 8 0 17 1;
#X connect 9 0 22 0;
#X connect 10 0 23 1;
#X connect 11 0 4 0;
#X connect 11 1 22 1;
#X connect 11 2 7 0;
#X connect 11 3 24 0;
#X connect 11 4 13 0;
#X connect 12 0 13 1;
#X connect 13 0 14 1;
#X connect 14 0 4 1;
#X connect 15 0 14 0;
#X connect 16 0 15 1;
#X connect 17 0 15 0;
#X connect 18 0 19 1;
#X connect 19 0 16 1;
#X connect 20 0 8 1;
#X connect 21 0 8 2;
#X connect 22 0 17 0;
#X connect 23 0 19 0;
#X connect 23 0 22 2;
#X connect 24 0 16 0;
#X connect 24 1 23 0;
#X connect 26 0 0 1;
