#N canvas 2 54 1916 1000 12;
#X obj 75 285 spigot;
#X obj 75 308 outlet;
#X obj 75 6 inlet onset;
#X obj 6 6 inlet sel;
#X obj 75 259 list store;
#X obj 160 6 inlet pc_set;
#X obj 238 116 list store;
#N canvas 1282 54 636 1000 octave 0;
#X obj 20 19 inlet pc;
#X obj 20 95 expr $f1+(($f2+1)*12);
#X obj 20 120 outlet;
#X obj 164 19 inlet oct_prob;
#X obj 164 43 t b l, f 12;
#X obj 164 68 list-wrandom;
#X connect 0 0 1 0;
#X connect 1 0 2 0;
#X connect 3 0 4 0;
#X connect 4 0 5 0;
#X connect 4 1 5 1;
#X connect 5 0 1 1;
#X restore 238 165 pd octave;
#X obj 354 6 inlet ioi_mean;
#X obj 583 6 inlet rms;
#X obj 436 173 f;
#X obj 213 190 pack;
#X obj 458 6 inlet legato_mean;
#X obj 250 6 inlet oct_prob;
#N canvas 962 54 956 1000 timbre 0;
#X obj 13 13 inlet bang;
#X obj 92 13 inlet ioi_mean;
#X obj 13 38 f 0;
#X obj 13 63 + 1;
#X obj 13 88 %;
#X obj 13 113 sel 0;
#X obj 13 164 outlet;
#X obj 13 139 random 11;
#X text 60 81 The frequency at which a new timbre is chosen varies
according to the mean duration found in the last phrase.;
#X obj 92 38 expr if($f1 < 100 \, 50 \, rint(1000 / ($f1/5)));
#X connect 0 0 2 0;
#X connect 1 0 9 0;
#X connect 2 0 3 0;
#X connect 3 0 4 0;
#X connect 4 0 2 1;
#X connect 4 0 5 0;
#X connect 5 0 7 0;
#X connect 7 0 6 0;
#X connect 9 0 4 1;
#X restore 147 102 pd timbre;
#X obj 327 83 f;
#X obj 6 234 == 0;
#X obj 652 6 inlet flat_curve;
#N canvas 962 54 956 1000 make_list 0;
#X obj 14 11 inlet list;
#X obj 14 59 list trim;
#X obj 14 83 outlet;
#X obj 14 35 list prepend flat;
#X connect 0 0 3 0;
#X connect 1 0 2 0;
#X connect 3 0 1 0;
#X restore 652 29 pd make_list;
#X obj 436 197 list;
#X obj 302 210 list;
#X obj 302 239 list;
#X text 153 266 This abstraction concatenates values for timbre \,
pitch \, duration \, amplitude (rms) and flatness curve into a single
list.;
#X obj 238 141 pick-random;
#X obj 393 220 list;
#X obj 75 32 t b b b b b b, f 52;
#X obj 393 197 f;
#X obj 454 149 min 99;
#X obj 454 125 * 1.1;
#X connect 0 0 1 0;
#X connect 2 0 25 0;
#X connect 3 0 16 0;
#X connect 4 0 0 0;
#X connect 5 0 6 1;
#X connect 6 0 23 0;
#X connect 7 0 11 1;
#X connect 8 0 15 1;
#X connect 9 0 28 0;
#X connect 10 0 19 0;
#X connect 11 0 20 0;
#X connect 12 0 26 1;
#X connect 13 0 7 1;
#X connect 14 0 11 0;
#X connect 15 0 14 1;
#X connect 15 0 20 1;
#X connect 16 0 0 1;
#X connect 17 0 18 0;
#X connect 18 0 19 1;
#X connect 19 0 24 1;
#X connect 20 0 21 0;
#X connect 21 0 4 1;
#X connect 23 0 7 0;
#X connect 24 0 21 1;
#X connect 25 0 4 0;
#X connect 25 1 14 0;
#X connect 25 2 6 0;
#X connect 25 3 15 0;
#X connect 25 4 26 0;
#X connect 25 5 10 0;
#X connect 26 0 24 0;
#X connect 27 0 10 1;
#X connect 28 0 27 0;
