#N canvas 962 54 956 1000 12;
#X obj 7 61 timer;
#X obj 7 35 t b b;
#X obj 7 10 inlet onset;
#X obj 7 85 outlet ms;
#X text 107 7 Each rhythmic figure duration is calculated as the elapsed
time between two onsets.;
#X connect 0 0 3 0;
#X connect 1 0 0 0;
#X connect 1 1 0 1;
#X connect 2 0 1 0;
