#N canvas 962 54 956 1000 12;
#X obj 2 18 inlet onset;
#X obj 46 141 outlet;
#X obj 93 18 inlet status;
#X obj 2 53 ioi;
#X obj 93 58 timer;
#X obj 46 94 /;
#X obj 46 118 min 1;
#X connect 0 0 3 0;
#X connect 0 0 4 1;
#X connect 2 0 4 0;
#X connect 3 0 5 1;
#X connect 4 0 5 0;
#X connect 5 0 6 0;
#X connect 6 0 1 0;
