#N canvas 960 32 960 1024 12;
#X obj 2 18 inlet onset;
#X obj 69 159 ioi;
#X obj 103 18 inlet offset;
#X obj 103 87 metro 1;
#X obj 103 110 f 0;
#X obj 103 135 + 1;
#X msg 2 68 0;
#X obj 117 182 f;
#X obj 46 183 f;
#X obj 47 212 /;
#X obj 47 236 expr if($f1 > 1 \, 1 \, $f1);
#X obj 135 136 f;
#X obj 47 261 outlet;
#X obj 2 45 t b b b b, f 10;
#X obj 135 51 sel 0;
#X connect 0 0 13 0;
#X connect 1 0 8 1;
#X connect 2 0 3 0;
#X connect 2 0 14 0;
#X connect 3 0 4 0;
#X connect 4 0 5 0;
#X connect 5 0 4 1;
#X connect 5 0 11 1;
#X connect 6 0 4 1;
#X connect 7 0 9 0;
#X connect 8 0 9 1;
#X connect 9 0 10 0;
#X connect 10 0 12 0;
#X connect 11 0 7 1;
#X connect 13 0 6 0;
#X connect 13 1 7 0;
#X connect 13 2 8 0;
#X connect 13 3 1 0;
#X connect 14 0 11 0;
