#N canvas 1282 54 636 1000 12;
#X obj 2 18 inlet onset;
#X obj 93 172 outlet;
#X obj 2 53 ioi;
#X obj 93 53 timer;
#X obj 93 149 min 1;
#X obj 93 17 inlet offset;
#X obj 111 102 +;
#X obj 93 125 /;
#X obj 93 77 t f f;
#X connect 0 0 2 0;
#X connect 0 0 3 1;
#X connect 2 0 6 1;
#X connect 3 0 8 0;
#X connect 4 0 1 0;
#X connect 5 0 2 1;
#X connect 5 0 3 0;
#X connect 6 0 7 1;
#X connect 7 0 4 0;
#X connect 8 0 7 0;
#X connect 8 1 6 0;
