#N canvas 0 32 1920 1048 12;
#X obj 82 252 list-mean;
#X obj 158 252 list-stddev;
#X obj 7 278 expr ($f1 - $f2) / $f3;
#X obj 7 302 outlet;
#X obj 171 14 inlet index;
#X obj 82 227 t l l;
#X obj 82 180 list-drip;
#X obj 7 14 inlet last;
#X obj 82 154 list-extend;
#X obj 7 38 t f f;
#X obj 82 204 list-lastx 12;
#X obj 156 54 list length;
#X obj 156 128 list store;
#X obj 223 104 list-lastx 144;
#X obj 156 102 sel 1;
#X obj 156 78 >= 288;
#X obj 223 79 list-drip;
#X connect 0 0 2 1;
#X connect 1 0 2 2;
#X connect 2 0 3 0;
#X connect 4 0 10 1;
#X connect 5 0 0 0;
#X connect 5 1 1 0;
#X connect 6 0 10 0;
#X connect 7 0 9 0;
#X connect 8 0 6 0;
#X connect 8 0 11 0;
#X connect 8 0 16 0;
#X connect 9 0 2 0;
#X connect 9 1 8 0;
#X connect 10 0 5 0;
#X connect 11 0 15 0;
#X connect 12 0 8 1;
#X connect 13 0 12 1;
#X connect 14 0 12 0;
#X connect 15 0 14 0;
#X connect 16 0 13 0;
