#N canvas 564 85 430 707 10;
#X obj 49 37 inlet;
#N canvas 421 365 185 239 list-drip 0;
#X obj 42 39 inlet;
#X obj 42 154 list store;
#X obj 42 85 until;
#X obj 42 108 f;
#X obj 72 108 + 1;
#X msg 42 131 get \$1 1;
#X obj 83 86 0;
#X obj 42 177 outlet;
#X obj 99 177 outlet;
#X obj 42 62 t b b a;
#X connect 0 0 9 0;
#X connect 1 0 7 0;
#X connect 1 1 8 0;
#X connect 1 1 2 1;
#X connect 2 0 3 0;
#X connect 3 0 5 0;
#X connect 3 0 4 0;
#X connect 4 0 3 1;
#X connect 5 0 1 0;
#X connect 6 0 3 1;
#X connect 9 0 2 0;
#X connect 9 1 6 0;
#X connect 9 2 1 1;
#X restore 83 129 pd list-drip;
#X obj 299 37 inlet;
#X obj 299 60 max;
#X obj 100 106 text define \$0-buffer;
#X msg 100 83 clear;
#X obj 83 198 sel -1;
#X obj 83 152 t a a;
#X obj 83 221 list;
#X obj 83 175 text search \$0-buffer 1;
#X obj 116 244 text get \$0-buffer;
#X obj 116 267 list split 1;
#X obj 116 290 + 1;
#X obj 146 336 list;
#X obj 116 221 t f f;
#X obj 146 359 text set \$0-buffer;
#X obj 83 474 text set \$0-buffer 1e+06;
#X obj 116 313 t f f;
#X obj 116 359 sel;
#X obj 116 382 list;
#X obj 116 428 text set \$0-buffer 1e+06;
#X obj 66 520 text sequence \$0-buffer;
#X obj 66 543 list split 1;
#X obj 83 451 list prepend 1;
#X obj 116 405 list prepend 0;
#X msg 66 497 line 0 \, auto;
#X obj 100 566 list prepend append;
#X obj 100 589 list trim;
#X obj 49 612 list store;
#X obj 49 60 t b b a b;
#X obj 49 635 outlet;
#X obj 116 336 >;
#X connect 0 0 29 0;
#X connect 1 0 7 0;
#X connect 2 0 3 0;
#X connect 3 0 31 1;
#X connect 5 0 4 0;
#X connect 6 0 8 0;
#X connect 6 1 14 0;
#X connect 7 0 9 0;
#X connect 7 1 8 1;
#X connect 8 0 23 0;
#X connect 9 0 6 0;
#X connect 10 0 11 0;
#X connect 11 0 12 0;
#X connect 11 1 13 1;
#X connect 11 1 19 1;
#X connect 12 0 17 0;
#X connect 13 0 15 0;
#X connect 14 0 10 0;
#X connect 14 1 15 1;
#X connect 17 0 31 0;
#X connect 17 1 13 0;
#X connect 18 0 19 0;
#X connect 19 0 24 0;
#X connect 21 0 22 0;
#X connect 22 1 26 0;
#X connect 23 0 16 0;
#X connect 24 0 20 0;
#X connect 25 0 21 0;
#X connect 26 0 27 0;
#X connect 27 0 28 0;
#X connect 28 0 30 0;
#X connect 29 0 28 0;
#X connect 29 1 25 0;
#X connect 29 2 1 0;
#X connect 29 3 8 1;
#X connect 29 3 5 0;
#X connect 29 3 28 1;
#X connect 31 0 18 0;
