#N canvas 1282 54 636 1000 12;
#X obj 17 167 list-urn;
#X obj 17 145 until;
#X obj 49 120 sel done;
#X obj 17 191 list-lastx;
#X obj 84 143 list length;
#X obj 17 63 t b l l;
#X obj 17 216 list split 1;
#X obj 84 167 + 1;
#N canvas 1442 54 476 1000 any2symbol 0;
#X obj 134 105 makefilename %g;
#X obj 251 190 outlet;
#X obj 17 33 inlet;
#X obj 251 105 symbol bang;
#N canvas 1538 54 380 1000 list-any 0;
#X obj 69 36 inlet;
#X obj 69 370 outlet;
#X obj 69 125 trigger bang list bang;
#X obj 264 301 list prepend;
#X obj 69 294 list;
#X obj 333 259 list append 32;
#X obj 69 332 list tosymbol;
#X obj 185 270 list fromsymbol;
#X obj 69 89 list;
#N canvas 816 210 280 272 drip 0;
#X obj 92 201 outlet;
#X obj 110 32 inlet;
#X obj 81 90 until;
#X obj 92 177 list store;
#X obj 110 61 t b b l;
#X obj 81 119 f;
#X obj 116 120 + 1;
#X msg 129 94 0, f 2;
#X msg 81 148 get \$1 1;
#X connect 1 0 4 0;
#X connect 2 0 5 0;
#X connect 3 0 0 0;
#X connect 3 1 2 1;
#X connect 4 0 2 0;
#X connect 4 1 7 0;
#X connect 4 2 3 1;
#X connect 5 0 6 0;
#X connect 5 0 8 0;
#X connect 6 0 5 1;
#X connect 7 0 5 1;
#X connect 8 0 3 0;
#X restore 133 171 pd drip;
#X obj 133 208 route float symbol;
#X obj 133 238 makefilename %g;
#X connect 0 0 8 0;
#X connect 2 0 4 0;
#X connect 2 1 9 0;
#X connect 2 2 3 1;
#X connect 3 0 4 1;
#X connect 3 0 5 0;
#X connect 4 0 6 0;
#X connect 5 0 3 1;
#X connect 6 0 1 0;
#X connect 7 0 3 0;
#X connect 8 0 2 0;
#X connect 9 0 10 0;
#X connect 10 0 11 0;
#X connect 10 1 7 0;
#X connect 11 0 7 0;
#X restore 368 105 pd list-any;
#X text 492 124 Part of ELSE \; https://github.com/porres/pd-else;
#X obj 17 72 route symbol float bang, f 59;
#X text 494 105 Alexandre Torres Porres (2018-2020);
#X connect 0 0 1 0;
#X connect 2 0 6 0;
#X connect 3 0 1 0;
#X connect 4 0 1 0;
#X connect 6 0 1 0;
#X connect 6 1 0 0;
#X connect 6 2 3 0;
#X connect 6 3 4 0;
#X restore 49 96 pd any2symbol;
#X obj 96 9 inlet list;
#X obj 17 9 inlet bang;
#X obj 57 242 outlet list;
#X obj 17 39 list store;
#X connect 0 0 3 0;
#X connect 0 0 8 0;
#X connect 1 0 0 0;
#X connect 2 0 1 1;
#X connect 3 0 6 0;
#X connect 4 0 7 0;
#X connect 5 0 1 0;
#X connect 5 1 0 1;
#X connect 5 2 4 0;
#X connect 6 1 11 0;
#X connect 7 0 3 1;
#X connect 8 0 2 0;
#X connect 9 0 12 1;
#X connect 10 0 12 0;
#X connect 12 0 5 0;
