#N canvas 1440 32 480 1024 12;
#X obj 43 29 inlet;
#X obj 43 259 outlet;
#X obj 61 121 list split 1, f 15;
#X obj 61 79 until;
#X obj 61 97 list append;
#X obj 163 154 bang;
#X obj 61 152 route float;
#X obj 61 183 +;
#X obj 61 209 t f f;
#X obj 43 236 f;
#X msg 101 183 0;
#X obj 43 48 t b b l b;
#X text 289 21 part of zexy;
#X text 37 11 sum up a list of floats;
#X text 212 87 requires pd>=0.39;
#X connect 0 0 11 0;
#X connect 2 0 6 0;
#X connect 2 1 4 1;
#X connect 2 2 5 0;
#X connect 3 0 4 0;
#X connect 4 0 2 0;
#X connect 5 0 3 1;
#X connect 6 0 7 0;
#X connect 7 0 8 0;
#X connect 8 0 9 1;
#X connect 8 1 7 1;
#X connect 9 0 1 0;
#X connect 10 0 8 0;
#X connect 11 0 9 0;
#X connect 11 1 3 0;
#X connect 11 2 4 1;
#X connect 11 3 10 0;
