#N canvas 1440 32 480 1024 12;
#X obj 22 45 unpack f f f f;
#X obj 268 21 inlet offset;
#X text 63 21 atk type \, pitch \, ioi \, rms;
#X obj 117 105 clip 10 120;
#X obj 22 20 inlet;
#X obj 33 257 makenote;
#X obj 33 289 outlet note;
#X obj 123 289 outlet velocity;
#X obj 117 81 fscale 0 100 0 120;
#X obj 33 199 expr if($f1 > 108 \, ($f1%12) + 96 \, $f1);
#X obj 33 171 expr if($f1 < 36 \, ($f1%12) + 39 \, $f1);
#X obj 33 224 clip 36 108;
#X obj 85 139 expr if($f1 < 40 \, 40 \, $f1);
#X connect 0 1 10 0;
#X connect 0 2 12 0;
#X connect 0 3 8 0;
#X connect 1 0 8 3;
#X connect 3 0 5 1;
#X connect 4 0 0 0;
#X connect 5 0 6 0;
#X connect 5 1 7 0;
#X connect 8 0 3 0;
#X connect 9 0 11 0;
#X connect 10 0 9 0;
#X connect 11 0 5 0;
#X connect 12 0 5 2;
