#N canvas 962 54 956 1000 12;
#X obj 22 20 inlet;
#X obj 49 189 makenote;
#X obj 49 221 outlet note;
#X obj 139 221 outlet velocity;
#X obj 131 97 clip 10 100;
#X obj 102 124 clip 40 10000;
#X obj 49 156 clip 21 108;
#X obj 22 71 unpack f f f f f;
#X obj 22 45 list split 5;
#X text 63 21 Timbre \, pitch \, dur \, legato \, amp \, flatness curve.
;
#X connect 0 0 8 0;
#X connect 1 0 2 0;
#X connect 1 1 3 0;
#X connect 4 0 1 1;
#X connect 5 0 1 2;
#X connect 6 0 1 0;
#X connect 7 1 6 0;
#X connect 7 2 5 0;
#X connect 7 4 4 0;
#X connect 8 0 7 0;
