#N canvas 1282 54 636 1000 12;
#X obj 22 85 unpack f f f f;
#X text 63 21 atk type \, pitch \, ioi \, rms;
#X obj 22 20 inlet;
#X obj 32 217 makenote;
#X obj 32 249 outlet note;
#X obj 122 249 outlet velocity;
#X obj 22 49 list split 4;
#X obj 117 115 clip 10 100;
#X obj 85 152 clip 40 10000;
#X floatatom 121 334 5 0 0 0 - - -;
#X floatatom 15 138 5 0 0 0 - - -;
#X obj 32 184 clip 21 108;
#X connect 0 1 10 0;
#X connect 0 1 11 0;
#X connect 0 2 8 0;
#X connect 0 3 7 0;
#X connect 2 0 6 0;
#X connect 3 0 4 0;
#X connect 3 1 5 0;
#X connect 6 0 0 0;
#X connect 7 0 3 1;
#X connect 8 0 3 2;
#X connect 11 0 3 0;
#X connect 11 0 9 0;
