#N canvas 2 54 1916 1000 12;
#X obj 23 291 *~;
#X obj 108 292 *~;
#X obj 126 26 noise~;
#X obj 126 106 snapshot~;
#X obj 23 26 inlet~;
#X obj 126 178 * -1;
#X obj 126 202 + 1;
#X obj 126 130 abs;
#X obj 23 340 outlet~;
#X obj 108 346 outlet~;
#X obj 192 27 loadbang;
#X msg 192 51 1;
#X obj 41 213 pack f f;
#X obj 41 238 line;
#X obj 126 224 pack f f;
#X obj 126 247 line;
#X obj 23 316 *~ 0.5;
#X obj 108 317 *~ 0.5;
#X obj 126 154 t f f;
#X obj 192 81 metro 5000;
#X obj 41 264 osc~;
#X obj 126 271 osc~;
#X connect 0 0 16 0;
#X connect 1 0 17 0;
#X connect 2 0 3 0;
#X connect 3 0 7 0;
#X connect 4 0 0 0;
#X connect 4 0 1 0;
#X connect 5 0 6 0;
#X connect 6 0 14 0;
#X connect 7 0 18 0;
#X connect 10 0 11 0;
#X connect 11 0 19 0;
#X connect 12 0 13 0;
#X connect 13 0 20 0;
#X connect 14 0 15 0;
#X connect 15 0 21 0;
#X connect 16 0 8 0;
#X connect 17 0 9 0;
#X connect 18 0 5 0;
#X connect 18 0 12 0;
#X connect 18 1 14 1;
#X connect 18 1 12 1;
#X connect 19 0 3 0;
#X connect 20 0 0 1;
#X connect 21 0 1 1;
