#N canvas 2 54 1916 1000 12;
#X obj 16 207 *~;
#X obj 91 207 *~;
#X obj 16 13 inlet~;
#X obj 109 85 * -1;
#X obj 109 109 + 1;
#X obj 109 61 abs;
#X obj 16 233 outlet~;
#X obj 91 233 outlet~;
#X obj 34 131 pack f f;
#X obj 34 156 line;
#X obj 109 131 pack f f;
#X obj 109 156 line;
#X obj 34 182 osc~;
#X obj 109 182 osc~;
#X obj 235 13 inlet event;
#X obj 109 13 drunkard 10 1 100;
#X obj 109 37 / 100;
#X obj 235 64 unpack f f f f f, f 17;
#X obj 235 37 list split 5;
#X obj 235 88 bang;
#X connect 0 0 6 0;
#X connect 1 0 7 0;
#X connect 2 0 0 0;
#X connect 2 0 1 0;
#X connect 3 0 4 0;
#X connect 4 0 10 0;
#X connect 5 0 8 0;
#X connect 5 0 3 0;
#X connect 8 0 9 0;
#X connect 9 0 12 0;
#X connect 10 0 11 0;
#X connect 11 0 13 0;
#X connect 12 0 0 1;
#X connect 13 0 1 1;
#X connect 14 0 18 0;
#X connect 15 0 16 0;
#X connect 16 0 5 0;
#X connect 17 0 19 0;
#X connect 17 2 8 1;
#X connect 17 2 10 1;
#X connect 18 0 17 0;
#X connect 19 0 15 0;
