#N canvas 1282 54 636 1000 12;
#X obj 16 121 freeverb~, f 10;
#X obj 16 13 inlet~ L;
#X obj 83 13 inlet~ R;
#X msg 377 70 roomsize \$1;
#X msg 292 70 damping \$1;
#X obj 16 146 outlet~ L;
#X obj 86 146 outlet~ R;
#X msg 222 71 width \$1;
#X msg 104 71 wet \$1;
#X msg 163 71 dry \$1;
#N canvas 1538 54 380 1000 line 0;
#X msg 11 115 \$1 1000;
#X obj 11 139 line;
#X obj 11 163 outlet;
#X obj 11 17 loadbang;
#X msg 11 41 1;
#X obj 11 64 metro 5000;
#X obj 78 40 expr $f1 * 10000;
#X obj 11 89 expr float(random(10 \, 70))/100;
#X connect 0 0 1 0;
#X connect 1 0 2 0;
#X connect 3 0 4 0;
#X connect 4 0 5 0;
#X connect 5 0 7 0;
#X connect 6 0 5 1;
#X connect 7 0 6 0;
#X connect 7 0 0 0;
#X restore 377 45 pd line;
#N canvas 1538 54 380 1000 line 0;
#X msg 11 115 \$1 1000;
#X obj 11 139 line;
#X obj 11 163 outlet;
#X obj 11 17 loadbang;
#X msg 11 41 1;
#X obj 11 64 metro 5000;
#X obj 78 40 expr $f1 * 10000;
#X obj 11 89 expr float(random(10 \, 80))/100;
#X connect 0 0 1 0;
#X connect 1 0 2 0;
#X connect 3 0 4 0;
#X connect 4 0 5 0;
#X connect 5 0 7 0;
#X connect 6 0 5 1;
#X connect 7 0 6 0;
#X connect 7 0 0 0;
#X restore 222 47 pd line;
#N canvas 1538 54 380 1000 line 0;
#X msg 11 115 \$1 1000;
#X obj 11 139 line;
#X obj 11 163 outlet;
#X obj 11 17 loadbang;
#X msg 11 41 1;
#X obj 11 64 metro 5000;
#X obj 78 40 expr $f1 * 10000;
#X obj 11 89 expr float(random(10 \, 80))/100;
#X connect 0 0 1 0;
#X connect 1 0 2 0;
#X connect 3 0 4 0;
#X connect 4 0 5 0;
#X connect 5 0 7 0;
#X connect 6 0 5 1;
#X connect 7 0 6 0;
#X connect 7 0 0 0;
#X restore 163 47 pd line;
#N canvas 1538 54 380 1000 line 0;
#X msg 11 115 \$1 1000;
#X obj 11 139 line;
#X obj 11 163 outlet;
#X obj 11 17 loadbang;
#X msg 11 41 1;
#X obj 11 64 metro 5000;
#X obj 78 40 expr $f1 * 10000;
#X obj 11 89 expr float(random(10 \, 190))/100;
#X connect 0 0 1 0;
#X connect 1 0 2 0;
#X connect 3 0 4 0;
#X connect 4 0 5 0;
#X connect 5 0 7 0;
#X connect 6 0 5 1;
#X connect 7 0 6 0;
#X connect 7 0 0 0;
#X restore 292 46 pd line;
#N canvas 1538 54 380 1000 wet 0;
#X msg 11 115 \$1 1000;
#X obj 11 139 line;
#X obj 11 163 outlet;
#X obj 11 17 loadbang;
#X msg 11 41 1;
#X obj 11 64 metro 5000;
#X obj 78 40 expr $f1 * 10000;
#X obj 11 89 expr float(random(10 \, 80))/100;
#X connect 0 0 1 0;
#X connect 1 0 2 0;
#X connect 3 0 4 0;
#X connect 4 0 5 0;
#X connect 5 0 7 0;
#X connect 6 0 5 1;
#X connect 7 0 6 0;
#X connect 7 0 0 0;
#X restore 104 48 pd wet;
#X connect 0 0 5 0;
#X connect 0 1 6 0;
#X connect 1 0 0 0;
#X connect 2 0 0 1;
#X connect 3 0 0 0;
#X connect 4 0 0 0;
#X connect 7 0 0 0;
#X connect 8 0 0 0;
#X connect 9 0 0 0;
#X connect 10 0 3 0;
#X connect 11 0 7 0;
#X connect 12 0 9 0;
#X connect 13 0 4 0;
#X connect 14 0 8 0;
