#N canvas 1282 54 636 1000 12;
#X obj 37 37 inlet float;
#X obj 37 62 t f f;
#X obj 69 85 wrap;
#X obj 69 109 > 0.5;
#X obj 37 86 int;
#X obj 37 143 expr if($f2 == 1 \, $f1+1 \, $f1);
#X obj 37 167 outlet;
#X connect 0 0 1 0;
#X connect 1 0 4 0;
#X connect 1 1 2 0;
#X connect 2 0 3 0;
#X connect 3 0 5 1;
#X connect 4 0 5 0;
#X connect 5 0 6 0;
