#N canvas 960 32 960 1024 10;
#X obj 26 208 print add;
#X msg 26 137 5 5 5 5 x;
#X text 18 21 list-emath: Do math on lists element by element;
#X msg 289 140 0 1 2 3 4;
#X msg 210 139 5 5 5 5 x;
#X msg 27 255 5 5 5 5 x;
#X msg 208 261 5 5 5 5 x;
#X obj 210 210 print mult;
#X obj 27 326 print sub;
#X obj 208 332 print div;
#X obj 208 293 list-emath /;
#X obj 26 170 list-emath +;
#X obj 210 172 list-emath *;
#X obj 27 288 list-emath -;
#X msg 287 262 0 1 x 3 4;
#X msg 106 256 0 1 2 x 4;
#X msg 105 138 0 1 2 x 4;
#X text 19 54 Non-floats in second list will be replaced by 0 for +
and - \, and by 1 for * and /.;
#X msg 369 261 0 0 0 0 0;
#X text 367 242 Just say no!;
#X text 19 90 Symbols in first list will pass unchanged.;
#X text 22 375 Also see list-add \, list-mult \, list-sub for shortcuts.
;
#N canvas 416 170 494 396 META 0;
#X text 12 5 KEYWORDS control list_op;
#X text 12 25 LICENSE SIBSD;
#X text 12 125 AUTHOR Frank Barknecht;
#X text 12 145 HELP_PATCH_AUTHORS Frank Barknecht. "pd meta" information
added by Jonathan Wilkes for Pd version 0.42.;
#X text 12 45 DESCRIPTION do math on lists element by element;
#X text 12 65 INLET_0 list;
#X text 12 85 INLET_1 list;
#X text 12 105 OUTLET_0 list;
#X restore 422 385 pd META;
#X connect 1 0 11 0;
#X connect 3 0 12 1;
#X connect 4 0 12 0;
#X connect 5 0 13 0;
#X connect 6 0 10 0;
#X connect 10 0 9 0;
#X connect 11 0 0 0;
#X connect 12 0 7 0;
#X connect 13 0 8 0;
#X connect 14 0 10 1;
#X connect 15 0 13 1;
#X connect 16 0 11 1;
#X connect 18 0 10 1;
